<?xml version="1.0" encoding="UTF-8" standalone="no"?>
<svg
   version="1.1"
   x="0px"
   y="0px"
   viewBox="0 0 100 100"
   enable-background="new 0 0 100 100"
   xml:space="preserve"
   id="svg120"
   sodipodi:docname="shuriken-accent-white.svg"
   width="100"
   height="100"
   inkscape:version="1.1.2 (0a00cf5339, 2022-02-04)"
   xmlns:inkscape="http://www.inkscape.org/namespaces/inkscape"
   xmlns:sodipodi="http://sodipodi.sourceforge.net/DTD/sodipodi-0.dtd"
   xmlns="http://www.w3.org/2000/svg"
   xmlns:svg="http://www.w3.org/2000/svg"><defs
     id="defs124"><linearGradient
       id="linearGradient1371"
       inkscape:swatch="solid"><stop
         style="stop-color:#000000;stop-opacity:1;"
         offset="0"
         id="stop1369" /></linearGradient><filter
       style="color-interpolation-filters:sRGB;"
       inkscape:label="Invert"
       id="filter488"
       x="0"
       y="0"
       width="1"
       height="1"><feColorMatrix
         values="1 0 0 0 0 0 1 0 0 0 0 0 1 0 0 -0.21 -0.72 -0.07 2 0 "
         result="fbSourceGraphic"
         id="feColorMatrix486" /><feColorMatrix
         result="fbSourceGraphicAlpha"
         in="fbSourceGraphic"
         values="0 0 0 -1 0 0 0 0 -1 0 0 0 0 -1 0 0 0 0 1 0"
         id="feColorMatrix508" /><feColorMatrix
         id="feColorMatrix510"
         values="1 0 0 0 0 0 1 0 0 0 0 0 1 0 0 -0.21 -0.72 -0.07 2 0 "
         result="fbSourceGraphic"
         in="fbSourceGraphic" /><feColorMatrix
         result="fbSourceGraphicAlpha"
         in="fbSourceGraphic"
         values="0 0 0 -1 0 0 0 0 -1 0 0 0 0 -1 0 0 0 0 1 0"
         id="feColorMatrix530" /><feColorMatrix
         id="feColorMatrix532"
         type="hueRotate"
         values="180"
         result="color1"
         in="fbSourceGraphic" /><feColorMatrix
         id="feColorMatrix534"
         values="1 0 0 0 0 0 1 0 0 0 0 0 1 0 0 -0.21 -0.72 -0.07 2 0 "
         result="color2" /></filter></defs><sodipodi:namedview
     id="namedview122"
     pagecolor="#ffffff"
     bordercolor="#666666"
     borderopacity="1.0"
     inkscape:pageshadow="2"
     inkscape:pageopacity="0.0"
     inkscape:pagecheckerboard="0"
     showgrid="false"
     inkscape:zoom="5.752"
     inkscape:cx="49.982615"
     inkscape:cy="62.5"
     inkscape:window-width="3766"
     inkscape:window-height="2096"
     inkscape:window-x="74"
     inkscape:window-y="27"
     inkscape:window-maximized="1"
     inkscape:current-layer="svg120" /><g
     display="none"
     id="g8"><g
       display="inline"
       id="g6"><path
         d="m 46.121,84.231 c -0.881,0.991 -1.383,2.242 -1.383,3.58 0,2.985 2.427,5.414 5.414,5.414 2.987,0 5.414,-2.429 5.414,-5.414 0,-1.335 -0.652,-2.61 -1.529,-3.596 L 54,72 h 6.271 L 64,68.749 V 67.471 L 60.271,64 H 56.314 L 56.298,14.635 50.141,4.064 43.986,14.668 43.994,64 H 40.03 L 36,67.471 v 1.278 L 40.03,72 H 46 Z M 54.234,64 H 51 V 9.901 L 54.124,15.2 Z M 46.011,15.201 49,9.875 V 64 H 46.074 Z M 52,76.366 c 0,0.16 -0.907,0.377 -1.965,0.377 -1.18,0 -2.035,-0.268 -2.035,-0.428 v -1.3 c 1,0.172 1.265,0.27 2.035,0.27 0.782,0 1.965,-0.092 1.965,-0.249 z m 0,3.569 c 0,0.16 -0.907,0.375 -1.965,0.375 C 48.855,80.31 48,80.044 48,79.884 v -1.33 c 1,0.172 1.265,0.27 2.035,0.27 0.782,0 1.965,-0.093 1.965,-0.249 z m -3.93,-3.591 c 0.018,0.036 0.035,0.083 0.035,0.147 H 48.07 Z m 0,3.567 c 0.018,0.036 0.035,0.083 0.035,0.146 H 48.07 Z M 48,82.121 c 1,0.172 1.265,0.269 2.035,0.269 0.782,0 1.965,-0.092 1.965,-0.249 v 1.321 c 0,0.16 -0.896,0.396 -2,0.396 -1.104,0 -2,-0.236 -2,-0.396 z m 0.07,-9.169 v -0.146 c 0.018,0.036 0.035,0.083 0.035,0.146 z m 2.08,18.194 c -1.839,0 -3.334,-1.496 -3.334,-3.334 0,-0.839 0.316,-1.622 0.877,-2.237 0.659,0.236 1.488,0.364 2.457,0.364 0.965,0 1.792,-0.127 2.45,-0.361 0.558,0.611 0.885,1.397 0.885,2.234 -10e-4,1.837 -1.497,3.334 -3.335,3.334 z M 52,72.829 c 0,0.16 -0.907,0.375 -1.965,0.375 C 48.855,73.204 48,72.938 48,72.778 V 72 h 4 z M 59.41,70 H 40.891 l -2.288,-2 2.288,-2 H 59.41 l 2.287,2 z"
         id="path2" /><path
         d="m 50.15,86.585 c -1.004,0 -1.82,0.816 -1.82,1.819 0,1.004 0.816,1.819 1.82,1.819 1.004,0 1.821,-0.815 1.821,-1.819 0,-1.003 -0.817,-1.819 -1.821,-1.819 z m 0,2.184 c -0.201,0 -0.363,-0.164 -0.363,-0.364 0,-0.2 0.162,-0.364 0.363,-0.364 0.202,0 0.364,0.164 0.364,0.364 0,0.2 -0.162,0.364 -0.364,0.364 z"
         id="path4" /></g></g><g
     display="none"
     id="g54"><g
       display="inline"
       id="g52"><path
         d="m 50.054,30.861 c -10.139,0 -18.389,8.249 -18.389,18.389 0,10.139 8.25,18.389 18.389,18.389 10.14,0 18.39,-8.25 18.39,-18.389 C 68.443,39.11 60.193,30.861 50.054,30.861 Z m 0,33.766 c -8.478,0 -15.376,-6.898 -15.376,-15.377 0,-8.479 6.898,-15.376 15.376,-15.376 8.479,0 15.376,6.897 15.376,15.376 0,8.479 -6.898,15.377 -15.376,15.377 z"
         id="path10" /><path
         d="m 39.097,73.08 c -2.383,0 -4.321,1.938 -4.321,4.32 0,2.382 1.938,4.32 4.321,4.32 2.382,0 4.32,-1.938 4.32,-4.32 0,-2.382 -1.938,-4.32 -4.32,-4.32 z m 0,5.627 c -0.722,0 -1.308,-0.586 -1.308,-1.307 0,-0.723 0.586,-1.309 1.308,-1.309 0.721,0 1.308,0.586 1.308,1.309 -10e-4,0.721 -0.588,1.307 -1.308,1.307 z"
         id="path12" /><path
         d="m 50.075,24.095 c -13.871,0 -25.156,11.285 -25.156,25.156 0,13.871 11.285,25.156 25.156,25.156 13.871,0 25.156,-11.286 25.156,-25.157 0,-13.871 -11.285,-25.155 -25.156,-25.155 z m 0,47.3 c -12.21,0 -22.144,-9.934 -22.144,-22.144 0,-12.209 9.934,-22.143 22.144,-22.143 12.21,0 22.144,9.934 22.144,22.143 0,12.21 -9.934,22.144 -22.144,22.144 z"
         id="path14" /><path
         d="m 69.903,30.821 c 2.383,0 4.321,-1.938 4.321,-4.321 0,-2.383 -1.938,-4.321 -4.321,-4.321 -2.382,0 -4.32,1.938 -4.32,4.321 0,2.383 1.938,4.321 4.32,4.321 z m 0,-5.629 c 0.722,0 1.309,0.587 1.309,1.308 0,0.721 -0.587,1.308 -1.309,1.308 -0.721,0 -1.308,-0.587 -1.308,-1.308 0,-0.721 0.588,-1.308 1.308,-1.308 z"
         id="path16" /><path
         d="m 20.386,48.065 c 2.382,0 4.32,-1.938 4.32,-4.321 0,-2.382 -1.938,-4.32 -4.32,-4.32 -2.383,0 -4.321,1.938 -4.321,4.32 -0.001,2.383 1.938,4.321 4.321,4.321 z m 0,-5.628 c 0.721,0 1.308,0.586 1.308,1.308 0,0.722 -0.587,1.308 -1.308,1.308 -0.722,0 -1.309,-0.587 -1.309,-1.308 0,-0.721 0.587,-1.308 1.309,-1.308 z"
         id="path18" /><path
         d="m 79.87,49.279 c -2.383,0 -4.321,1.938 -4.321,4.321 0,2.381 1.938,4.32 4.321,4.32 2.382,0 4.32,-1.939 4.32,-4.32 0,-2.383 -1.938,-4.321 -4.32,-4.321 z m 0,5.627 c -0.722,0 -1.308,-0.586 -1.308,-1.307 0,-0.723 0.586,-1.309 1.308,-1.309 0.722,0 1.308,0.586 1.308,1.309 0,0.721 -0.586,1.307 -1.308,1.307 z"
         id="path20" /><path
         d="M 77.101,22.203 C 69.877,14.979 60.271,11 50.054,11 39.837,11 30.231,14.979 23.007,22.203 c -7.224,7.225 -11.203,16.83 -11.203,27.046 0,10.217 3.979,19.823 11.203,27.047 C 30.231,83.521 39.837,87.5 50.054,87.5 60.271,87.5 69.877,83.521 77.1,76.297 84.325,69.072 88.303,59.467 88.303,49.25 88.304,39.033 84.325,29.428 77.101,22.203 Z m -2.13,51.963 C 68.316,80.822 59.467,84.488 50.054,84.488 40.641,84.488 31.793,80.822 25.137,74.166 18.482,67.512 14.816,58.662 14.816,49.249 c 0,-9.412 3.666,-18.261 10.321,-24.916 6.656,-6.655 15.505,-10.321 24.917,-10.321 9.413,0 18.261,3.666 24.917,10.321 6.656,6.655 10.32,15.504 10.32,24.916 0,9.413 -3.665,18.263 -10.32,24.917 z"
         id="path22" /><path
         d="m 75.549,43.905 c 0,2.382 1.938,4.321 4.321,4.321 2.382,0 4.32,-1.938 4.32,-4.321 0,-2.383 -1.938,-4.321 -4.32,-4.321 -2.383,0 -4.321,1.939 -4.321,4.321 z m 5.629,0 c 0,0.721 -0.586,1.308 -1.308,1.308 -0.722,0 -1.308,-0.587 -1.308,-1.308 0,-0.721 0.586,-1.308 1.308,-1.308 0.722,0 1.308,0.587 1.308,1.308 z"
         id="path24" /><path
         d="m 72.271,34.879 c 0,2.382 1.938,4.321 4.321,4.321 2.382,0 4.32,-1.938 4.32,-4.321 0,-2.383 -1.938,-4.321 -4.32,-4.321 -2.382,0 -4.321,1.939 -4.321,4.321 z m 4.322,-1.308 c 0.721,0 1.308,0.587 1.308,1.308 0,0.721 -0.587,1.308 -1.308,1.308 -0.722,0 -1.309,-0.587 -1.309,-1.308 0,-0.721 0.587,-1.308 1.309,-1.308 z"
         id="path26" /><path
         d="m 27.854,63.723 c 0,-2.383 -1.938,-4.32 -4.321,-4.32 -2.383,0 -4.321,1.938 -4.321,4.32 0,2.382 1.938,4.32 4.321,4.32 2.383,0 4.321,-1.938 4.321,-4.32 z m -4.32,1.306 c -0.721,0 -1.308,-0.586 -1.308,-1.307 0,-0.723 0.587,-1.309 1.308,-1.309 0.721,0 1.308,0.586 1.308,1.309 0,0.721 -0.587,1.307 -1.308,1.307 z"
         id="path28" /><path
         d="m 76.593,59.402 c -2.383,0 -4.321,1.938 -4.321,4.32 0,2.382 1.938,4.32 4.321,4.32 2.382,0 4.32,-1.938 4.32,-4.32 0,-2.382 -1.938,-4.32 -4.32,-4.32 z m 0,5.627 c -0.722,0 -1.309,-0.586 -1.309,-1.307 0,-0.723 0.587,-1.309 1.309,-1.309 0.721,0 1.308,0.586 1.308,1.309 -10e-4,0.721 -0.588,1.307 -1.308,1.307 z"
         id="path30" /><path
         d="m 30.223,30.821 c 2.382,0 4.321,-1.938 4.321,-4.321 0,-2.383 -1.938,-4.321 -4.321,-4.321 -2.383,0 -4.321,1.938 -4.321,4.321 0,2.383 1.938,4.321 4.321,4.321 z m 0,-5.629 c 0.721,0 1.308,0.587 1.308,1.308 0,0.721 -0.587,1.308 -1.308,1.308 -0.721,0 -1.308,-0.587 -1.308,-1.308 0,-0.721 0.586,-1.308 1.308,-1.308 z"
         id="path32" /><path
         d="m 61.029,73.08 c -2.382,0 -4.32,1.938 -4.32,4.32 0,2.382 1.938,4.32 4.32,4.32 2.383,0 4.321,-1.938 4.321,-4.32 0,-2.382 -1.938,-4.32 -4.321,-4.32 z m 0,5.627 c -0.721,0 -1.308,-0.586 -1.308,-1.307 0,-0.723 0.587,-1.309 1.308,-1.309 0.722,0 1.309,0.586 1.309,1.309 0,0.721 -0.587,1.307 -1.309,1.307 z"
         id="path34" /><path
         d="m 23.534,39.2 c 2.382,0 4.321,-1.938 4.321,-4.321 0,-2.383 -1.938,-4.321 -4.321,-4.321 -2.383,0 -4.321,1.938 -4.321,4.321 0,2.383 1.938,4.321 4.321,4.321 z m 0,-5.629 c 0.721,0 1.308,0.587 1.308,1.308 0,0.721 -0.587,1.308 -1.308,1.308 -0.721,0 -1.308,-0.587 -1.308,-1.308 0,-0.721 0.586,-1.308 1.308,-1.308 z"
         id="path36" /><path
         d="m 61.029,25.522 c 2.383,0 4.321,-1.938 4.321,-4.321 0,-2.383 -1.938,-4.321 -4.321,-4.321 -2.382,0 -4.32,1.938 -4.32,4.321 0,2.383 1.938,4.321 4.32,4.321 z m 0,-5.629 c 0.722,0 1.309,0.587 1.309,1.308 0,0.721 -0.587,1.308 -1.309,1.308 -0.721,0 -1.308,-0.587 -1.308,-1.308 0,-0.721 0.588,-1.308 1.308,-1.308 z"
         id="path38" /><path
         d="m 50.027,75.162 c -2.383,0 -4.321,1.938 -4.321,4.32 0,2.382 1.938,4.32 4.321,4.32 2.382,0 4.32,-1.938 4.32,-4.32 0,-2.382 -1.938,-4.32 -4.32,-4.32 z m 0,5.629 c -0.722,0 -1.308,-0.588 -1.308,-1.309 0,-0.721 0.586,-1.309 1.308,-1.309 0.721,0 1.308,0.588 1.308,1.309 0,0.721 -0.587,1.309 -1.308,1.309 z"
         id="path40" /><path
         d="m 30.223,67.779 c -2.382,0 -4.321,1.939 -4.321,4.32 0,2.383 1.938,4.322 4.321,4.322 2.383,0 4.321,-1.939 4.321,-4.322 -10e-4,-2.38 -1.939,-4.32 -4.321,-4.32 z m 0,5.629 c -0.721,0 -1.308,-0.586 -1.308,-1.309 0,-0.721 0.587,-1.307 1.308,-1.307 0.721,0 1.308,0.586 1.308,1.307 0,0.723 -0.587,1.309 -1.308,1.309 z"
         id="path42" /><path
         d="m 50.027,23.439 c 2.382,0 4.32,-1.938 4.32,-4.321 0,-2.382 -1.938,-4.32 -4.32,-4.32 -2.383,0 -4.321,1.938 -4.321,4.32 10e-4,2.383 1.939,4.321 4.321,4.321 z m 0,-5.628 c 0.721,0 1.308,0.586 1.308,1.308 0,0.722 -0.587,1.308 -1.308,1.308 -0.722,0 -1.308,-0.587 -1.308,-1.308 0,-0.721 0.587,-1.308 1.308,-1.308 z"
         id="path44" /><path
         d="m 24.577,53.6 c 0,-2.383 -1.938,-4.321 -4.321,-4.321 -2.383,0 -4.321,1.938 -4.321,4.321 0,2.381 1.938,4.32 4.321,4.32 2.383,0 4.321,-1.94 4.321,-4.32 z m -5.629,0 c 0,-0.723 0.587,-1.309 1.308,-1.309 0.721,0 1.308,0.586 1.308,1.309 0,0.721 -0.587,1.307 -1.308,1.307 -0.721,0 -1.308,-0.587 -1.308,-1.307 z"
         id="path46" /><path
         d="m 39.097,25.522 c 2.382,0 4.32,-1.938 4.32,-4.321 0,-2.383 -1.938,-4.321 -4.32,-4.321 -2.383,0 -4.321,1.938 -4.321,4.321 0,2.383 1.938,4.321 4.321,4.321 z m 0,-5.629 c 0.721,0 1.308,0.587 1.308,1.308 0,0.721 -0.587,1.308 -1.308,1.308 -0.722,0 -1.308,-0.587 -1.308,-1.308 0,-0.721 0.586,-1.308 1.308,-1.308 z"
         id="path48" /><path
         d="m 69.903,67.779 c -2.382,0 -4.32,1.939 -4.32,4.32 0,2.383 1.938,4.322 4.32,4.322 2.383,0 4.321,-1.939 4.321,-4.322 10e-4,-2.38 -1.938,-4.32 -4.321,-4.32 z m 0,5.629 c -0.721,0 -1.308,-0.586 -1.308,-1.309 0,-0.721 0.587,-1.307 1.308,-1.307 0.722,0 1.309,0.586 1.309,1.307 0,0.723 -0.587,1.309 -1.309,1.309 z"
         id="path50" /></g></g><g
     display="none"
     id="g58"><path
       display="inline"
       d="m 89,56.521 v -6.89 C 89,38.344 85.787,28.886 79.59,22.298 73.257,15.567 64.102,12 52.991,12 H 47.815 C 36.705,12 27.646,15.567 21.314,22.299 15.115,28.887 12,38.345 12,49.632 v 7.329 C 10,59.774 8.526,63.863 8.526,68.351 8.526,78.143 14.063,85 22.545,85 h 1.263 c 1.099,0 2.201,0.938 3.639,0.938 3.741,0 6.554,-3.322 6.554,-7.062 v -22.52 c 0,-3.741 -2.812,-6.635 -6.554,-6.635 -1.939,0 -3.46,0.28 -4.697,2.28 H 22.546 C 21.895,52 21,51.744 21,51.82 v -4.876 c 0,-7.771 2.798,-14.371 8.424,-19.085 5.365,-4.495 12.79,-6.97 21.067,-6.97 8.277,0 15.667,2.475 21.032,6.97 C 77.15,32.573 80,39.173 80,46.944 v 4.833 C 80,51.727 79.134,52 78.604,52 H 78.401 C 77.163,50 75.568,49.72 73.628,49.72 69.887,49.72 67,52.614 67,56.355 v 22.52 c 0,3.74 2.887,7.062 6.628,7.062 1.438,0 2.616,-0.938 3.715,-0.938 h 1.262 c 8.481,0 14.117,-6.857 14.117,-16.649 C 92.722,63.625 91,59.371 89,56.521 Z M 24,56.355 c 0,-1.796 1.704,-3.257 3.5,-3.257 1.796,0 3.5,1.462 3.5,3.257 v 22.52 c 0,1.795 -1.704,3.256 -3.5,3.256 -1.796,0 -3.5,-1.461 -3.5,-3.256 z M 21.238,80.84 c -6.827,-0.753 -9.319,-7.199 -9.319,-12.768 0,-5.512 2.455,-11.88 9.119,-12.744 C 20.987,55.664 21,56.007 21,56.355 v 22.52 c 0,0.684 0.049,1.343 0.238,1.965 z M 73.98,25.155 C 67.982,20.129 59.585,17.362 50.481,17.362 41.377,17.362 32.96,20.13 26.961,25.155 20.509,30.561 17,38.096 17,46.944 v 5.786 c -1,0.273 -1,0.601 -2,0.978 V 49.632 C 15,28.29 27.396,16 47.815,16 h 5.176 C 73.41,16 86,28.29 86,49.632 v 3.865 C 85,53.145 84,52.843 84,52.592 V 46.945 C 84,38.096 80.434,30.561 73.98,25.155 Z M 77,78.875 c 0,1.795 -1.705,3.256 -3.5,3.256 -1.797,0 -3.5,-1.461 -3.5,-3.256 v -22.52 c 0,-1.796 1.703,-3.257 3.5,-3.257 1.795,0 3.5,1.461 3.5,3.257 z m 2.838,1.965 C 80.025,80.218 80,79.559 80,78.875 v -22.52 c 0,-0.349 0.301,-0.691 0.25,-1.027 2.281,0.296 3.75,1.234 5.75,2.564 V 58 h -0.232 c 2.489,3 3.426,6.494 3.426,10.041 -0.001,5.568 -2.53,12.046 -9.356,12.799 z"
       id="path56" /></g><g
     display="none"
     id="g62"><path
       display="inline"
       d="m 79.284,11.575 -26.694,0.3 c -1.851,0.021 -3.636,0.565 -5.169,1.534 l -12.344,3.357 c -0.046,0.013 -0.092,0.027 -0.137,0.043 l -4.215,1.464 -0.002,-0.004 -0.022,0.012 -0.485,0.168 c -1.197,0.416 -2.288,1.053 -3.228,1.867 l -3.631,1.99 -2.49,1.387 -0.04,-0.054 -0.396,0.297 -1.217,0.677 c -1.076,0.6 -2.02,1.391 -2.794,2.325 l -6.303,4.717 c -0.018,0.013 -0.034,0.026 -0.051,0.04 -2.062,1.648 -3.357,4 -3.649,6.621 -0.288,2.594 0.439,5.146 2.051,7.194 l 25.596,37.792 c 0.029,0.043 0.062,0.086 0.095,0.128 2.007,2.511 4.998,3.78 7.986,3.702 2.064,-0.055 4.127,-0.752 5.864,-2.131 l 7.094,-5.229 8.012,-1.512 4.088,-0.767 -0.021,0.32 12.929,0.358 c 0.052,-0.002 0.102,-0.003 0.154,-0.004 5.361,-0.141 9.66,-5.125 9.6,-10.491 L 89.28,21.594 C 89.219,16.147 84.731,11.515 79.284,11.575 Z M 28.346,24.97 c 0.273,-0.499 0.617,-0.949 1.015,-1.341 l 2.988,-1.638 1.491,-0.518 c -0.788,1.802 -1.033,3.817 -0.666,5.776 l 7.825,45.08 -13.03,-42.562 c -0.007,-0.024 -0.015,-0.047 -0.023,-0.072 -0.541,-1.556 -0.395,-3.278 0.4,-4.725 z M 42.822,21.866 43.33,62.109 37.156,26.544 c -0.002,-0.01 -0.004,-0.02 -0.006,-0.03 -0.302,-1.603 0.086,-3.272 1.065,-4.58 0.875,-1.169 2.149,-1.963 3.586,-2.234 l 1.286,-0.242 c -0.185,0.78 -0.275,1.586 -0.265,2.408 z m -19.188,4.917 c -0.144,1.405 0.011,2.84 0.479,4.202 L 37.195,73.718 18.978,36.185 c -0.017,-0.034 -0.035,-0.068 -0.053,-0.101 -0.815,-1.464 -0.961,-3.212 -0.397,-4.795 0.184,-0.517 0.438,-1 0.752,-1.438 l 3.356,-2.512 z M 11.679,43.051 c -0.974,-1.217 -1.414,-2.739 -1.241,-4.287 0.17,-1.538 0.928,-2.918 2.131,-3.891 l 1.59,-1.189 c 0.065,1.497 0.469,2.975 1.204,4.314 L 33.314,74.983 11.774,43.18 c -0.031,-0.044 -0.062,-0.087 -0.095,-0.129 z m 74.128,24.173 c 0.035,3.168 -2.51,5.813 -5.675,5.896 l -26.788,0.304 c -3.217,0.035 -5.863,-2.553 -5.899,-5.771 L 46.867,21.819 c -0.015,-1.289 0.385,-2.516 1.154,-3.547 0.103,-0.141 0.209,-0.271 0.312,-0.387 1.085,-1.223 2.58,-1.92 4.21,-1.963 L 79.33,15.62 c 3.217,-0.036 5.864,2.552 5.899,5.771 z"
       id="path60" /></g><g
     display="none"
     id="g98"><g
       display="inline"
       id="g96"><path
         d="M 75.288,49.922 C 75.288,45.479 70,41.561 63,39.458 V 15.964 C 63,11.112 58.521,8 53.669,8 H 51.574 47.098 45.003 C 40.153,8 36,11.112 36,15.964 v 23.941 l 0.064,-0.125 c -3.334,1.015 -6.079,2.408 -8.033,4.028 -2.188,1.815 -3.32,3.929 -3.32,6.113 0,0.444 0.061,0.883 0.154,1.316 l -0.07,0.023 9.015,27.773 c 0.111,2.227 1.909,4.231 5.085,5.661 2.956,1.331 6.856,2.064 10.984,2.064 4.127,0 8.028,-0.733 10.983,-2.064 3.177,-1.43 4.972,-3.434 5.085,-5.661 L 74.96,51.26 75.015,51.236 c 0.094,-0.431 0.273,-0.87 0.273,-1.314 z M 61,15.964 v 34.961 c 0,0.119 -1.244,0.734 -3.81,1.255 -0.323,0.065 -0.894,0.126 -1.246,0.181 C 56.126,51.934 56,51.471 56,50.979 V 15.964 C 56,13.56 54.941,12 53.334,9 h 0.335 C 57.102,9 61,12.531 61,15.964 Z M 49.445,53 C 46.948,53 45,51.876 45,50.979 V 15.964 c 0,-2.604 2.1,-4.892 4.5,-5.812 2.401,0.92 4.5,3.207 4.5,5.812 V 50.98 C 54,51.876 51.796,53 49.302,53 Z M 38,15.964 C 38,12.531 41.572,9 45.004,9 h 0.337 C 43.73,12 43,13.56 43,15.964 V 50.98 c 0,0.491 -0.015,0.954 0.167,1.381 C 42.813,52.306 42.026,52.246 41.703,52.18 39.138,51.659 38,51.044 38,50.925 Z m -2,26.507 v 8.509 c 0,2.491 3.637,3.127 4.799,3.398 C 43.04,54.901 46.152,55 49.351,55 h -0.007 c 0,0 -0.004,0 -0.003,0 h -0.002 c 3.197,0 6.46,-0.099 8.702,-0.622 C 59.202,54.106 63,53.471 63,50.979 v -8.845 c 6,1.776 9.713,4.768 9.713,7.787 0,2.299 -2.402,4.642 -6.359,6.424 -4.346,1.956 -10.215,3.033 -16.407,3.033 -6.194,0 -12.03,-1.077 -16.374,-3.033 -3.958,-1.782 -6.348,-4.125 -6.348,-6.424 0,-2.813 3.775,-5.634 8.775,-7.45 z M 64,78.61 v 0.205 c 0,1.206 -1.648,2.525 -3.884,3.533 -2.629,1.186 -6.311,1.839 -10.081,1.839 -3.77,0 -7.565,-0.653 -10.195,-1.839 C 37.604,81.341 36,80.021 36,78.815 V 78.61 L 29.175,56.987 c 0.913,0.611 2.05,1.183 3.214,1.706 4.668,2.102 10.893,3.26 17.443,3.26 6.551,0 12.752,-1.158 17.421,-3.26 1.165,-0.525 2.528,-1.095 3.442,-1.707 z"
         id="path64" /><circle
         cx="49.02"
         cy="17.007"
         r="0.96499997"
         id="circle66" /><circle
         cx="49.02"
         cy="24.538"
         r="0.96600002"
         id="circle68" /><circle
         cx="49.02"
         cy="32.312"
         r="0.96600002"
         id="circle70" /><circle
         cx="49.02"
         cy="39.743999"
         r="0.96499997"
         id="circle72" /><circle
         cx="49.02"
         cy="47.518002"
         r="0.96499997"
         id="circle74" /><circle
         cx="40.716"
         cy="17.007"
         r="0.96499997"
         id="circle76" /><circle
         cx="40.716"
         cy="24.538"
         r="0.96600002"
         id="circle78" /><circle
         cx="40.716"
         cy="32.312"
         r="0.96600002"
         id="circle80" /><circle
         cx="40.716"
         cy="39.743999"
         r="0.96499997"
         id="circle82" /><circle
         cx="40.716"
         cy="47.518002"
         r="0.96499997"
         id="circle84" /><circle
         cx="57.960999"
         cy="17.007"
         r="0.96499997"
         id="circle86" /><circle
         cx="57.960999"
         cy="24.538"
         r="0.96600002"
         id="circle88" /><circle
         cx="57.960999"
         cy="32.312"
         r="0.96600002"
         id="circle90" /><circle
         cx="57.960999"
         cy="39.743999"
         r="0.96499997"
         id="circle92" /><circle
         cx="57.960999"
         cy="47.518002"
         r="0.96499997"
         id="circle94" /></g></g><g
     display="none"
     id="g104"><g
       display="inline"
       id="g102"><path
         d="m 72.782,87 c -3.867,0 -7.013,-3.146 -7.013,-7.014 V 57.471 H 54.44 v 22.516 c 0,3.867 -3.146,7.014 -7.013,7.014 -3.867,0 -7.013,-3.146 -7.013,-7.014 V 57.471 H 23.013 C 19.146,57.471 16,54.325 16,50.458 V 19.972 c 0,-3.867 3.146,-7.013 7.013,-7.013 3.867,0 7.013,3.146 7.013,7.013 V 43.446 H 40.414 V 19.948 c 0,-3.867 3.146,-7.013 7.013,-7.013 3.868,0 7.013,3.146 7.013,7.013 V 43.445 H 65.77 V 19.948 c 0,-3.867 3.146,-7.013 7.013,-7.013 3.739,0 6.816,2.924 7.004,6.656 0.007,0.128 0.011,0.255 0.011,0.38 v 30.486 c 0,0.03 -0.001,0.059 -0.002,0.088 v 29.44 C 79.795,83.854 76.649,87 72.782,87 Z M 51.323,54.354 h 17.562 v 25.632 c 0,2.148 1.748,3.896 3.896,3.896 2.148,0 3.896,-1.748 3.896,-3.896 l 10e-4,-29.484 0.001,-0.058 V 19.972 c 0,-0.072 -0.002,-0.145 -0.006,-0.217 -0.104,-2.079 -1.814,-3.703 -3.892,-3.703 -2.148,0 -3.896,1.748 -3.896,3.896 V 46.562 H 51.323 V 19.948 c 0,-2.148 -1.747,-3.896 -3.896,-3.896 -2.148,0 -3.896,1.748 -3.896,3.896 V 46.562 H 26.909 v -26.59 c 0,-2.148 -1.748,-3.896 -3.896,-3.896 -2.148,0 -3.896,1.748 -3.896,3.896 v 30.486 c 0,2.148 1.748,3.896 3.896,3.896 h 20.518 v 25.632 c 0,2.148 1.748,3.896 3.896,3.896 2.149,0 3.896,-1.748 3.896,-3.896 z"
         id="path100" /></g></g><g
     id="g114"
     style="filter:url(#filter488);fill-opacity:1;fill:#ffffff"><g
       id="g108"
       style="fill-opacity:1;fill:#ffffff"><path
         d="M 56.289,87 C 55.928,87 55.57,86.854 55.31,86.58 L 40.186,70.676 c -0.239,-0.25 -0.372,-0.584 -0.372,-0.93 v -6.348 c 0,-4.065 -4.441,-5.422 -5.288,-5.643 H 14.351 c -0.553,0 -1.049,-0.337 -1.255,-0.85 -0.205,-0.514 -0.077,-1.1 0.324,-1.48 L 29.324,40.3 c 0.251,-0.239 0.584,-0.372 0.931,-0.372 h 6.347 c 4.066,0 5.422,-4.442 5.644,-5.288 V 14.466 c 0,-0.552 0.336,-1.049 0.85,-1.254 0.513,-0.206 1.099,-0.077 1.48,0.323 l 15.125,15.903 c 0.24,0.251 0.371,0.584 0.371,0.931 v 6.347 c 0,4.051 4.477,5.428 5.291,5.644 h 20.174 c 0.553,0 1.049,0.337 1.254,0.85 0.205,0.513 0.076,1.099 -0.324,1.48 L 70.562,59.814 c -0.252,0.238 -0.584,0.371 -0.932,0.371 h -6.348 c -4.064,0 -5.422,4.441 -5.643,5.289 V 85.65 c 0,0.553 -0.336,1.049 -0.85,1.254 C 56.627,86.969 56.459,87 56.289,87 Z M 42.516,69.207 54.938,82.27 V 65.312 c 0,-0.098 0.012,-0.195 0.033,-0.291 0.016,-0.076 0.422,-1.881 1.596,-3.686 1.639,-2.52 3.961,-3.852 6.717,-3.852 h 5.809 L 82.155,45.06 H 65.197 c -0.098,0 -0.195,-0.011 -0.291,-0.032 -0.074,-0.017 -1.879,-0.422 -3.684,-1.595 -2.521,-1.639 -3.854,-3.962 -3.854,-6.719 V 30.907 L 44.946,17.846 v 16.958 c 0,0.098 -0.011,0.195 -0.032,0.29 -0.016,0.076 -0.422,1.88 -1.595,3.684 -1.638,2.521 -3.961,3.853 -6.718,3.853 H 30.794 L 17.731,55.054 h 16.957 c 0.098,0 0.195,0.011 0.291,0.032 0.076,0.016 1.879,0.422 3.684,1.596 2.52,1.637 3.853,3.961 3.853,6.717 z"
         id="path106"
         style="fill-opacity:1;fill:#ffffff" /></g><g
       id="g112"
       style="fill-opacity:1;fill:#ffffff"><path
         d="m 49.943,56.137 c -3.352,0 -6.079,-2.727 -6.079,-6.079 0,-3.352 2.727,-6.079 6.079,-6.079 3.352,0 6.078,2.727 6.078,6.079 0,3.352 -2.726,6.079 -6.078,6.079 z m 0,-9.456 c -1.862,0 -3.377,1.516 -3.377,3.377 0,1.861 1.515,3.377 3.377,3.377 1.861,0 3.377,-1.516 3.377,-3.377 0,-1.861 -1.515,-3.377 -3.377,-3.377 z"
         id="path110"
         style="fill-opacity:1;fill:#ffffff" /></g></g></svg>
