<?xml version="1.0" encoding="UTF-8" standalone="no"?>
<svg
   version="1.1"
   x="0px"
   y="0px"
   viewBox="0 0 50 50"
   enable-background="new 0 0 100 100"
   xml:space="preserve"
   id="svg18"
   sodipodi:docname="shuriken-favicon.svg"
   width="50"
   height="50"
   inkscape:version="1.1.2 (0a00cf5339, 2022-02-04)"
   xmlns:inkscape="http://www.inkscape.org/namespaces/inkscape"
   xmlns:sodipodi="http://sodipodi.sourceforge.net/DTD/sodipodi-0.dtd"
   xmlns="http://www.w3.org/2000/svg"
   xmlns:svg="http://www.w3.org/2000/svg"><defs
     id="defs22" /><sodipodi:namedview
     id="namedview20"
     pagecolor="#ffffff"
     bordercolor="#666666"
     borderopacity="1.0"
     inkscape:pageshadow="2"
     inkscape:pageopacity="0.0"
     inkscape:pagecheckerboard="0"
     showgrid="false"
     height="100px"
     inkscape:zoom="5.752"
     inkscape:cx="39.377608"
     inkscape:cy="62.5"
     inkscape:window-width="3766"
     inkscape:window-height="2096"
     inkscape:window-x="74"
     inkscape:window-y="27"
     inkscape:window-maximized="1"
     inkscape:current-layer="svg18" /><path
     fill-rule="evenodd"
     clip-rule="evenodd"
     d="m 20.097679,14.576889 c -1.692382,3.297851 4.368164,-0.699219 4.990235,2.108398 0.625976,2.808594 -1.169922,4.990234 -1.169922,4.990234 0,0 4.447265,-0.62207 5.694336,-3.277343 C 31.930687,13.47142 25.9385,4.0309905 20.876,1.3991545 c 2.802734,6.868164 0.914062,9.8857415 -0.778321,13.1777345 z"
     id="path2" /><path
     fill-rule="evenodd"
     clip-rule="evenodd"
     d="m 13.43557,24.405014 c 2.004883,3.111328 1.575195,-4.13379 4.319336,-3.267579 2.739258,0.860352 3.737305,3.506836 3.737305,3.506836 0,0 1.682617,-4.163086 0.0098,-6.569336 -3.111328,-4.470703 -14.2841792,-4.001953 -19.0927732,-0.93457 7.347656,1.007813 9.0156252,4.15332 11.0263672,7.264649 z"
     id="path4" /><path
     fill-rule="evenodd"
     clip-rule="evenodd"
     d="m 18.610375,35.088607 c 3.698242,-0.18164 -2.792969,-3.429687 -0.669922,-5.375976 2.118164,-1.942383 4.90625,-1.482422 4.90625,-1.482422 0,0 -2.763672,-3.53711 -5.683594,-3.291992 C 11.737328,25.393295 6.5527568,35.308334 6.8066638,41.00267 11.351586,35.147201 14.912133,35.269271 18.610375,35.088607 Z"
     id="path6" /><path
     fill-rule="evenodd"
     clip-rule="evenodd"
     d="m 30.454125,35.949935 c 1.692382,-3.297851 -4.369141,0.699219 -4.995118,-2.109375 -0.621093,-2.807617 1.174805,-4.989257 1.174805,-4.989257 0,0 -4.447265,0.621093 -5.694336,3.27246 -2.319336,4.931641 3.673828,14.372071 8.731446,17.003907 -2.797852,-6.868164 -0.910157,-9.885742 0.783203,-13.177735 z"
     id="path8" /><path
     fill-rule="evenodd"
     clip-rule="evenodd"
     d="m 37.116234,26.12181 c -2.005859,-3.111328 -1.575195,4.133789 -4.319336,3.267578 -2.744141,-0.860351 -3.737305,-3.506835 -3.737305,-3.506835 0,0 -1.682617,4.163085 -0.0098,6.569335 3.106445,4.470704 14.284179,4.001954 19.092773,0.934571 -7.347656,-1.007813 -9.020508,-4.15332 -11.026367,-7.264649 z"
     id="path10" /><path
     fill-rule="evenodd"
     clip-rule="evenodd"
     d="m 31.940453,15.438217 c -3.698242,0.180664 2.789062,3.428711 0.670898,5.375976 -2.118164,1.942383 -4.907226,1.482422 -4.907226,1.482422 0,0 2.764648,3.53711 5.68457,3.291992 C 38.8135,25.133529 43.994164,15.217514 43.74514,9.5241545 39.195336,15.379623 35.638695,15.257553 31.940453,15.438217 Z"
     id="path12" /></svg>
