<?xml version="1.0" standalone="no"?>
<!DOCTYPE svg PUBLIC "-//W3C//DTD SVG 1.1//EN" "http://www.w3.org/Graphics/SVG/1.1/DTD/svg11.dtd" >
<svg xmlns="http://www.w3.org/2000/svg">
<defs>
<font id="GazelleFLF" horiz-adv-x="470" >
<font-face  font-family="GazelleFLF" font-weight="500" font-stretch="normal" units-per-em="1000" panose-1="2 0 6 5 8 0 0 2 0 3" ascent="800" descent="-200" x-height="393" cap-height="682" bbox="-166.087 -260.074 1244.46 869" underline-thickness="20" underline-position="-123" unicode-range="U+0020-U+2122"/>
<missing-glyph horiz-adv-x="300" />
<glyph glyph-name=".notdef" horiz-adv-x="300" />
<glyph glyph-name=".null" horiz-adv-x="0" />
<glyph glyph-name="nonmarkingreturn" horiz-adv-x="333" />
<glyph glyph-name="space" unicode=" "  horiz-adv-x="300" />
<glyph glyph-bame="tab" unicode="&#x09;" horiz-adv-x="300" />
<glyph glyph-bame="uni00A0" unicode="&#xa0;" horiz-adv-x="300" />
<glyph glyph-name="exclam" unicode="!" horiz-adv-x="285" d="M66 130q0 -2 9.5 6t20.5 19.5t20.5 22.5t9.5 16q0 59 8 121t20 124.5t26 124l26 118.5q1 3 -16.5 -0.5t-38.5 -9.5t-39 -12t-18 -8q4 -71 0 -141t-10 -136.5l-12 -128t-6 -116.5zM28 37q-3 -1 1.5 -6t12 -12t15.5 -16t13 -18q1 -3 10 3.5t18.5 15.5t17.5 18t7 11 q-1 4 -8 13t-15.5 17.5t-16.5 14.5t-10 3q-5 -6 -16 -21t-29 -23z" />
<glyph glyph-name="quotedbl" unicode="&#x22;" horiz-adv-x="256" d="M104 620q3 6 -8 8.5t-25 2t-25.5 -3.5t-9.5 -7q6 -15 10.5 -39.5t8 -48.5t6.5 -41t6 -17t6.5 18l8 42t10 48.5t12.5 37.5zM190 620q3 6 -8 8.5t-25 2t-25.5 -3.5t-9.5 -7q6 -15 10.5 -39.5t8 -48.5t6.5 -41t6 -17t6.5 18l8 42t10 48.5t12.5 37.5z" />
<glyph glyph-name="numbersign" unicode="#" horiz-adv-x="412" d="M56 279l60 26l25 47h63l-35 -70l67 38l17 32h56l50 32h-91l28 54h50l47 32h-82l33 62l-62 -25l-18 -37h-65l33 62l-61 -25l-18 -37h-59l-48 -32h90l-27 -54h-57l-48 -32h89zM156 383l27 55h65l-28 -55h-64z" />
<glyph glyph-name="dollar" unicode="$" horiz-adv-x="566" d="M461 273q-12 26 -34 52.5t-44 47.5t-38.5 34l-16.5 13l25 151q1 0 6 -2l12.5 -5t10.5 -4q15 -8 19 -16t4 -15t-1.5 -11.5t1.5 -5.5t15.5 15t27 36.5t25.5 37.5t11 18q-10 15 -29.5 22t-39.5 8.5t-35 0.5l-15 -1l15 91l-88 -54l-8 -58q-1 -1 -17 -8t-40.5 -21t-48 -31 t-39.5 -36t-15 -37q1 -13 14 -31t30.5 -36.5t36.5 -34.5l30.5 -25.5t12.5 -10.5l-39 -307l-14 5.5t-37 27.5q-33 31 -39.5 52.5t-1.5 36t14.5 22.5t6.5 11q-2 2 -12.5 -2.5t-25.5 -12.5t-32.5 -18.5t-31.5 -20.5t-23 -18.5t-8 -12.5q11 -34 35 -57.5t50.5 -37.5t52.5 -21.5 t41.5 -9.5t16.5 -2l-18 -135l66 75l11 65l19.5 10t47.5 28t58.5 43.5t53 56t31 66t-8.5 72.5zM267 43l43 264l12 -16t25 -41t21.5 -54t1.5 -56q-9 -35 -26 -54t-34.5 -29t-30 -12zM235 539q2 15 9 23.5t14.5 12.5t13.5 5l6 1l-14 -109q-1 1 -8.5 9.5t-15 24.5t-5.5 33z" />
<glyph glyph-name="percent" unicode="%" horiz-adv-x="586" d="M6 12q-4 -6 1 -8.5t14 -2.5t19.5 1t17.5 2q12 2 22.5 6t17.5 14l428 614q4 7 -1 9t-14.5 1t-21 -3t-19.5 -3q-17 -2 -31 -7t-23 -19zM87 407q7 0 26 5t42.5 14.5t49.5 23t47 30.5t35 37.5t14 43.5q0 13 -4.5 30.5t-15 33.5t-28.5 26.5t-45 10.5q-8 0 -26.5 -4.5 t-42 -13.5t-48 -21.5t-45 -29.5t-33.5 -37t-13 -44q0 -8 3.5 -25.5t13.5 -35t27 -31t43 -13.5zM347 11q7 0 26 5t42.5 14.5t49.5 23t47 30.5t35 37.5t14 43.5q0 13 -4.5 30.5t-15 33.5t-28.5 26.5t-45 10.5q-8 0 -26.5 -4.5t-42 -13.5t-48 -21.5t-45 -29.5t-33.5 -37 t-13 -44q0 -8 3.5 -25.5t13.5 -35t27 -31t43 -13.5zM195 513q0 -23 -6.5 -34t-12.5 -11q-9 0 -21.5 8t-23 22.5t-18 33.5t-7.5 41q0 19 4 27t15 8t23.5 -8t23 -21t17 -30.5t6.5 -35.5zM455 117q0 -23 -6.5 -34t-12.5 -11q-9 0 -21.5 8t-23 22.5t-18 33.5t-7.5 41q0 19 4 27 t15 8t23.5 -8t23 -21t17 -30.5t6.5 -35.5z" />
<glyph glyph-name="ampersand" unicode="&#x26;" horiz-adv-x="620" d="M0 135q0 -42 24 -70t58 -45t71.5 -24t64.5 -7q52 0 100 13t85 50q26 26 48 69.5t37.5 91t24.5 92t9 71.5l15 7l32 15l30 14.5t9 6.5q-15 -1 -42.5 -4.5t-60.5 -5.5t-67.5 0t-62.5 13q-2 0 -8.5 -11.5t-13.5 -28.5t-13 -36t-6 -33q0 -1 12 3.5l26 10l26 10l12 4.5 q17 -21 26 -50.5t9 -63.5q0 -50 -13 -89.5t-36 -67t-54.5 -42.5t-68.5 -15q-30 0 -60.5 12t-55 33t-40 50.5t-15.5 64.5q0 38 21 74t54 68.5t74 61.5t80 52h-10q-9 0 -23 1.5t-30.5 6.5t-31 15t-24 26t-9.5 40q0 58 17.5 83.5t52.5 25.5q19 0 30.5 -13t17 -27t7.5 -23.5 t2 -1.5q2 21 10 42.5t17 39.5t16.5 29l7.5 11q-48 0 -97 -20.5t-88 -51t-63.5 -67t-24.5 -67.5q0 -28 20.5 -42.5t49 -19t58.5 -3.5t48.5 4t20.5 3q-38 -20 -90 -44.5t-100 -58.5t-81.5 -78.5t-33.5 -103.5z" />
<glyph glyph-name="quotesingle" unicode="'" horiz-adv-x="163" d="M104 620q3 6 -8 8.5t-25 2t-25.5 -3.5t-9.5 -7q6 -15 10.5 -39.5t8 -48.5t6.5 -41t6 -17t6.5 18l8 42t10 48.5t12.5 37.5z" />
<glyph glyph-name="parenleft" unicode="(" horiz-adv-x="300" d="M176 -68q3 -3 17.5 5.5t30 20t26.5 22.5t8 14q-68 64 -105 128.5t-51 128.5t-8 125.5t24 119.5q8 25 24 51.5t35 52t38.5 48l34 38.5l22 24t2.5 6q-82 -45 -137 -106t-85.5 -130.5t-37 -144.5t9.5 -147.5t54.5 -138t97.5 -117.5z" />
<glyph glyph-name="parenright" unicode=")" horiz-adv-x="300" d="M103 726q-3 3 -17.5 -5.5t-30 -20t-26.5 -22.5t-8 -14q67 -64 104.5 -128.5t51.5 -128.5t8 -125.5t-24 -119.5q-8 -25 -24 -51.5t-35 -52t-38.5 -48l-34 -38.5l-22 -24.5t-2.5 -5.5q81 44 136.5 105.5t86 131t37 144.5t-9.5 147.5t-54.5 138t-97.5 117.5z" />
<glyph glyph-name="asterisk" unicode="*" horiz-adv-x="308" d="M279 456q-17 0 -37 6t-37 12.5t-28.5 12.5t-10.5 6q18 10 31 15t25 7.5t24 2.5h29q7 0 5 6.5t-7.5 16.5t-11.5 23t-6 27q0 7 -10 -1.5t-25 -23.5l-33.5 -32t-34.5 -26l6.5 21t13 45.5t10 44.5t-2.5 17q-12 -5 -26 -5.5t-26 0.5t-19 0t-4 -7l13.5 -26t11.5 -24.5t7 -27.5 t1 -35q0 -1 -10 6t-23.5 18.5t-27.5 25.5t-22 27q-4 6 -8 0.5t-9.5 -16.5t-13.5 -23.5t-18 -19.5q-5 -4 13.5 -10t43 -12t45.5 -10.5l21 -4.5q-17 -8 -40.5 -13l-43.5 -9t-32 -7.5t-7 -7.5q10 -8 17.5 -20t13 -22.5t10 -16t8.5 0.5q8 13 15.5 24t17 20t22 17.5t30.5 16.5 l-6 -19.5l-12.5 -42.5t-9.5 -41.5t3 -15.5q12 5 26.5 5.5t26.5 -0.5t18.5 0t3.5 8l-13 25t-10.5 22.5t-7 25.5t-0.5 34q0 1 7 -7l17.5 -19.5l22.5 -24.5l22.5 -23.5t17.5 -16t7 -0.5q1 13 8 26t13.5 23t9.5 16t-4 6z" />
<glyph glyph-name="plus" unicode="+" horiz-adv-x="400" d="M8 278h140v-139q0 -9 4.5 -9.5t11 3t13.5 9t12 8.5l23.5 11.5t11.5 19.5v97h77q14 0 20.5 10.5t15.5 21.5q3 4 10.5 9t13.5 9.5t7.5 8t-8.5 3.5h-136v135q0 9 -4 9.5t-9.5 -3t-12 -8.5t-11.5 -7q-12 -5 -25.5 -9.5t-13.5 -18.5v-98h-77q-14 0 -22 -10t-17 -20 q-4 -4 -10.5 -9.5t-11.5 -10.5t-6.5 -8.5t4.5 -3.5z" />
<glyph glyph-name="comma" unicode="," horiz-adv-x="200" d="M23 32q27 -15 31.5 -29.5t-0.5 -26.5t-13.5 -20t-6.5 -9q3 -3 16.5 5.5t29 22.5t27.5 30.5t12 30.5q0 7 -7.5 15t-16.5 15.5t-17.5 12.5t-9.5 5q-2 0 -9.5 -8t-15.5 -17.5t-14.5 -18t-5.5 -8.5z" />
<glyph glyph-name="hyphen" unicode="-" horiz-adv-x="490" d="M8 278h365q14 0 20.5 10.5t15.5 21.5q3 4 11 9t14 9.5t7 8t-9 3.5h-361q-14 0 -22 -10t-17 -20q-4 -4 -10.5 -9.5t-11.5 -10.5t-6.5 -8.5t4.5 -3.5z" />
<glyph glyph-name="period" unicode="." horiz-adv-x="200" d="M28 37q-3 -1 1.5 -6t12 -12t15.5 -16t13 -18q1 -3 10 3.5t18.5 15.5t17.5 18t7 11q-1 4 -8 13t-15.5 17.5t-16.5 14.5t-10 3q-5 -6 -16 -21t-29 -23z" />
<glyph glyph-name="slash" unicode="/" horiz-adv-x="498" d="M10 2q-3 -6 2 -8.5t14 -3t19 1l17 2.5q12 2 23.5 5.5t16.5 14.5l348 696q3 6 -1.5 7.5t-12 1t-17 -2l-15.5 -2.5q-16 -2 -30 -7t-21 -19z" />
<glyph glyph-name="zero" unicode="0" horiz-adv-x="583" d="M2 358q0 -92 17 -160.5t42 -113.5t52.5 -67t48.5 -22q35 0 76.5 12.5t84 35.5t81.5 57t69.5 76t49 92.5t18.5 107.5t-19.5 109t-47.5 92t-59 63.5t-53 23.5q-25 0 -61.5 -11.5t-76.5 -32t-80 -49.5t-71.5 -63t-51 -72t-19.5 -78zM97 347q0 45 15 91t39.5 83t56 60 t65.5 23q25 0 55 -21t56 -57.5t44 -87t18 -110.5q0 -54 -18 -104.5t-45.5 -89t-59.5 -62t-59 -23.5q-24 0 -52.5 28.5t-54 72t-43 96t-17.5 101.5z" />
<glyph glyph-name="one" unicode="1" horiz-adv-x="297" d="M52 9q0 -17 18.5 -18t41 5t41 14.5t18.5 10.5q0 3 -4 1.5t-9 -1.5q-4 0 -8 4t-4 19t8 57l19.5 99l25 123.5t25 130t19.5 118.5t8 90q0 9 -13.5 6.5t-33.5 -12t-43.5 -23.5t-43 -27t-33 -23.5t-12.5 -12.5q0 -2 7 1.5l17 8.5t21.5 9.5t21.5 4t16.5 -8t6.5 -25.5 q0 -21 -8 -63.5t-20.5 -95.5l-26.5 -111.5l-26.5 -112.5t-20.5 -98.5t-8 -69.5z" />
<glyph glyph-name="two" unicode="2" horiz-adv-x="588" d="M8 -10q0 -4 14.5 2t41.5 14.5t65.5 16t86.5 7.5q21 0 58 -3.5t73 -10.5t62 -18t26 -25q0 -9 -3 -15.5t-6.5 -11t-5 -7.5t1.5 -5t14.5 7t24.5 24t23 33t10 33q0 21 -18 35t-44.5 22t-57 11t-56.5 3q-49 0 -96 -7t-80 -16q0 9 9 25.5t25.5 38t39.5 45t52 46.5 q39 31 82.5 60t80 62.5t60 75.5t23.5 99q0 26 -7.5 49.5t-24 41t-41.5 28t-59 10.5q-50 0 -101.5 -14.5t-92 -39t-64 -58t-17.5 -72.5q0 -3 10 -7.5l24.5 -10.5t31.5 -11.5t31 -9.5t23 -5.5t8 1.5q-16 33 -16 65q0 28 10 51.5t25 41t32.5 27.5t32.5 10q14 0 31 -8t32 -24 t25 -41t10 -59q0 -62 -30.5 -109.5t-75.5 -86.5t-98.5 -73t-98.5 -69.5t-75.5 -75.5t-30.5 -92z" />
<glyph glyph-name="three" unicode="3" horiz-adv-x="632" d="M118 221q-2 3 -19 -6.5t-36.5 -23.5t-35 -28t-15.5 -20q0 -7 13.5 -30t40 -48.5t66 -45.5t92.5 -20q64 0 122.5 27.5t103.5 69.5t72 91t27 92q0 25 -12 46.5t-34.5 37.5t-54 25t-70.5 9q-3 0 8.5 4.5t29.5 13.5t40.5 22.5t41.5 30.5t32 38t13 46q0 19 -8.5 38.5 t-24.5 35.5t-38 26t-49 10q-56 0 -105.5 -19.5t-87 -46t-59 -54t-21.5 -42.5t19.5 -27t43.5 -20t43.5 -11.5t19.5 -1.5t-6 5.5t-12.5 11t-12.5 19.5t-6 31q0 44 32 71.5t80 27.5q22 0 42 -7.5t35.5 -20.5t24.5 -31t9 -39q0 -24 -20.5 -45t-48.5 -37.5t-57.5 -29t-48 -18.5 t-20.5 -6q-6 -11 -16.5 -22t-21 -20.5l-18.5 -17t-8 -12.5q0 -2 11.5 1t31.5 7.5t45.5 8.5t54.5 4q58 0 94.5 -27.5t36.5 -84.5q0 -33 -15.5 -62t-38 -50.5t-47 -34t-42.5 -12.5q-41 0 -82.5 15t-74.5 36.5t-54 44t-21 37.5q0 12 3.5 18.5t7 10t5.5 5t0 4.5z" />
<glyph glyph-name="four" unicode="4" horiz-adv-x="589" d="M2 332l33.5 -15t83.5 -32.5t107 -32.5t105 -15l-6 -27.5l-13.5 -64.5t-13.5 -73.5t-6 -55.5q0 -15 5.5 -20t20.5 -5q14 0 31 4t32 9t25.5 10.5t10.5 7.5q0 3 -4.5 1.5t-10.5 -1.5t-10.5 4.5t-4.5 20.5q0 27 4 59t9.5 59.5l9.5 46l4 18.5q43 0 75 8t52 17.5t28 17t4 7.5 q-22 -3 -48.5 -1.5t-49 3.5t-37.5 4.5l-15 2.5l48 299q1 11 2.5 23.5t2 23.5t-1 19t-4.5 11t-12.5 -0.5t-21 -9.5t-24 -14.5l-22.5 -15.5zM106 384q47 39 98 76.5l93.5 67t70 47l27.5 17.5q-4 -56 -12.5 -108t-17 -92.5t-15 -65l-6.5 -24.5q-15 0 -44 8.5t-61 20.5l-63 24.5 l-49.5 20t-20.5 8.5z" />
<glyph glyph-name="five" unicode="5" horiz-adv-x="559" d="M0 162q0 -10 14 -38.5t40.5 -58.5t64.5 -53.5t87 -23.5q9 0 35 9.5t60 27.5t71.5 44.5t68.5 60t51.5 74t20.5 86.5q0 30 -10.5 58.5t-31 51t-51 36t-70.5 13.5q-28 0 -54.5 -6.5t-47 -14.5t-33 -14.5l-12.5 -6.5l38 202h147q23 0 30 -5t7 -11t-2.5 -11t1.5 -6 q4 0 16.5 14.5t24 32.5t16.5 33t-7 15h-232l-88 -39l-54 -265q-3 -12 10 -9.5t36.5 10.5t55.5 17t68 9q34 0 64.5 -15.5t52.5 -40t35 -55t13 -60.5q0 -36 -15 -67t-38.5 -53.5t-52.5 -35.5t-58 -13q-48 0 -81.5 19.5t-54.5 44.5t-30 49t-9 33q0 6 4.5 10l9 8t8 7.5t0.5 8.5 q-2 3 -20.5 -6.5t-40 -22.5t-39.5 -26t-18 -17z" />
<glyph glyph-name="six" unicode="6" horiz-adv-x="535" d="M490 556q0 8 -14.5 27.5t-37.5 39.5t-51.5 35t-55.5 15q-11 0 -39.5 -13t-64.5 -37.5t-75 -60t-71 -81t-53 -100.5t-21 -119q0 -56 14.5 -105.5t39.5 -86.5t59 -58t72 -21q12 0 36.5 6t54 18t60.5 29t56.5 39t42 48.5t16.5 57.5q0 34 -15.5 67t-41 59.5t-57.5 43 t-65 16.5q-42 0 -88.5 -24t-97.5 -78l-1.5 16.5t-1.5 39.5q0 54 16 104t41.5 89t58 62.5t65.5 23.5q27 0 51 -12t42 -28t28.5 -31t10.5 -22q0 -15 -4 -22t1 -9q3 -1 17 8t30.5 21.5t29.5 24.5t13 18zM359 165q0 -20 -7 -42t-17.5 -40t-23 -30t-24.5 -12q-46 0 -79.5 22 t-54.5 53t-34 63t-18 52.5t-5 22.5q28 38 58 55t60 17t56.5 -15.5t46 -39t31 -52t11.5 -54.5z" />
<glyph glyph-name="seven" unicode="7" horiz-adv-x="518" d="M9 568q-4 -5 5 -7.5t23.5 -6t31.5 -8.5t29 -13q3 -2 0.5 3.5t-5.5 16t-4 24.5t5 28q3 7 37 3t83 -8t103.5 -2.5t98.5 20.5q3 1 -4.5 -22t-21.5 -61.5l-32.5 -89l-38.5 -104.5l-39 -108l-34 -99t-24.5 -77.5t-9.5 -44.5t19.5 -17.5t43 -6.5t43.5 1t20 5t-3 3.5t-6.5 2.5 t-7 6.5t-3.5 15.5q0 59 15.5 130t38.5 143t49.5 139l47.5 118.5l33 81.5t6 28q-18 -7 -46 -9.5t-60 -2t-67 3t-66 5.5t-57 5t-41 2q-12 0 -33 -8.5t-44 -22.5t-46 -31.5t-39 -35.5z" />
<glyph glyph-name="eight" unicode="8" horiz-adv-x="503" d="M18 186q0 -45 16.5 -81t42.5 -61.5t59.5 -39.5t68.5 -14q46 0 87.5 20.5t72 53.5t48.5 74.5t18 83.5q0 36 -14 66.5t-33.5 57t-40.5 48.5t-35 40l20.5 14t44.5 37t44.5 52.5t20.5 61.5q0 20 -7 34t-17.5 23t-23.5 13.5t-25 4.5q-21 0 -57 -11.5t-70.5 -32t-60 -47.5 t-25.5 -58q0 -28 8.5 -52t18.5 -41.5t18.5 -27.5l8.5 -10l-73 -49.5t-59.5 -46t-40.5 -50.5t-15 -62zM220 377q1 -1 16.5 -13.5t40 -36t47.5 -52.5t39.5 -63.5t16.5 -67.5q0 -25 -10 -45t-25 -34t-33 -21.5t-33 -7.5q-33 0 -63.5 18t-53 45.5t-36 61t-13.5 64.5 q0 45 27.5 81t79.5 71zM293 455q-23 19 -40 47t-17 56q0 7 3 17t8.5 19t14 15.5t19.5 6.5q6 0 18 -4t24 -11.5t21 -19.5t9 -27q0 -16 -9.5 -33.5t-20.5 -32t-20.5 -24z" />
<glyph glyph-name="nine" unicode="9" horiz-adv-x="531" d="M1 105q0 -8 14.5 -27.5t37.5 -39.5t51.5 -35t55.5 -15q11 0 39.5 13t64.5 37.5t75 60t71 81t53 101t21 118.5q0 56 -14.5 105.5t-39.5 86t-59 58t-72 21.5q-12 0 -36.5 -6t-54 -18t-60.5 -29t-56.5 -39t-42 -48.5t-16.5 -57.5q0 -34 15.5 -67t41 -59.5t57.5 -43t65 -16.5 q42 0 88.5 24t97.5 78l1.5 -16.5t1.5 -39.5q0 -54 -16 -104t-41.5 -89t-58 -62.5t-65.5 -23.5q-27 0 -51 12t-42 27.5t-28.5 31t-10.5 22.5q0 15 4 22t-1 9q-3 1 -17 -8t-30.5 -21.5t-29.5 -24.5t-13 -18zM132 496q0 20 7 42t17.5 40t23 30t24.5 12q46 0 79.5 -22t54.5 -53 t34 -63t18 -52.5t5 -22.5q-28 -38 -58 -55t-60 -17t-56.5 15.5t-46 39t-31 52t-11.5 54.5z" />
<glyph glyph-name="colon" unicode=":" horiz-adv-x="175" d="M23 37q-3 -1 1.5 -6t12 -12t15.5 -16t13 -18q1 -3 10 3.5t18.5 15.5t17.5 18t7 11q-1 4 -8 13t-15.5 17.5t-16.5 14.5t-10 3q-5 -6 -16 -21t-29 -23zM23 289q-3 -1 1.5 -6t12 -12t15.5 -16t13 -18q1 -3 10 3.5t18.5 15.5t17.5 18t7 11q-1 4 -8 13t-15.5 17.5t-16.5 14.5 t-10 3q-5 -6 -16 -21t-29 -23z" />
<glyph glyph-name="semicolon" unicode=";" horiz-adv-x="175" d="M25 32q27 -15 34 -27.5t4 -22t-9 -16t-4 -7.5q3 -3 14.5 6t24.5 22.5t23 27t9 21.5q-1 7 -8.5 15t-16.5 15.5t-17 12.5t-9 5q-2 0 -9.5 -8t-15.5 -17.5t-14.5 -18t-5.5 -8.5zM23 289q-3 -1 1.5 -6t12 -12t15.5 -16t13 -18q1 -3 10 3.5t18.5 15.5t17.5 18t7 11q-1 4 -8 13 t-15.5 17.5t-16.5 14.5t-10 3q-5 -6 -16 -21t-29 -23z" />
<glyph glyph-name="less" unicode="&#x3c;" horiz-adv-x="430" d="M61 300q-3 -2 9.5 -13t34 -27l48 -36l51.5 -40t45.5 -38.5t28.5 -32.5l102 28q-19 28 -54.5 59.5t-71 58.5t-62 44.5l-26.5 17.5l26 15t62 38.5t73 52.5t60 58q1 1 -16.5 -2t-38.5 -7.5l-38.5 -8.5l-17.5 -4q-15 -19 -38 -37.5t-47.5 -36t-49 -32.5l-43.5 -27 t-29.5 -19.5t-7.5 -10.5z" />
<glyph glyph-name="equal" unicode="=" horiz-adv-x="400" d="M8 206h293q14 0 20.5 10.5t15.5 21.5q3 4 11 9t14 9.5t7 8t-9 3.5h-289q-14 0 -22 -10t-17 -20q-4 -4 -10.5 -9.5t-11.5 -10.5t-6.5 -8.5t4.5 -3.5zM8 322h293q14 0 20.5 10.5t15.5 21.5q3 4 11 9t14 9.5t7 8t-9 3.5h-289q-14 0 -22 -10t-17 -20q-4 -4 -10.5 -9.5 t-11.5 -10.5t-6.5 -8.5t4.5 -3.5z" />
<glyph glyph-name="greater" unicode="&#x3e;" horiz-adv-x="430" d="M374 300q3 2 -9.5 13t-34 27.5l-48 36t-51.5 40t-45.5 39t-28.5 32.5l-102 -28q19 -28 54.5 -59.5t71 -58.5t62 -44.5l26.5 -17.5q-1 -1 -17 -10l-43.5 -25.5t-57 -37.5t-57.5 -44.5t-46 -46.5q-1 -1 16.5 2t38.5 7.5l38.5 8.5l17.5 4q23 28 61 55.5t73.5 50l60 38 t20.5 18.5z" />
<glyph glyph-name="question" unicode="?" horiz-adv-x="508" d="M147 109q1 -10 16.5 -7.5t34 9t33.5 14l15 7.5q-14 71 6 126t88 96q55 33 88.5 62t51.5 53.5t24 45t6 37.5q0 18 -7 41.5t-23 44t-42 35t-64 14.5q-48 0 -90 -18.5t-75.5 -46t-58 -59t-36.5 -57t-11.5 -40t17.5 -8.5q27 10 49 11t38 -1t26.5 -3t15.5 7q3 4 -2.5 9.5 l-13.5 13.5t-15 19.5t-7 27.5q0 5 3 18.5t11.5 27t23 24t38.5 10.5q20 0 43.5 -8.5t44 -25t34 -40.5t13.5 -56q0 -42 -29.5 -72.5t-68 -55t-76 -45.5t-53.5 -44q-29 -42 -40.5 -86.5t-7.5 -79.5zM108 21q-3 -1 2.5 -7t14.5 -14.5t18.5 -19t15.5 -20.5q1 -3 11.5 4.5t22.5 18 t21.5 20.5t8.5 13q-2 5 -10.5 16t-19 21.5t-19.5 17t-12 3.5q-5 -7 -19 -25t-35 -28z" />
<glyph glyph-name="at" unicode="@" horiz-adv-x="538" d="M81 121q0 -11 10.5 -13.5t25 -0.5t29.5 7t25 10q18 10 37.5 30t35.5 38.5l26.5 30t9.5 5.5l-21 -115q-3 -17 12 -23t39.5 -2.5t54 16t55 32.5t42.5 46.5t17 57.5q0 113 -65 169.5t-182 56.5q-59 0 -102.5 -22t-72.5 -56.5t-43.5 -76.5t-14.5 -83q0 -48 18 -92.5t50 -78.5 t75.5 -54.5t94.5 -20.5q39 0 73 12.5t59 28t39.5 29.5t14.5 18q0 3 -13.5 -4.5t-37.5 -18t-57 -19.5t-72 -9q-31 0 -67 8t-67 29t-51.5 56.5t-20.5 90.5q0 37 12.5 79.5t40 77.5t72 58.5t107.5 23.5q38 0 70 -11.5t55.5 -33t37 -53t13.5 -71.5q0 -17 -4 -41.5t-14.5 -47.5 t-29 -40.5t-46.5 -20.5q-13 -1 -18 13t-6 36t2 47t7 45q8 44 18 69t18 37.5t13 15.5t2 3q-26 -5 -58.5 -16t-66.5 -27t-66.5 -38t-58 -50t-41 -62.5t-15.5 -74.5zM152 151q0 29 9 59.5t27 57t45.5 47t63.5 29.5l-2 -12.5l-4.5 -28l-4.5 -29t-3 -15.5q-9 -16 -30.5 -42 t-44 -46.5t-39.5 -29t-17 9.5z" />
<glyph glyph-name="A" unicode="A" horiz-adv-x="1038" d="M14 43q0 -18 21 -30.5t81 -12.5q31 0 67 16t71.5 40t68.5 52t58.5 52t40.5 40l15 16q62 19 112 27t85 10t54 0.5l19 -1.5l22.5 -91.5t28 -100t34 -80.5t42.5 -33q14 0 33 8t40 20.5t41 27t35 27t23 21.5t5 9q-8 1 -22.5 -10.5t-31.5 -17.5t-35 2t-32 48q-12 34 -26 79.5 t-28 97.5l-27.5 106t-23.5 105t-16 95.5t-6 76.5q0 16 6.5 26.5t13.5 16.5t9.5 7t-4.5 0q-18 -4 -43 -9t-48 -10.5t-39 -11t-16 -9.5q0 -30 3 -59.5t6.5 -53t6.5 -38.5l3 -15l-68.5 -73l-68 -74.5l-53.5 -58t-25 -24.5q-45 -15 -93.5 -39.5t-88.5 -48.5t-64.5 -42.5 t-21.5 -21.5t17.5 5.5l41.5 23.5t68 34.5t97 38.5l-11.5 -12.5t-31 -31t-45.5 -40.5t-54.5 -40.5t-58 -31t-56.5 -12.5q-26 0 -44.5 14t-18.5 27q0 9 3.5 15.5t8 11.5t8 8t3.5 5q0 3 -14.5 -2t-31.5 -15.5t-31 -25.5t-14 -33zM484 267q1 1 14 16l35.5 40l46.5 51.5l47 50.5 t38 37l2.5 -13.5l6.5 -35.5t10 -48.5l12 -52.5l-20.5 -3.5t-51.5 -10l-68.5 -14.5t-71.5 -17z" />
<glyph glyph-name="B" unicode="B" horiz-adv-x="860" d="M2 394q0 -5 16.5 -11t39 -10t46 -6t37.5 1q3 0 -1 3.5t-10 10t-11.5 15t-5.5 19.5q0 22 17 48.5t45.5 53t67 51t80.5 44t85.5 31t83.5 11.5q53 0 80.5 -25t27.5 -60q0 -26 -18 -51.5t-42 -45t-48 -31.5t-36 -12l5.5 19l13 46.5l16 57.5l14.5 52q4 13 10.5 19.5t6.5 11.5 q0 7 -18.5 5.5t-41 -6t-41 -9.5l-18.5 -5q-5 -41 -12.5 -89.5t-17 -98.5l-19 -98l-17.5 -88t-13 -69.5t-5 -41.5q0 -4 9 -16t23.5 -28.5t34.5 -34.5t42.5 -32.5t45.5 -24.5t45 -10q6 0 31 10t59 28.5t72 45.5t70 61.5t53 75.5t21 88q0 54 -19 87.5t-48 52t-63 24.5t-65 6 q-36 0 -60.5 -4.5l-24.5 -4.5l22 15t48.5 37.5t48.5 49.5t22 51q0 43 -28.5 60t-84.5 17q-44 0 -103.5 -15.5t-123 -40.5t-125 -57t-110.5 -65t-79 -64t-30 -54zM398 208q0 4 5.5 26.5t13.5 52l16 60t13.5 49t5.5 20.5q2 1 14.5 4.5t34 7.5t40.5 4q44 0 78 -15t57.5 -40.5 t35.5 -59t12 -69.5q0 -44 -13.5 -80t-32.5 -62.5t-38 -41t-29 -14.5q-23 0 -59 19t-70.5 44.5t-59 52t-24.5 42.5z" />
<glyph glyph-name="C" unicode="C" horiz-adv-x="580" d="M4 290q0 -53 16 -95.5t42.5 -75t60 -56.5t68 -39t66.5 -22.5t56 -7.5q36 0 77.5 13t75.5 30.5t54.5 34t15.5 24.5q-3 4 -13 -2t-29 -15t-47.5 -17t-68.5 -8q-53 0 -102.5 25t-88 66t-62 94t-23.5 110t20 110t52.5 94.5t73.5 66t82 24.5q64 0 104.5 -10t64 -24.5 t33.5 -31.5t13 -31.5t3.5 -24.5t3.5 -10q5 0 13.5 22t16 48.5t11 49t-0.5 24.5q-35 14 -72 21t-74 7q-82 0 -161 -32t-141.5 -86.5t-101 -126t-38.5 -149.5z" />
<glyph glyph-name="D" unicode="D" horiz-adv-x="976" d="M2 324q0 -6 21.5 -12.5t47.5 -11t47.5 -6t21.5 3.5q0 3 -6.5 7t-14 9.5t-13.5 13t-6 18.5q0 33 28 68t73.5 68t103.5 62.5t116.5 51.5t113.5 35t95 13q42 0 83.5 -23.5t74.5 -63t53.5 -92.5t20.5 -111q0 -66 -22.5 -119t-55.5 -89.5t-71 -56t-70 -19.5q-35 0 -77 19 t-79.5 44.5t-62.5 51.5t-25 39l9 31t21 77.5l25 100t21 99.5q2 15 8 28.5t11.5 23.5t8.5 16t-1 6q-12 0 -31 -6.5t-37 -14t-31 -14l-13 -6.5q-5 -43 -12.5 -91.5l-15.5 -96.5t-16.5 -92l-15 -78.5l-10.5 -56.5t-4 -26t13.5 -15.5t35 -26t50 -31t58 -30t59 -22.5t53.5 -9 q6 0 36 16.5t71 45.5t87 69t85 87t64.5 99t25.5 106q0 59 -15 102.5t-39 74t-53 49.5t-58 29.5t-53.5 14.5t-39.5 4q-43 0 -111.5 -19t-145.5 -50.5t-155 -70.5t-140.5 -79.5t-102 -78t-39.5 -65.5z" />
<glyph glyph-name="E" unicode="E" horiz-adv-x="755" d="M732 586q4 1 8.5 8.5t9 17.5t7.5 21.5t3 22.5q0 10 -15 16.5t-36 9.5t-44.5 4t-41.5 1q-71 0 -145 -16t-143 -41.5t-129.5 -58t-106 -65t-71.5 -62.5t-26 -50q0 -5 16.5 -11t39 -10t45.5 -6t37 1q3 0 -0.5 3.5t-9.5 10t-11.5 15t-5.5 19.5q0 22 19 48.5t51.5 53.5 t76 52.5t92 45t100 31.5t100.5 12q56 0 103 -16.5t77 -56.5zM692 85q-25 -11 -46 -17.5t-41.5 -10.5t-42 -5.5t-48.5 -1.5q-26 0 -56.5 2.5t-56.5 6l-44 6l-18 2.5q25 31 46 75t35.5 84.5t22.5 69l8 28.5q41 18 85 25.5t76 -1.5q13 -4 17 -13t3.5 -17t-2 -12.5t1.5 1.5 q12 19 24 31.5t23.5 22l21.5 18.5t18 23l-15 2t-46.5 -0.5t-80 -11.5t-115.5 -31l6.5 24t17.5 60t25.5 77.5t29.5 77.5q3 7 7.5 14l8 12.5t4.5 9t-3 4.5q-11 2 -30.5 -0.5t-38 -6.5t-32.5 -8l-14 -4q-11 -6 -19 -33t-14 -66.5t-11.5 -87.5l-11.5 -97.5t-14.5 -96t-21 -82.5 t-29.5 -58t-41 -22q-20 0 -30.5 6t-12.5 3q-10 -14 -26 -27t-31.5 -23t-27 -15.5l-11.5 -5.5q42 -4 89.5 -8t92.5 -7t85 -5t68 -2q58 0 95.5 10.5t60.5 25t36 30t23 25.5z" />
<glyph glyph-name="F" unicode="F" horiz-adv-x="734" d="M447 361l6 24l15.5 59.5l21 77.5l21.5 78q2 8 6.5 15t8.5 12t5 8.5t-3 4.5q-11 2 -30.5 -0.5t-38.5 -6.5t-33 -8l-14 -4q-9 -62 -25 -144l-33 -168l-32 -166.5t-21 -138.5q-1 -12 6.5 -12.5t19 5.5t26.5 17t27.5 23t22 23t11.5 16q-1 -1 -8 -4.5t-13 1t-2 28.5 q20 110 34 166.5l14 56.5q20 9 44 15.5t47 10t44.5 3t37.5 -4.5q13 -4 17 -13t3.5 -17t-2 -12.5t1.5 1.5q12 19 24 31.5t23.5 22l21.5 18.5t18 23l-17.5 2t-51.5 -0.5t-85 -11.5t-118 -31zM732 586q4 1 8.5 8.5t9 17.5t7.5 21.5t3 22.5q0 10 -15 16.5t-36 9.5t-44.5 4 t-41.5 1q-71 0 -145 -16t-143 -41.5t-129.5 -58t-106 -65t-71.5 -62.5t-26 -50q0 -5 16.5 -11t39 -10t45.5 -6t37 1q3 0 -0.5 3.5t-9.5 10t-11.5 15t-5.5 19.5q0 22 19 48.5t51.5 53.5t76 52.5t92 45t100 31.5t100.5 12q56 0 103 -16.5t77 -56.5z" />
<glyph glyph-name="G" unicode="G" horiz-adv-x="710" d="M25 257q0 -55 22 -104t58.5 -85.5t83.5 -58t97 -21.5q49 0 89.5 12.5t69.5 27.5t44.5 27.5l15.5 12.5q-10 -71 -35 -120t-58.5 -79.5t-72.5 -44.5t-77 -14q-31 0 -58 7.5t-47 21t-30.5 32t-7.5 39.5q2 15 10 23.5t16.5 13l14 7.5t3.5 8q-2 4 -27 -4.5t-54.5 -22 t-53.5 -29t-24 -26.5q0 -12 19 -28t52 -30.5t77 -24t94 -9.5q60 0 109.5 20.5t89 54.5t71 77.5t55 90t39.5 92t26 83t14.5 64t4.5 34.5q0 6 -26 6q-25 0 -55.5 -4t-56 -11t-25.5 -13q0 -5 7 -4.5t15 -0.5t14 -7t4 -24l-18 -134q-2 -13 -14.5 -26t-31.5 -23t-42 -16.5 t-47 -6.5q-52 0 -96.5 24.5t-77 65t-51 92.5t-18.5 108q0 68 27 126t69 100t93.5 65.5t100.5 23.5q31 0 61.5 -7.5t55 -24t40 -44t15.5 -67.5q0 -6 6.5 2.5t16 25t20 37.5l19 39.5t12.5 32t0 15.5q-38 19 -77 27.5t-81 8.5q-66 0 -128 -17.5t-116 -48t-99.5 -71.5 t-77.5 -89.5t-50 -101t-18 -105.5z" />
<glyph glyph-name="H" unicode="H" horiz-adv-x="959" d="M4 164q0 -20 17.5 -31t38.5 -15.5t38.5 -3.5t17.5 6q0 2 -5 4.5t-10.5 8.5t-10.5 16t-5 28q0 29 15 54.5t39.5 47t55 38.5t61 30t58 21t45.5 12q-32 -165 -53.5 -252.5t-21.5 -99.5q0 -20 14 -24t38 -4q19 0 38.5 3t34 6t21 6t-0.5 3q-22 0 -32.5 10t-10.5 36t6.5 68 t16 85.5l19 84.5t15.5 64.5t7 25.5q61 7 120.5 9.5t106.5 2.5t76 -1.5l29 -1.5q-1 -2 -7.5 -29.5t-16.5 -74l-20 -96.5t-17 -97t-7 -75q0 -17 6.5 -23t19.5 -6q21 0 47.5 11t48.5 24t34.5 23t5.5 8t-17.5 -9t-20.5 -8t-17.5 8t-7.5 38q0 27 4.5 65t12.5 81.5t18 89.5 t21.5 90t23 83t22.5 68l25.5 66t1.5 24q-3 0 -12.5 -2.5t-22.5 -4.5t-29 -2q-15 0 -30 4q-5 1 -11.5 -25.5t-14.5 -62.5l-16 -71.5t-14 -52.5l-29 0.5t-76.5 -1t-108 -6.5t-122.5 -16l4.5 19l11.5 46.5l15 57.5l14 53q1 6 6 18t8.5 24t5 21t-2.5 9q-10 0 -18.5 -3t-26.5 -3 q-23 0 -39.5 3t-18.5 -6l-52 -256q-25 -7 -61.5 -20.5t-76.5 -31.5t-79.5 -40t-71 -46.5t-51 -50.5t-19.5 -52z" />
<glyph glyph-name="I" unicode="I" horiz-adv-x="454" d="M-2 24q-8 -2 3 -5.5t33.5 -7.5t53.5 -7.5l64 -7t65 -5.5t56 -2q16 0 41 12.5t47.5 27t36.5 25.5t8 8q-17 -9 -38 -12.5t-43 -3.5q-24 0 -47.5 3.5t-42 7.5t-30 7.5l-11.5 3.5q26 9 44.5 41.5t32 80t24 105.5l20.5 118t22.5 118t29.5 106q1 0 10.5 -2t26 -4t29.5 -2 q6 0 14.5 5t19 12l21.5 15t22 14q-17 3 -56 5t-116 2q-51 0 -103.5 -15.5t-95 -34t-69 -35t-26.5 -19.5q0 -8 22 -14t48.5 -9.5t48.5 -3.5t22 4q0 1 -4.5 3.5t-10.5 7.5t-10.5 13.5t-4.5 22.5q0 11 11 20t28 15t38 9.5t41 3.5q15 0 30 -2t21 -5q-3 -1 -11.5 -2.5t-17.5 -4.5 t-17 -7.5t-11 -12.5q-17 -48 -22.5 -104t-7.5 -117.5t-6.5 -126t-20.5 -130.5q-4 -17 -12.5 -31t-22.5 -21.5t-33 -8t-44 10.5l-9.5 -8.5t-24 -19.5t-32.5 -21.5t-34 -14.5z" />
<glyph glyph-name="J" unicode="J" horiz-adv-x="486" d="M2 108q0 -23 13.5 -43.5t37.5 -36.5t56 -25t68 -9q42 0 76.5 25.5t63 67.5t51 96.5t39.5 112t29 114.5t19.5 104t11 80.5t3.5 43.5q9 3 23 11t26 11.5t19 -1.5t1 -27q0 -3 11.5 10.5l26 31t26.5 34t12 21.5q0 8 -17.5 6t-44.5 -11t-60 -22.5t-64.5 -28l-58 -27.5 l-40.5 -20q-4 -2 -15 -12t-22.5 -22.5t-20.5 -24t-9 -16.5q0 -3 16 3t34.5 15l34.5 16.5l16 7.5q0 -18 -4.5 -67.5t-13.5 -113t-21.5 -132.5t-28.5 -126.5t-35 -95t-41 -37.5q-21 0 -42 13t-37.5 32t-26.5 41t-10 41q0 18 8 34.5t17 31l17 27t8 23.5q0 1 -11.5 -8.5t-28 -25 l-36.5 -35l-36.5 -37t-28 -31.5t-11.5 -19z" />
<glyph glyph-name="K" unicode="K" horiz-adv-x="916" d="M295 -6q3 -10 22 -1.5t41 23t39 29t15 17.5t-8.5 0t-14 -4.5t-13.5 2.5t-7 21q0 8 5.5 33t14 58l18.5 69l18.5 66.5l14 50.5l5.5 20q78 -33 133 -83t88.5 -100.5t52.5 -97.5t25.5 -74t6.5 -29q19 4 43 5.5t44 1.5q21 0 35 -1l14 -1q-47 93 -104 160.5t-109.5 111t-98 70 t-71 36t-27.5 10.5l30 13.5t75 37t97 54t95.5 65t71 70.5t23.5 69l-127 -14q7 -40 -8 -75.5t-42.5 -66t-63.5 -55t-70.5 -42.5t-63.5 -29t-43 -14q0 2 5.5 21l15 52l19 67.5l18 65.5t12.5 48q3 12 8 21t9.5 15t6 9t-2.5 3q-29 0 -80 -12.5t-110.5 -33.5t-121.5 -48.5 t-112.5 -57.5t-82.5 -60.5t-32 -57.5q0 -5 10 -9.5t25 -8t33 -6t33 -3.5t25 -1t10 2q0 3 -4 5.5l-9 5.5t-9 9t-4 17q0 36 33 71t80.5 64.5t99.5 50.5t91 30l-22 -102l-28 -130.5t-29 -141l-25 -131.5t-16 -103.5t-2 -56.5z" />
<glyph glyph-name="L" unicode="L" horiz-adv-x="554" d="M0 -6q42 -4 99.5 4.5t117 20l114.5 21.5t92 10q14 0 13 -8t-6.5 -18.5t-11.5 -20t-3 -11.5t14 11t23 32.5t21.5 42t9.5 40.5t-13 22t-35 4q-33 0 -77.5 -9.5t-85 -21t-68 -21t-26.5 -8.5q22 16 42.5 50.5t39 79.5t34 96t28 98.5t21 87.5l13.5 64q9 47 36.5 69t59.5 22 q15 0 25 -4t16 -10t8.5 -12.5t2.5 -10.5q0 -7 -3 -12.5t-6.5 -9t-5.5 -6t0 -4.5q4 -3 19.5 9t32 29.5t29.5 35t13 25.5q0 10 -30.5 8.5t-75 -11.5t-94 -26t-87.5 -34q-17 -8 -28 -44.5t-20 -89.5t-17.5 -114.5t-20.5 -119t-28.5 -103.5t-41.5 -67q-9 -8 -20.5 -11t-22 -4 t-18.5 -2t-11 -5q-12 -14 -28.5 -29.5t-27 -24.5t-12.5 -10z" />
<glyph glyph-name="M" unicode="M" horiz-adv-x="1163" d="M472 643q3 -18 5.5 -26.5t5.5 -15.5t6 -17t8 -30q2 -10 -12 -51t-39 -96.5t-59 -117t-71.5 -114t-77.5 -86.5t-76 -34q-27 0 -43.5 14.5t-16.5 34.5t8 39.5t8 27.5q-3 0 -21.5 -8t-40 -21.5t-38.5 -31.5t-17 -38q0 -35 29 -57.5t95 -22.5q48 0 93.5 34.5t86.5 87 t76.5 116t62.5 121.5t44 103.5l23 61.5l10 -27.5t24.5 -71l31.5 -98t31.5 -109.5t24.5 -105t10 -83q0 -25 28.5 0.5t71.5 89t94 158t96 206.5l1.5 -37t4.5 -92.5t8.5 -120.5t13.5 -120.5t19.5 -92.5t26.5 -37q17 0 41 12.5t45 28.5t35.5 30.5t12.5 18.5t-11.5 -3t-21.5 -13 t-25 -6t-22 20q-11 23 -16.5 72.5t-8 123t-3 169t-0.5 211.5q0 7 7.5 15l14.5 15t9.5 11.5t-7.5 4.5q-16 0 -35.5 -2t-36.5 -5t-28.5 -7.5t-11.5 -9.5q0 -46 -13 -97.5t-34 -103.5t-47 -101.5t-52 -91.5t-49 -73.5t-38 -46.5q0 1 -7 24.5l-18.5 64.5l-25 89.5l-27 100 l-25 95.5t-18.5 76.5t-7 43.5q0 9 10 17t16 13.5t2.5 8.5t-30.5 3q-39 0 -88.5 -12.5t-100.5 -32.5t-100 -46.5t-87 -54.5t-61 -55.5t-23 -50.5q0 -6 10 -10.5t25 -8t33 -6t33 -3.5t25 -0.5t10 2.5q0 3 -4 6l-8.5 6.5t-8.5 10t-4 17.5q0 41 25 73.5t59.5 55t70.5 38.5t59 23 t25 7z" />
<glyph glyph-name="N" unicode="N" horiz-adv-x="1000" d="M502 469q34 -45 73 -102l77.5 -115l74 -111.5t63.5 -91.5t45 -54.5t19 -0.5q4 39 18 105.5l32.5 149.5l39.5 176l41 185q3 12 8.5 22.5t11 18.5t8 13.5t-0.5 8.5q-3 2 -19 1.5t-34 -2t-33 -4.5t-16 -6q-9 -28 -16 -67.5t-13 -85t-11.5 -94l-10.5 -94.5t-10 -85.5 t-10 -68.5l-20.5 21.5t-52 58l-69.5 83.5t-71.5 98t-59 102.5t-32.5 96.5q-2 12 1.5 21t7 15.5l5.5 10t-2 3.5q-18 0 -65.5 -13t-108.5 -34.5t-126.5 -51t-120 -62t-90 -66.5t-35.5 -66q0 -5 21 -10t46.5 -8.5t46.5 -4t21 3.5q0 3 -4 5.5t-8.5 6.5t-8.5 11.5t-4 22.5 q0 36 25 65.5t62 53.5t81 41.5t81 29.5t62 18l25 6q-7 -41 -17.5 -94l-22.5 -111l-24 -117t-21.5 -111.5t-15.5 -95t-6 -67.5q0 -23 10.5 -33t26.5 -10t36 6.5t36.5 14.5t27 15t9.5 9q-2 3 -10 1.5t-17 -2t-16.5 4.5t-7.5 22q0 8 5 41.5t12.5 79l16.5 97l16.5 94.5 l12.5 71.5z" />
<glyph glyph-name="O" unicode="O" horiz-adv-x="670" d="M5 236q0 -51 22.5 -96t56 -79t72 -53.5t69.5 -19.5q15 0 52 11t83.5 33t96 55t90.5 78t67.5 101.5t26.5 125.5q0 55 -17 108.5t-50 95.5t-81 68t-110 26q-38 0 -80 -11t-90 -35q-4 -2 -15.5 -18.5l-23 -34.5t-18.5 -32t-3 -11q33 23 68.5 34.5t71.5 11.5q52 0 99 -19 t82.5 -52.5t56.5 -80.5t21 -102q0 -54 -20.5 -105.5t-54.5 -91.5t-78 -64.5t-90 -24.5q-28 0 -62 16.5t-63.5 47.5t-49.5 76.5t-20 103.5q0 53 14 93.5t34.5 69.5t44 49t42.5 33.5t29 21.5t5 13q-3 3 -24.5 -7t-52.5 -31t-66 -52t-65 -70t-50 -85t-20 -97z" />
<glyph glyph-name="P" unicode="P" horiz-adv-x="742" d="M435 304q4 0 31 12t65.5 32.5t82.5 48t81 59t61.5 65.5t24.5 67q0 46 -46 75t-119 29q-54 0 -120 -16.5t-134 -43t-132 -60t-114 -68.5t-80.5 -67.5t-30.5 -56.5q0 -5 16 -10.5t38.5 -10t45.5 -6.5t37 1q3 0 -1 3.5t-10 10t-12 15t-6 19.5q0 30 21.5 60.5t57 59t80 53.5 t91 43.5t90.5 29.5t77 11q43 0 70 -18t42.5 -42.5t21 -49.5t5.5 -39q0 -23 -16 -46t-40 -44t-53 -39t-54 -31t-43.5 -20.5t-22.5 -7.5l8 27.5l19.5 69.5l24 90.5l22.5 90.5q2 8 6 15t8 12t5 8.5t-3 4.5q-11 2 -30.5 -0.5t-38.5 -6.5t-33 -8l-14 -4q-5 -41 -14 -93.5 t-20.5 -109.5l-23.5 -115.5t-21.5 -113.5t-14.5 -102.5t-3 -81.5q1 -16 10 -17t21.5 7t26 22t25 27.5t17.5 24t3 12.5q-1 0 -6 -5.5t-11 -9.5t-11.5 -3t-6.5 16q-1 12 4 39t12 58t15 61t13.5 48t5.5 19z" />
<glyph glyph-name="Q" unicode="Q" horiz-adv-x="689" d="M5 236q0 -45 21 -89.5t53.5 -80t71.5 -57t74 -21.5q21 0 49 9t53 20t42 20l17 9q12 -18 24 -46l24.5 -60l25.5 -64t25.5 -58t25 -42t25.5 -16q29 0 64 7.5t64.5 17t48 19t13.5 14.5q-2 2 -8.5 -2.5t-17 -8.5t-24.5 -4t-32 12q-31 21 -63 53.5t-58.5 66.5t-48.5 65.5 t-33 50t-12 19.5q18 12 53 37.5t70.5 65t62 94.5t26.5 125q0 55 -17 108.5t-50 95.5t-81 68t-110 26q-38 0 -80 -11t-90 -35q-4 -2 -15.5 -18.5l-23 -34.5t-18.5 -32t-3 -11q33 24 69 35.5t73 11.5q44 0 90 -17.5t83 -50t60.5 -78.5t23.5 -104q0 -19 -5 -52t-19 -70 t-41 -72.5t-70 -60.5l-12 17l-27 37l-28.5 36.5t-17.5 15.5t-0.5 -14.5t10 -31.5t15 -36.5l14 -30.5t5.5 -13q-30 -16 -59 -16q-31 0 -66.5 15t-65.5 46.5t-49.5 79.5t-19.5 115q0 49 13.5 86.5t33.5 66t43 48.5t41.5 33.5l29 21.5t6.5 12q-3 2 -24.5 -7.5t-52 -30.5 t-66 -51.5t-65.5 -69.5t-50 -85t-20 -98z" />
<glyph glyph-name="R" unicode="R" horiz-adv-x="846" d="M434 302q20 -13 50 -37.5t63 -55l66.5 -64.5t60 -66.5t43 -60t16.5 -45.5q0 -11 -6.5 -21.5t-13.5 -19l-12 -15t-3 -9.5q1 -2 17 12t34.5 35t34 44t15.5 38q0 23 -13.5 50.5t-34.5 55.5t-47.5 56t-53.5 53l-51 46l-41 35q2 1 23 8.5t55 25t66 41.5t55 57.5t23 74.5 q0 39 -16.5 67t-44.5 46t-64 26.5t-75 8.5q-54 0 -117.5 -12.5t-128 -33t-124.5 -48t-106.5 -57t-74.5 -60t-28 -57.5q0 -8 11.5 -15t28 -13t36.5 -10.5t36.5 -7t27.5 -2.5q12 0 12 2q0 3 -5 8t-10.5 12.5t-10.5 17.5t-5 24q0 27 16.5 54t44 51.5t64.5 45t77.5 36t82.5 24 t81 8.5q45 0 80 -15t59 -38.5t36.5 -51.5t12.5 -53q0 -35 -22 -67t-56 -56.5t-76.5 -39t-82.5 -14.5l8 28l19.5 70l24.5 91t23 91q2 8 6 15t8 12t5 8.5t-3 4.5q-11 2 -30.5 -0.5t-38.5 -6.5t-33 -8l-14 -4q0 -45 -15 -119l-33.5 -159.5t-33.5 -174t-15 -163.5q0 -16 8.5 -17 t21 7t26.5 22t25.5 27.5t18 24t3.5 12.5q-1 0 -6 -5.5t-11 -9.5t-11.5 -3t-6.5 16q-1 12 3.5 39t12 57.5l15 60t13 47.5t5.5 19z" />
<glyph glyph-name="S" unicode="S" horiz-adv-x="566" d="M-4 120q0 -19 21 -42t53 -43.5t69.5 -34.5t69.5 -14q20 0 52 15t69 41t74.5 61t67.5 75t49 83t19 85q0 10 -4.5 28t-17.5 35.5t-35.5 30t-58.5 12.5q-26 0 -51 -5t-49 -11.5t-47.5 -11.5t-46.5 -5q-24 0 -40 10t-16 39q0 36 18 62t45.5 43t60 25t61.5 8q30 0 55.5 -7 t25.5 -27q0 -17 -4.5 -27.5t-1.5 -10.5q6 0 16.5 15t21.5 36t19 42.5t8 35.5t-12 17.5t-29 3.5q-27 0 -65 -12t-80 -32t-83 -47t-74 -56.5t-53.5 -60.5t-20.5 -60q0 -34 18 -51.5t50 -17.5q21 0 46.5 6t51.5 13.5t52 14t48 6.5q28 0 48.5 -10.5t34 -28.5t20 -42t6.5 -50 q0 -36 -17 -71.5t-44.5 -64t-63 -46t-72.5 -17.5q-38 0 -67 12.5t-49 30.5t-30 37.5t-10 33.5q0 16 7 27t14.5 18t13 11.5t2.5 7.5q-2 2 -13 -4.5t-27 -18l-34.5 -25.5t-34 -27.5t-26 -24.5t-10.5 -15z" />
<glyph glyph-name="T" unicode="T" horiz-adv-x="696" d="M732 586q2 -3 9 8.5t12.5 27t6.5 30t-8 17.5q-51 18 -115 18q-68 0 -141.5 -14t-144 -37.5t-134 -54t-111.5 -63t-76 -65t-28 -59.5q0 -5 21.5 -11t47.5 -10t47.5 -6t21.5 1t-4 7l-9.5 9.5t-9.5 13t-4 18.5q0 26 21 54t56 55.5t80 51.5t93 42.5t95 29.5t86 11 q59 0 108 -16t80 -58zM391 101q10 55 22 111.5t26.5 117.5t32.5 128l39 142q2 8 6.5 15t8.5 12t5 8.5t-3 4.5q-11 2 -30.5 -0.5t-38.5 -6.5t-33 -8l-14 -4q-9 -62 -25 -144l-33 -168l-32 -166.5t-21 -138.5q-1 -12 6.5 -12.5t19 5.5t26.5 17t27.5 23t22 23t11.5 16 q-1 -1 -8 -4.5t-13 1t-2 28.5z" />
<glyph glyph-name="U" unicode="U" horiz-adv-x="1000" d="M482 1q28 0 63.5 9.5t76 34t85 68t91.5 112.5l-5.5 -17t-12.5 -43t-12.5 -56t-5.5 -56q0 -12 1.5 -23.5t6.5 -20.5t14.5 -14t24.5 -5q21 0 45.5 7.5t44 18t32 22t9.5 18.5q-1 2 -7 -1.5t-14.5 -8t-18.5 -6.5t-19 4t-15 22.5t-8 49.5q-1 31 10.5 92.5t32 139t48.5 164.5 t60 168q0 2 -19 -1t-42 -8t-42 -10t-19 -7q-4 -27 -10.5 -64.5t-14.5 -79.5t-17 -84l-17.5 -78t-16 -62t-11.5 -34q-3 -6 -14 -21t-28.5 -34.5t-40 -41t-47.5 -39t-52 -29t-53 -11.5q-37 0 -63 14t-42 36.5t-23.5 50.5t-7.5 55q0 26 9 71t22.5 96.5t29 104.5l28 96t19.5 70 t5 26q-22 -5 -69.5 -19.5t-105.5 -36.5t-119.5 -49t-112.5 -56t-83.5 -58.5t-32.5 -55.5q0 -8 20.5 -16t45 -13.5t45 -7.5t20.5 2q0 3 -3.5 7.5l-8 10t-8 13t-3.5 18.5q0 30 22.5 57.5t56 51t72.5 42t72.5 31.5t56 20l22.5 7q-7 -96 -22.5 -173.5t-31 -139l-27.5 -109 t-12 -85.5q0 -28 10.5 -52.5t30 -43t46 -29.5t59.5 -11z" />
<glyph glyph-name="V" unicode="V" horiz-adv-x="900" d="M346 637q0 -13 7.5 -47.5t19.5 -83t28 -105.5t34 -114.5l36.5 -111.5t35 -95.5t30 -66.5t22.5 -25q3 0 24 22t52.5 59.5t69.5 88.5t75.5 108.5t70 119.5t54 121.5t27 114t-11.5 98.5q-2 4 -20 -3.5t-38.5 -19t-37 -22.5t-14.5 -14q32 -46 32 -107q0 -60 -20 -123 t-53.5 -124t-67 -108.5t-61 -77t-35.5 -29.5q-7 0 -17.5 23.5t-23 62.5t-27 89t-28 103.5t-25.5 106t-20 95.5q-5 25 -6 45.5t-1.5 35.5t-2.5 23.5t-9 8.5q-15 0 -54 -13.5t-88.5 -36t-102.5 -51t-97.5 -59.5t-73 -61t-28.5 -55q0 -8 20.5 -16t45 -13t45 -7t20.5 1t-3.5 7.5 l-8 10t-8 13t-3.5 18.5q0 32 17.5 60.5t44 52.5t57 42.5t57 31.5t44 20z" />
<glyph glyph-name="W" unicode="W" horiz-adv-x="1220" d="M562 -12q8 0 27 26.5t43.5 66.5t50.5 87l48 87l36 66.5l14 26.5q4 -29 10.5 -66.5t14.5 -77t17 -78t18.5 -68.5t19 -48.5t19.5 -18.5q2 0 13 16t33 42l67 81.5t79 105.5t77 120.5t61 127t32 124t-10 112.5q-2 4 -20 -3.5t-39 -19t-37 -22.5t-14 -14q25 -31 31.5 -72 t-1 -87t-26 -94.5t-42 -94t-50 -85.5t-50 -70.5t-41 -48t-23.5 -17.5q-7 0 -15.5 25.5t-17.5 66.5t-17.5 93.5t-15.5 107.5t-11 106.5t-4 91.5q0 41 5 60t-2 18q-16 -5 -34 -11.5t-33.5 -13t-26 -12t-10.5 -8.5q0 -12 3.5 -40t8.5 -60t10.5 -62.5l9 -49t3.5 -20.5 q-6 -18 -20.5 -46t-32.5 -59.5l-37.5 -63.5l-36.5 -57.5l-28.5 -41.5t-13.5 -16q-7 0 -17 20t-22.5 54.5t-26 80.5t-27 98.5t-25.5 108t-21 109.5q-5 28 -6 49t-2.5 35.5t-5.5 22t-14 7.5q-20 0 -59.5 -15t-88 -39t-99.5 -54t-93 -61t-69 -59t-27 -48q0 -8 20.5 -15.5 t45 -13t45 -8t20.5 1.5q0 3 -3.5 7.5l-8 10t-8 13t-3.5 18.5q0 32 17.5 60.5t44 52t57 42.5t57 32t44 20l17.5 7q0 -14 7 -49.5t19 -84t28 -105.5l33.5 -114t36 -110.5t35.5 -94.5t32 -66t25 -25z" />
<glyph glyph-name="X" unicode="X" horiz-adv-x="793" d="M21 118q0 -24 8 -46.5t24.5 -39t41 -26.5t57.5 -10q24 0 50.5 23.5t53 58.5t50 76.5l42 76.5t29 58.5l10.5 23.5l27.5 -52.5l36 -67.5t41.5 -72t45.5 -65.5t47.5 -47.5t48 -18q16 0 36.5 17.5t38 39t28.5 39.5t9 20q-3 2 -7.5 -3.5t-11.5 -12.5t-15.5 -13t-19.5 -6 q-25 0 -54.5 23.5t-58.5 59t-56 76.5t-47.5 76.5t-33 59l-12.5 23.5l39 60t53.5 70.5t69.5 59t88 24.5q27 0 35.5 -8t9 -17.5t-2 -17.5t0.5 -8t11 18.5t15.5 41.5t13.5 44t6 26q0 3 -4.5 5.5t-11.5 4.5t-14 3.5t-13 1.5q-28 0 -57 -15t-58.5 -39t-57.5 -55t-53 -63 t-45.5 -62t-34.5 -53l-10 20.5l-25 51.5l-33.5 67.5t-36.5 67.5t-32.5 51.5t-21.5 20.5q-14 0 -38 -15.5t-47.5 -35t-41 -37t-17.5 -21.5q0 -3 6.5 0.5t17 8.5t24.5 10t29 5q18 0 41.5 -29t48.5 -71t49 -88.5l43 -82.5l-12.5 -25l-31 -59.5t-41.5 -71t-44 -59.5t-38 -25 q-26 0 -41.5 11t-24 27t-11 35t-2.5 35v27t-2 11q-4 0 -21 -16.5t-36 -38t-34 -41t-15 -25.5z" />
<glyph glyph-name="Y" unicode="Y" horiz-adv-x="632" d="M97 474q0 51 18 85.5t41.5 55t45 29t28.5 8.5q11 0 33 -26t49.5 -65t56 -84l52.5 -84l39 -65l15 -26q-21 -40 -46 -82l-47 -80.5t-36.5 -70.5t-14.5 -51q0 -20 18.5 -27t41 -7.5t41.5 3t19 5.5q0 3 -4 7t-8.5 10t-8.5 16t-4 25q0 39 22.5 93.5t56 116t73 125.5l73 121.5 t56 104.5t22.5 74q0 2 -20 3t-45 1q-24 0 -45 -1.5t-22 -4.5q-2 -3 3 -6.5l12 -8.5t12.5 -11.5t5.5 -14.5q0 -10 -13.5 -43l-31.5 -73.5l-37.5 -81l-32 -65.5l-13.5 -27q-8 13 -23.5 44l-35 70l-40.5 81t-40 76.5t-33 56.5t-20 22q-21 0 -52 -13t-64.5 -34t-67.5 -47.5 t-60.5 -53.5t-43.5 -52t-17 -43q0 -8 18 -15.5t39.5 -13t39.5 -7.5t18 2q0 3 -3.5 7t-8 10t-8 13.5t-3.5 18.5z" />
<glyph glyph-name="Z" unicode="Z" horiz-adv-x="712" d="M5 -39q2 -3 20 5l49.5 21t74.5 28.5t95 29t111.5 23t124.5 9.5q30 0 46 -5.5t23.5 -14.5t8 -19t-1 -19.5t-3 -16t1.5 -7.5q2 -1 18 20t35 49t34 56.5t15 43.5q0 5 -9.5 8t-23 5t-28.5 2.5t-26 0.5q-58 0 -118.5 -9.5t-118 -24t-109.5 -31l-92 -29.5l29.5 29l75.5 74 l103.5 101.5l112 110.5l102 101.5l73 74.5t25.5 29q-69 0 -128.5 15.5t-112 34l-100 34t-91.5 15.5q-11 0 -24 -9.5t-27 -24t-26.5 -32l-22 -32t-15 -25t-3.5 -11.5q3 -2 9 2.5t16 10.5t22 11.5t27 5.5q48 0 88 -11t77.5 -24t76.5 -24t87 -11q1 0 -20.5 -23.5l-57.5 -62.5 l-82.5 -89l-94.5 -102.5l-94 -103l-80.5 -91.5t-54.5 -67.5t-17 -30.5z" />
<glyph glyph-name="bracketleft" unicode="[" horiz-adv-x="333" d="M214 -50l72 50h-154v658h68l80 60h-160l-100 -50v-718h194z" />
<glyph glyph-name="backslash" unicode="\" horiz-adv-x="498" d="M398 -6l17 -2.5t19 -1t14 3t2 8.5l-343 686q-7 14 -21 19t-30 7l-15.5 2.5t-17 2t-12 -1t-1.5 -7.5l348 -696q5 -11 16.5 -14.5t23.5 -5.5z" />
<glyph glyph-name="bracketright" unicode="]" horiz-adv-x="333" d="M0 0l72 -50h194v718l-100 50h-160l80 -60h68v-658h-154z" />
<glyph glyph-name="asciicircum" unicode="^" horiz-adv-x="488" d="M122 416q-4 -5 9.5 3.5t34.5 23.5l44 31.5l38 27.5t16 12l80 -66l54 54l-88 88l-13 -12t-34 -28t-46.5 -33t-50.5 -27l-7 -13.5t-17 -29.5t-20 -31z" />
<glyph glyph-name="underscore" unicode="_" horiz-adv-x="400" d="M3 -60h399q12 0 20 5t16 15q3 3 10.5 6.5l13.5 6.5t7.5 5t-8.5 2h-395q-11 0 -19.5 -6.5t-14.5 -13.5q-3 -4 -10 -7.5l-13 -6.5t-8.5 -4.5t2.5 -1.5z" />
<glyph glyph-name="grave" unicode="`" horiz-adv-x="300" d="M242 424q1 1 -9 12.5t-25.5 31t-32 45t-27.5 55.5l-14 1.5t-30.5 2.5t-30.5 2l-14 1q6 -14 21.5 -30.5t35.5 -34t41.5 -33.5t40 -28t31 -19t13.5 -6z" />
<glyph glyph-name="a" unicode="a" d="M5 19q0 -15 14.5 -19.5t35 -2t42.5 10t37 15.5q25 15 52.5 42.5t49.5 53l36 41.5t13 7l-25 -160q-1 -7 16 -8t40.5 2t48 7.5t39.5 9t14.5 6t-27.5 -1.5q-13 -2 -20 7.5t-10 22.5t-3.5 27.5t-0.5 23.5q0 50 9 100t22 91.5t28 70t26 36.5q-9 0 -44.5 -9.5t-84 -29 t-103 -50.5t-100 -73.5t-75.5 -97t-30 -122.5zM106 61q0 52 13.5 92.5t34.5 71.5t46.5 52.5t48.5 35t40.5 19.5t23.5 6l-19 -122q-9 -16 -26 -38t-38 -45t-43 -44t-40 -33t-30 -12q-11 0 -11 17z" />
<glyph glyph-name="b" unicode="b" horiz-adv-x="418" d="M4 42q-2 -9 11.5 -18t31.5 -16.5t36 -12t25 -4.5q2 0 22.5 4t50 15t63 31.5t62 53t47.5 79.5t19 112q0 11 -1 30t-3.5 37t-6.5 31t-11 13q-24 0 -59 -24.5t-71.5 -63.5t-71 -88t-57.5 -98q0 8 6.5 46.5t18 93.5t27 121t33 128.5t36.5 115.5t38 83l-17.5 1.5t-38.5 2 t-39 -1.5t-19 -8zM96 100q0 6 10 24.5t25.5 42t35 50t38 48t34 36t24.5 14.5q5 0 8 -5.5t5 -14t2.5 -18.5t0.5 -19q0 -29 -6 -63t-16 -64t-22.5 -50.5t-24.5 -23.5q-20 -5 -40.5 -0.5t-37 12.5t-26.5 17t-10 14z" />
<glyph glyph-name="c" unicode="c" horiz-adv-x="354" d="M123 -12q15 0 44.5 12t59 28t51 30t21.5 19q0 2 -8 -3t-21 -11.5t-28.5 -12t-30.5 -5.5q-40 0 -59.5 39t-19.5 99q0 27 5 54t13 48.5t17.5 35t17.5 13.5q6 0 20 -5.5t28.5 -14.5t25.5 -21t11 -25q0 -5 -3 -13t-6.5 -15.5t-6.5 -12.5t-2 -5t14 15.5t29 36.5t29 42.5 t13 33.5q0 10 -9.5 18.5t-22 14t-25 8.5t-19.5 3q-9 0 -36 -10.5t-59.5 -27.5t-62.5 -37.5t-45 -41.5q-14 -20 -23 -60t-9 -87q0 -31 10 -57t25 -45t32 -29.5t30 -10.5z" />
<glyph glyph-name="d" unicode="d" horiz-adv-x="378" d="M136 -10q13 0 32.5 11.5t41 30.5t43 44.5t38.5 52.5t28 55t11 53q0 54 -26.5 114.5t-64 121t-78.5 117.5t-71 105q-5 9 -6.5 16.5t-6.5 7.5q-3 0 -14.5 -12t-23.5 -26.5t-21 -27t-8 -13.5q18 -19 45.5 -51.5l54.5 -67l52.5 -66.5l40 -51t15.5 -21q-4 0 -20 -5.5 t-38.5 -17t-47.5 -29.5t-46.5 -44t-35.5 -60.5t-14 -77.5q0 -33 9 -61.5t25.5 -50.5t38 -34.5t47.5 -12.5zM190 55q-10 0 -24 5t-27 18.5t-22 38.5t-9 66q0 52 16.5 88.5t37 59.5t39 33.5t22.5 10.5l12.5 -15t28 -38t28 -51t12.5 -54q0 -25 -13.5 -53.5t-32 -52.5t-37.5 -40 t-31 -16z" />
<glyph glyph-name="e" unicode="e" horiz-adv-x="406" d="M20 152q0 -23 7.5 -51.5t22 -53.5t34.5 -42t45 -17q31 0 66 16t63.5 35t45 34.5t10.5 13.5q-7 -2 -20 -10l-28 -17t-30 -16t-27 -7q-21 0 -37.5 15.5t-28 36.5t-17.5 41.5t-6 30.5q2 0 21 7.5l46.5 19l59.5 26t58.5 28.5t44.5 26t18 18q0 7 -10.5 25t-27 36.5t-37 32.5 t-41.5 14q-29 0 -68.5 -19t-76 -51.5t-62 -76.5t-25.5 -95zM118 177q-3 40 5 72t20 55t25.5 35.5t22.5 12.5t22.5 -12.5t25.5 -29.5t18.5 -34.5t-0.5 -27.5q-8 -12 -31 -25t-47 -23.5t-42.5 -16.5z" />
<glyph glyph-name="f" unicode="f" horiz-adv-x="378" d="M-37 -206q-6 -22 9.5 -28.5t40 -3.5t54 12.5t52.5 19.5q9 4 2 1.5t-18.5 -0.5t-20.5 13.5t-3 44.5l94 491l18.5 4.5l43 10.5l49.5 12.5t39 11.5q27 10 24.5 11t-20.5 1h-143l49 213q6 26 15.5 42.5t22 25.5t27 12.5t28.5 3.5q27 0 52.5 -7.5t44.5 -19.5t26.5 -28 t-1.5 -33q-2 -4 5 0t19 12t26.5 19t26 21t18.5 17.5t4 9.5q-37 20 -71.5 27.5t-72.5 7.5q-35 0 -67 -6t-58.5 -18t-45 -29t-25.5 -39l-78 -231h-16l-9.5 -4l-23 -10l-29 -13t-26.5 -13q-6 -3 6.5 -6t29.5 -5t32.5 -3.5l15.5 -1.5z" />
<glyph glyph-name="g" unicode="g" horiz-adv-x="405" d="M9 80q0 -8 1.5 -22.5t6 -29.5t12 -26t19.5 -11q25 0 58.5 19t64.5 41.5t52.5 41.5l21.5 19q0 -14 4 -38l9 -52.5t9 -58t4 -53.5q0 -30 -7 -57t-19.5 -46.5t-30 -31t-39.5 -11.5q-26 0 -56.5 14t-56.5 35.5t-43.5 48t-17.5 52.5q0 18 7.5 30t15.5 19.5t13 10.5t1 3 q-12 0 -36 -9.5t-47.5 -22.5t-41 -26.5t-17.5 -20.5q0 -29 25 -56.5t63 -49t81.5 -35t81.5 -13.5q41 0 70 20t49 51.5t31.5 69t17.5 73t8 64t2 40.5q0 43 -1.5 64t-3.5 34.5t-3.5 26.5t-1.5 40q0 44 13.5 75t27.5 51t23 29.5t0 9.5q-7 0 -37.5 -8.5t-71.5 -25t-87 -42.5 t-84.5 -60.5t-64 -78.5t-25.5 -97zM108 123q0 62 21.5 101.5t48 62t50.5 31t29 8.5q-1 -2 -5.5 -13.5t-9.5 -36.5t-5 -55q0 -35 2.5 -61.5l2.5 -26.5q-6 -8 -20.5 -21t-31.5 -25t-35 -21t-32 -9q-4 0 -6.5 6t-4.5 16t-3 21.5t-1 22.5z" />
<glyph glyph-name="h" unicode="h" horiz-adv-x="442" d="M19 -4q-2 -15 13 2.5t39.5 52.5l56 80.5t62.5 85.5t57.5 67.5t41.5 27.5q7 0 5.5 -17.5t-8.5 -45.5t-17 -62.5t-19 -69.5t-15.5 -66.5t-6.5 -52.5q0 -4 11.5 -3t28 5t36.5 10.5t36.5 13t28 11.5t11.5 7q0 3 -7 -0.5t-15.5 -2t-15.5 14t-7 47.5q0 42 10.5 93l20.5 95.5 t14.5 74t-6.5 29.5q-18 0 -41.5 -10.5t-57 -40.5t-78 -83t-103.5 -137q24 72 46 146.5l41.5 146.5l36 138l29.5 121q2 10 8 19.5l10 15.5t2.5 8.5t-14.5 -1.5q-27 -8 -47.5 -10.5t-35 -4t-21.5 -3t-7 -6.5q0 -72 -14.5 -158t-34.5 -177.5l-41 -184t-33 -176.5z" />
<glyph glyph-name="i" unicode="i" horiz-adv-x="260" d="M17 77q0 -35 17 -60.5t58 -25.5q23 0 46 6.5t42 14.5t30.5 15.5t11.5 9.5q-1 0 -8.5 -2.5t-20 -5t-23.5 -2.5t-22 4.5t-20.5 15t-15.5 28t-6 43.5q0 37 12 80t27 81l27 67.5t12 39.5q0 1 -14 0t-30.5 -2.5t-30 -3l-13.5 -1.5q0 -16 -12.5 -53.5l-27 -82.5t-27 -90 t-12.5 -76zM140 465q26 0 55 14.5t54 32.5t41 33t16 16t-7.5 -1t-20.5 -5t-30.5 -5.5t-38.5 -2.5q-22 0 -30.5 2.5t-14.5 2.5q-3 0 -9 -13.5t-11 -30t-7 -30t3 -13.5z" />
<glyph glyph-name="j" unicode="j" horiz-adv-x="241" d="M-165 -246q9 -2 33 7.5t53.5 26t60 39t52.5 48.5q39 45 61.5 107t40 131l34.5 139.5t46 133.5q1 3 -15.5 2t-36.5 -4t-37 -6.5t-17 -4.5q-13 -44 -23.5 -102l-22.5 -121t-28.5 -127t-40.5 -119q-17 -38 -46 -66t-56 -46.5t-45 -27.5t-13 -10zM159 465q26 0 55 14.5 t54 32.5t41 33t16 16t-7.5 -1t-20.5 -5t-30.5 -5.5t-38.5 -2.5q-22 0 -30.5 2.5t-14.5 2.5q-3 0 -9 -13.5t-11 -30t-7 -30t3 -13.5z" />
<glyph glyph-name="k" unicode="k" horiz-adv-x="442" d="M18 -6q-1 -5 10 3t26 20.5t28.5 25.5t16.5 19q6 9 11.5 26.5t10 34.5t7 29.5l2.5 12.5q53 -33 85.5 -64t50.5 -54t25 -37t10 -13q20 6 44.5 7t45.5 -0.5t35 -4t14 -1.5q-45 55 -93.5 88.5t-89.5 52t-68.5 25t-29.5 7.5q26 10 67 23.5t79.5 31.5t66 42.5t27.5 57.5 q0 9 -3.5 21t-9.5 22t-13.5 17t-16.5 7q-21 0 -45.5 -16t-49.5 -40t-48 -52l-41 -51.5t-28.5 -38.5t-10.5 -13l27 99l27.5 97.5l30 102.5l33.5 113q12 38 24.5 62.5t22 39t13.5 19.5t-3 3q-19 -6 -41 -8t-41 -3t-32 -2t-13 -3q-17 -96 -37 -189.5t-42 -183.5l-43.5 -174.5z M143 174q0 2 8.5 13.5t22 27.5l29.5 33.5t32 32.5t30 25t22 10q10 0 13 -13.5t3 -24.5q0 -15 -17 -30.5t-42 -29t-52.5 -25t-48.5 -19.5z" />
<glyph glyph-name="l" unicode="l" horiz-adv-x="300" d="M27 62q-7 -29 14 -48.5t58.5 -23.5t85 10t93.5 52q6 5 -4.5 1t-30.5 -7.5t-45 -2t-46 16.5q-23 16 -28 56.5t2 95t23 117t35 122.5t39 111.5t35 84.5q9 20 19.5 34l17.5 23t9 12.5t-6 1.5q-13 -3 -35 -6.5t-43 -6t-36.5 -4l-15.5 -1.5q-17 -48 -33.5 -123l-34 -162 l-35.5 -179t-38 -174z" />
<glyph glyph-name="m" unicode="m" horiz-adv-x="650" d="M75 336q2 -17 -1.5 -52.5t-9 -78t-12 -86t-11 -77t-5.5 -51t4 -7.5q33 64 77.5 123.5t84.5 103.5t68 67t28 14q-2 -41 -10 -81.5t-18.5 -79.5t-21.5 -74t-18 -64q-1 -5 11.5 2t28.5 18.5t30.5 24t18.5 20.5q1 3 7 25.5l13 48.5l12.5 48t7.5 25q16 26 39.5 50.5t45.5 41 t37.5 23t15.5 -2.5q0 -32 -7 -67.5t-17 -71t-20.5 -68t-17 -57.5t-7 -40t9.5 -15q21 0 47.5 10t48 21t34 20t5.5 7q-8 -2 -17 -2t-16.5 3t-12.5 9t-4 14q1 16 9 46l17.5 65l19.5 71t15 65.5t4.5 48t-12.5 18.5q-16 0 -43.5 -13.5t-58 -34.5t-59 -47t-47.5 -51l4 16t8 37 t6.5 42.5t-0.5 32.5q-3 14 -19 10t-39 -20.5t-51.5 -43t-57 -57.5t-55 -63.5t-45.5 -61.5q-3 -4 -0.5 9t8.5 36l13.5 52.5l14.5 58t13.5 52.5t8.5 36q0 1 -10.5 -1.5t-27 -7t-34.5 -10.5l-33 -11t-23 -8.5t-4 -3.5q9 0 19 1.5t11 -7.5z" />
<glyph glyph-name="n" unicode="n" horiz-adv-x="484" d="M59 336q2 -17 -1.5 -52t-9.5 -77l-12.5 -84.5t-11 -75t-5 -49t5.5 -6.5q19 32 48.5 74t62.5 84.5l66 81t59.5 64.5t43.5 35t17 -7q1 -32 -6 -69t-17 -73t-20.5 -69.5t-17.5 -59t-7.5 -40.5t9.5 -15q23 0 51.5 10t52 21t37 20t6.5 7q-16 -5 -33 1t-17 23q0 19 7 50 t17 66.5l19.5 71t14.5 64.5t3 47.5t-16 18.5q-35 0 -74.5 -23.5t-78.5 -59.5t-75 -79t-63 -82q-3 -4 -1 8t7 33.5l11.5 49l13 54.5l12 50l8.5 35q0 1 -11 -1.5t-27.5 -7t-35.5 -10.5l-34 -11t-23.5 -8.5t-4.5 -3.5q9 0 19 1.5t11 -7.5z" />
<glyph glyph-name="o" unicode="o" horiz-adv-x="420" d="M2 121q0 -26 9 -50t25.5 -42t39 -29t49.5 -11q10 0 32.5 9t50 25t56.5 37t53 46t39.5 51.5t15.5 53.5q0 33 -10 66.5t-29.5 60t-47.5 43.5t-63 17q-8 0 -33 -11.5t-50.5 -25t-42 -23t-7.5 -6.5q23 8 43.5 6.5t31.5 -5.5t12 -5q-1 0 -14.5 -7t-33 -20t-41.5 -31.5 t-41 -41.5t-31.5 -50t-12.5 -57zM196 30q-3 0 -20 10t-36.5 29.5t-35 47t-15.5 63.5q0 33 13 59.5t30 45t33 28.5t22 10q5 0 21.5 -15.5t34 -39.5t31 -54t13.5 -59q0 -32 -13 -55t-29.5 -39t-31 -23.5t-17.5 -7.5z" />
<glyph glyph-name="p" unicode="p" horiz-adv-x="417" d="M-50 -231q-3 -10 9 -13t30.5 -1t40.5 6.5t40 9.5t27.5 9t3.5 4q-7 0 -15.5 -2t-16 -1.5t-11.5 5t-2 16.5q8 51 20 96t19 92q2 1 27 12t64.5 32.5t78.5 47.5t69 56.5t35 60.5q5 28 4 64t-6 66.5t-13.5 49.5t-17.5 15q-27 -12 -56 -38t-54.5 -55.5t-47.5 -58t-33.5 -46 t-12.5 -18.5q8 41 17.5 85t19.5 84.5t20 74.5t19 55q4 9 -1 6.5t-14 -10.5l-20.5 -18.5t-20.5 -17.5q-8 -6 -25.5 -20.5l-34.5 -29.5l-30 -27.5t-12 -13.5q1 -2 13 8l25 21t23 17.5t9 -0.5q-11 -74 -32 -154.5t-45 -161.5l-49 -159.5t-44 -147.5zM97 2l30 149q1 2 14 21 l33.5 47.5t41 53t37.5 37.5t21 0q10 -30 13.5 -72.5t-10.5 -86.5q-11 -32 -40.5 -59.5t-60.5 -47.5t-55 -31z" />
<glyph glyph-name="q" unicode="q" d="M3 16q0 -15 17 -20t39 -4t44 6.5t31 11.5q23 15 50.5 44.5l51 56.5l39 44t14.5 8l-65 -408q-1 -7 16 -8t40.5 1.5t48 7t39.5 9t14.5 6.5t-27.5 -1q-12 -1 -18 19.5t-7 55.5t2 81.5t9 96t13.5 99.5t15.5 93q12 63 26 99t26 54t18 22t2 3q-37 -8 -84 -22.5t-95.5 -37.5 t-95 -53.5t-83 -69.5t-59 -87.5t-22.5 -106.5zM109 39q-4 43 7 88.5t36.5 86t65.5 71.5t95 45l-2 -18t-5.5 -40t-7 -41.5t-4.5 -22.5q-9 -16 -25.5 -37.5t-37 -43.5l-41.5 -42.5t-39 -34.5t-29.5 -18t-12.5 7z" />
<glyph glyph-name="r" unicode="r" horiz-adv-x="434" d="M11 -10q29 18 52 39t40 33l4.5 11t9.5 24.5l9 24.5l4 11q12 22 35 54t48.5 61t50 49t39.5 19q12 -1 30.5 4t39.5 13.5t43 20t41 24.5h-18t-40.5 3t-42.5 13q-5 2 -27.5 -13.5t-53 -44t-65 -66.5t-62.5 -80l6.5 16.5l16 42t19.5 55.5t16 56q1 6 7 13l11 13l7.5 9t-3.5 1 q-26 -9 -49 -13.5t-41 -6.5t-29 -2h-10q-15 -109 -32 -183.5t-31 -120t-21.5 -64t-3.5 -16.5z" />
<glyph glyph-name="s" unicode="s" horiz-adv-x="402" d="M103 109l-11 -7t-26.5 -15.5t-33.5 -16.5t-32 -10l3.5 -10.5t13 -23.5t25 -23.5t39.5 -11.5q16 -1 40 7t50.5 22t53.5 32.5t48.5 39t34.5 42.5t13 42q0 21 -13.5 37t-32.5 29t-40 23.5t-37 21t-23 21.5t2 25q7 11 25.5 16.5t37.5 6t34.5 -3t18.5 -9.5t0 -11t-7.5 -9 l-8 -7t-1.5 -5q1 -2 18 9t36 25.5l35 26.5l16 12q-21 6 -52 5t-65.5 -7.5t-69 -16.5t-62 -23t-45 -27.5t-17.5 -28.5q0 -17 11.5 -30t29 -24.5t37.5 -22.5t37.5 -22.5t28.5 -25.5t10 -32q-2 -30 -13 -50t-26.5 -30.5t-32.5 -11.5t-30 6.5t-19 24t0 41.5z" />
<glyph glyph-name="t" unicode="t" horiz-adv-x="408" d="M51 113q-8 -29 1.5 -52.5t31.5 -39t54 -22.5t69 -3.5t76.5 19t75.5 44.5q1 1 -13 -4.5t-37.5 -9t-54 -0.5t-62.5 21q-38 21 -44 55t4 73t28 79t29 73l19 3.5t48 10t64 16.5t67 24q-1 0 -15 -1.5t-37.5 -3t-47.5 -2.5t-45.5 -1.5t-32.5 1.5q1 1 7 11.5t17.5 29t24.5 36.5 q3 4 -7.5 1.5l-28.5 -6.5t-42.5 -8t-50.5 -4q0 -1 -2 -9.5t-5.5 -21.5t-6.5 -22q-1 0 -6.5 0.5t-12.5 1t-8 -0.5q-15 -15 -37 -28.5t-36.5 -20.5l-16.5 -8q4 -6 19.5 -7.5t32.5 -1t30.5 1.5l13.5 1z" />
<glyph glyph-name="u" unicode="u" horiz-adv-x="482" d="M382 50q-2 17 1.5 52t9.5 77l12.5 84.5t11 75t5 49t-5.5 6.5q-19 -33 -48.5 -74.5l-62.5 -84l-66 -81t-59.5 -64.5t-43.5 -35t-17 7q-1 32 6 69t17 73t20.5 69.5t17.5 59t7.5 40.5t-9.5 15q-23 0 -51.5 -10t-52 -21t-37 -20t-6.5 -7q16 5 33 -1t17 -23q0 -19 -7 -50 t-17 -66.5l-19.5 -71t-14.5 -64.5t-3 -47.5t16 -18.5q35 0 74.5 23.5t78.5 59.5t75 79t63 82q3 4 1 -8t-7 -33.5l-11.5 -49l-13 -54.5l-12.5 -50t-8 -35q0 -1 11 1.5t27.5 7t35.5 10.5l34 11t23.5 8.5t4.5 3.5q-9 0 -19 -1.5t-11 7.5z" />
<glyph glyph-name="v" unicode="v" horiz-adv-x="484" d="M190 -10q5 0 21.5 19t40 51.5l52 74l57.5 86.5l56 90t48 83.5t32.5 67.5t10.5 42q-2 22 -20 26t-41 -1.5t-47.5 -16.5t-39.5 -19t-16 -9q14 1 30.5 0t30.5 -7t22.5 -18.5t7.5 -32.5q-1 -18 -14 -50.5t-32 -70.5t-42.5 -77t-46 -71t-42 -51.5t-30.5 -18.5q-12 1 -22 18 t-17.5 44t-13 60.5t-8 67.5t-3 65.5t1.5 53.5l-10 -3.5t-26.5 -8t-37.5 -9.5t-42 -7l8 -28l20.5 -70t28.5 -91t31.5 -91t29 -70t22.5 -28z" />
<glyph glyph-name="w" unicode="w" horiz-adv-x="720" d="M196 -10q8 0 24 25t34.5 59.5l36.5 70.5t28.5 59t11.5 25q1 -2 8 -25t19 -59t25 -70.5t26 -59.5t21 -25q5 0 21.5 19t40 51.5l52 74l57.5 86.5l56 90t48 83.5t32.5 67.5t10.5 42q-2 22 -20 26t-41 -1.5t-47.5 -16.5t-39.5 -19t-16 -9q14 1 30.5 0t30.5 -7t22.5 -18.5 t7.5 -32.5q-1 -18 -14 -50.5t-32 -70.5t-42.5 -77t-46 -71t-42 -51.5t-30.5 -18.5q-12 1 -22 18t-17.5 44t-13 60.5t-8 67.5t-3 65.5t1.5 53.5l-10 -3.5t-26.5 -8t-37.5 -9.5t-42 -7l3 -11l7.5 -28t10.5 -36.5t12 -35.5q1 -3 -4.5 -16.5t-14.5 -32.5l-20 -40.5l-21 -39.5 t-18 -29.5t-11 -11.5t-9 17t-13.5 44t-15.5 60.5t-14 68t-9 66t-1 53.5l-10 -3.5t-26.5 -8t-37.5 -9.5t-42 -7l8 -28l20.5 -70t28.5 -91t31.5 -91t29 -70t22.5 -28z" />
<glyph glyph-name="x" unicode="x" horiz-adv-x="457" d="M-2 72l4 -12.5t11.5 -27.5t18 -28t22.5 -14q13 -1 31.5 13.5t37.5 35t36 42t27 35.5t11 15q4 -3 12 -23.5l18 -45t21 -46t22 -26.5q2 -1 14 3t28 10.5t33.5 15t32 16.5t23.5 15.5t7 11.5t-9.5 0l-17.5 -9.5t-20 -9.5t-17 -1q-8 4 -19 26.5t-22.5 51t-21.5 57t-15 45.5 q1 1 12.5 14t30.5 31t37 32t32 17.5t16 -12.5q0 -2 9.5 10l21 27.5l21 28.5l9.5 13q-5 10 -26 0.5t-49.5 -32t-61 -53.5t-60.5 -64l-7.5 19.5t-20.5 45.5t-30.5 53t-36.5 42q-5 4 -16 -2.5t-25 -18l-29.5 -25t-30.5 -24.5q1 0 9.5 2t19.5 2t15 -6q13 -19 28 -49t27.5 -58 t20.5 -48.5l8 -20.5l-20 -25t-22.5 -25.5t-23 -18.5t-23 -3t-22 20.5t-19.5 51.5q-1 -2 -10 -16t-24 -32.5t-28 -25.5z" />
<glyph glyph-name="y" unicode="y" horiz-adv-x="500" d="M-125 -72q-4 -4 5 -19.5t25 -37t36.5 -45t40 -43t35 -32t21.5 -11.5q60 14 103.5 33.5t75 46.5t53.5 64t41 87t37 114l40 146q10 36 28.5 66t36.5 51.5t30.5 33t8.5 10.5q-21 -4 -46.5 -8t-47.5 -7t-37 -4.5l-15 -1.5q-11 -24 -20.5 -53t-16 -55t-10.5 -43.5l-4 -17.5 q-14 -24 -34 -49t-40.5 -45.5t-37.5 -32.5t-25 -11q-9 1 -13.5 19.5t-6 48t0 65.5t5.5 72.5t10 70t14 56.5q1 2 -17.5 0t-40.5 -6t-40.5 -8.5t-18.5 -7.5q4 -22 6 -59t3 -80.5l2 -88.5t3.5 -81t7 -59.5t12.5 -23.5q17 -1 43.5 18.5t54 46t52.5 55l40 46.5t16 20 q-8 -29 -14 -66.5t-13.5 -77.5t-17.5 -80t-27 -73t-41.5 -56.5t-60.5 -30.5q-12 -2 -33 6t-43.5 27t-42.5 48.5t-31 70.5q-3 12 4.5 22.5t16.5 17.5t14.5 10t-2.5 0q-30 -10 -48 -15t-30.5 -10t-22.5 -12t-24 -21z" />
<glyph glyph-name="z" unicode="z" horiz-adv-x="432" d="M-22 2q22 3 56.5 0l73 -6.5t78 -6t71.5 0.5q13 1 34 21.5t41 45t34.5 44.5l14.5 20q-28 -34 -72 -46t-90 -13.5t-87 2.5t-62 4q1 1 19.5 18l51 46.5l69.5 64l74.5 69.5l67.5 63.5l48 46t16 17.5q-22 -6 -58.5 -8t-74 -1.5t-69.5 3t-47 6.5l-10.5 -14.5l-22.5 -31.5 t-20.5 -31.5t-3.5 -15.5q16 -3 50 3t68.5 13.5t59 13.5t21.5 3l-45.5 -43.5l-67 -66.5l-75.5 -76l-70.5 -71l-52 -53z" />
<glyph glyph-name="braceleft" unicode="{" horiz-adv-x="248" d="M32 356l9.5 5.5t23.5 16.5t30 28.5t28 41.5q11 21 14 47.5t4.5 55l3 58.5t9.5 59q3 11 12.5 19.5t20 15.5l17.5 12t6 10q-1 2 -13.5 -0.5t-29 -7t-33 -10t-25.5 -9.5q-27 -13 -35.5 -43t-9 -68t1 -80t-5.5 -79q-4 -23 -13 -35t-18 -18.5t-15.5 -10t-6.5 -9.5 q0 -7 6.5 -10.5t15.5 -10t18 -18t13 -34.5q7 -37 5.5 -79t-1 -80t9 -68t35.5 -43q9 -4 25.5 -9.5t33 -10t29 -7t13.5 -0.5q1 4 -6 9.5t-17.5 12t-20 15.5t-12.5 20q-8 29 -9.5 59l-3 58.5t-4.5 55t-14 47.5q-12 24 -28 41.5t-30 29.5t-23.5 17.5z" />
<glyph glyph-name="bar" unicode="|" horiz-adv-x="171" d="M22 -24q0 -8 4 -7.5t10 5t13 10.5t12 8t12 3t13 2.5t10 4t4 8.5v710q0 6 -3.5 5t-9 -5.5l-12 -10t-11.5 -7.5q-6 -2 -13 -2.5t-13.5 -1.5t-11 -3.5t-4.5 -8.5v-710z" />
<glyph glyph-name="braceright" unicode="}" horiz-adv-x="269" d="M152 448q12 -24 28 -41.5t30 -28.5t23.5 -16.5l9.5 -5.5l-9.5 -5.5t-23.5 -17.5t-30 -29.5t-28 -41.5q-11 -21 -14 -47.5t-4.5 -55l-3 -58.5t-9.5 -59q-3 -11 -12.5 -20t-20 -15.5t-18 -12t-5.5 -9.5q1 -2 13.5 0.5t29 7t33 10t25.5 9.5q27 13 35.5 43t9 68t-1 80t5.5 79 q4 23 13 34.5t18 18t15.5 10t6.5 10.5q0 6 -6.5 9.5t-15.5 10t-18 18.5t-13 35q-7 37 -5.5 79t1 80t-9 68t-35.5 43q-9 4 -25.5 9.5t-33 10t-29 7t-13.5 0.5q-2 -5 5.5 -10l18 -12t20 -15.5t12.5 -19.5q8 -29 9.5 -59l3 -58.5t4.5 -55t14 -47.5z" />
<glyph glyph-name="asciitilde" unicode="~" horiz-adv-x="370" d="M47 456q2 -1 6.5 2.5l10.5 8t13.5 9t14.5 6.5q17 4 34 -3.5t33.5 -17.5t33 -19t32.5 -7q21 2 40 16.5t34 32t23.5 31.5t7.5 15q-2 1 -9 -3.5t-17.5 -10.5t-24 -10.5t-28.5 -4.5t-27.5 8.5t-24.5 18t-23 17t-22 7.5q-21 0 -41 -15t-35.5 -32.5t-24 -32.5t-6.5 -16z" />
<glyph glyph-name="exclamdown" unicode="&#xa1;" horiz-adv-x="260" d="M158 512q0 2 -9.5 -6t-20.5 -19.5t-20.5 -23t-9.5 -15.5q0 -59 -8 -121t-20 -124.5t-26 -124l-26 -118.5q-1 -3 16.5 0.5t38.5 9.5t39 12t18 8q-4 71 0 141t10 136.5l12 128t6 116.5zM196 605q3 1 -1.5 6t-12 12t-15.5 16t-13 18q-1 3 -10 -3.5t-18.5 -15.5t-17.5 -18 t-7 -11q1 -4 8 -13t15.5 -17.5t16.5 -14.5t10 -3q5 6 16 21t29 23z" />
<glyph glyph-name="cent" unicode="&#xa2;" horiz-adv-x="360" d="M187 106l18 18v39l15.5 8.5l34 19.5t33.5 21t15 13q0 1 -7 -2t-16.5 -7.5t-18 -9.5t-11.5 -6q-5 -3 -13 -4t-15 -2t-12 -0.5l-5 0.5v284l9.5 -4t21.5 -11.5t23 -18.5t14 -25q2 -8 -5 -22t-12 -23q-5 -8 6 4t26.5 33l31 44t19.5 36q4 14 -6.5 24t-26.5 16.5t-31.5 8.5 t-22.5 0q-6 -2 -18 -6.5l-20 -7.5t-9 -4v46l-18 -18v-36l-17.5 -9t-40.5 -23t-44.5 -31.5t-29.5 -35.5q-10 -23 -19 -60.5t-7 -77.5t19.5 -77t59.5 -60q12 -6 31.5 -2t32.5 10t15 7v-49zM187 482v-283q-2 0 -13 6.5t-24.5 36t-14.5 89.5q0 43 8 72t17.5 46.5t18 25z" />
<glyph glyph-name="sterling" unicode="&#xa3;" horiz-adv-x="518" d="M0 -6q28 -3 65 1t77.5 10.5t82.5 15l79.5 15.5t68.5 11.5t50 2.5q14 -1 13 -9.5t-6.5 -18.5t-11.5 -19t-3 -11t15.5 13t25.5 37t21.5 46.5t3.5 41.5q-4 12 -28 13.5t-58 -4t-72.5 -15t-71 -18.5t-53.5 -16t-20 -6q21 16 39.5 46t33 63.5t25.5 65t16.5 50t5.5 20.5 q40 2 77.5 11t65 18.5t40.5 17.5t5 8h-172l4 15l11 42.5t15.5 66t17.5 86.5q4 19 19 33t34.5 20t40.5 3.5t36 -14.5q13 -11 12.5 -19.5t-5 -15t-9 -11.5t-1.5 -8q4 -3 14.5 5t24 22t27.5 31t25 32q8 11 -2.5 15t-33.5 1.5t-55 -9t-66.5 -16.5t-68 -21.5t-58.5 -23.5 q-10 -4 -20 -30t-18 -59t-14 -67l-9.5 -55t-3.5 -23h-46q-15 0 -25 -4.5t-19 -11.5l-20 -15t-29 -15q-7 -3 3 -5t30.5 -3t46.5 -1.5t51 0.5q0 -2 -2.5 -21t-8.5 -51t-15.5 -66t-23 -64t-31.5 -45q-9 -7 -20.5 -10.5t-22.5 -5t-19.5 -3t-11.5 -5.5q-12 -14 -28.5 -29.5 t-27 -24.5t-12.5 -10z" />
<glyph glyph-name="currency" unicode="&#xa4;" horiz-adv-x="400" d="M290 255l29 -28l28 28l-28 29q30 40 30 91t-30 91l28 29l-28 28l-29 -28q-40 30 -91 30t-91 -30l-29 28l-28 -28l28 -29q-31 -41 -31 -91t31 -91l-28 -29l28 -28l29 28q41 -31 91 -31t91 31zM121 453q16 16 36.5 24t41.5 8t41.5 -8t36.5 -24t24 -36.5t8 -41.5t-8 -41.5 t-24 -36.5t-36.5 -24t-41.5 -8t-41.5 8t-36.5 24t-24 36.5t-8 41.5t8 41.5t24 36.5z" />
<glyph glyph-name="yen" unicode="&#xa5;" horiz-adv-x="638" d="M367 324h102v60h-80l15 24.5l37.5 61l48.5 79.5l48 79.5l37 61l15 24.5h-111l-160 -280l-160 280h-111l200 -330h-79v-60h102v-60h-102v-60h102v-204h96v204h102v60h-102v60z" />
<glyph glyph-name="brokenbar" unicode="&#xa6;" horiz-adv-x="171" d="M22 -24q0 -8 4 -7.5t10 5t13 10.5t12 8t12 3t13 2.5t10 4t4 8.5v327q0 6 -3.5 5t-9 -5.5l-12 -10t-11.5 -7.5q-6 -2 -13 -2.5t-13.5 -1.5t-11 -3.5t-4.5 -8.5v-327zM22 371q0 -8 4 -7.5t10 5t13 10.5t12 8t12 3t13 2.5t10 4t4 8.5v327q0 6 -3.5 5t-9 -5.5l-12 -10 t-11.5 -7.5q-6 -2 -13 -2.5t-13.5 -1.5t-11 -3.5t-4.5 -8.5v-327z" />
<glyph glyph-name="section" unicode="&#xa7;" horiz-adv-x="440" d="M14 86q0 -9 12 -25.5t28 -32.5t32.5 -28t26.5 -12q54 -3 95.5 19.5t70 53t43 61t15.5 44.5q1 18 -9 36.5t-22.5 33.5t-23 24.5l-10.5 9.5q7 10 20.5 26.5t26.5 37.5t22.5 45t9.5 50q0 30 -19 54.5t-41 45t-39 38.5t-13 35q1 4 10.5 7t23 3.5t27.5 -2.5t24 -10q6 -5 5 -10 t-3 -10.5t-4.5 -9.5t0.5 -6t16 14.5t27 38t23 40t4 21.5q-27 14 -68 4.5t-80 -32t-66.5 -52.5t-27.5 -56q0 -14 7.5 -29t16.5 -27t16.5 -20l7.5 -8l-32 -24.5t-33 -30t-27.5 -36.5t-15.5 -45q-4 -23 11.5 -45t39.5 -43.5t50.5 -42.5t46 -42.5t26 -44t-9.5 -45.5 q-18 -25 -39.5 -23t-42 18.5t-37.5 42t-26 49.5q-3 9 -0.5 16.5t6.5 13.5t7.5 10t1.5 6q-3 3 -20.5 -9t-37.5 -29.5t-36 -36.5t-16 -31zM256 283l-14 9.5t-30 24.5t-29 32.5t-11 33.5q1 14 11 29t18.5 24l9.5 10q12 -10 25.5 -22.5t25 -26t19 -26.5t8.5 -23q2 -14 -9 -32.5 t-24 -32.5z" />
<glyph glyph-name="dieresis" unicode="&#xa8;" horiz-adv-x="312" d="M192 485q-3 -1 1.5 -6t12 -12t15.5 -16t13 -18q1 -3 10 3.5t18.5 15.5t17.5 18t7 11q-1 4 -8 13t-15.5 17.5t-16.5 14.5t-10 3q-5 -6 -16 -21t-29 -23zM28 485q-3 -1 1.5 -6t12 -12t15.5 -16t13 -18q1 -3 10 3.5t18.5 15.5t17.5 18t7 11q-1 4 -8 13t-15.5 17.5 t-16.5 14.5t-10 3q-5 -6 -16 -21t-29 -23z" />
<glyph glyph-name="copyright" unicode="&#xa9;" horiz-adv-x="500" d="M438 438q0 70 -31.5 117t-78 70.5t-101.5 23.5t-101.5 -23.5t-78 -70.5t-31.5 -117t31.5 -117t78 -70.5t101.5 -23.5t101.5 23.5t78 70.5t31.5 117zM108 421q0 -30 13 -50.5t31.5 -34t38 -19.5t32.5 -6t28.5 5t28.5 11t20.5 12.5t5.5 9.5q-1 1 -5 -1l-11 -5.5t-17.5 -6.5 t-25.5 -3q-20 0 -38 9t-32.5 24.5t-23 35t-8.5 40.5t7.5 41t19.5 35.5t27.5 24.5t30.5 9q36 0 52.5 -7.5t22.5 -17t5.5 -17t1.5 -7.5t5 8t6 18t4 18.5t0 8.5q-28 11 -54 11q-30 0 -60 -12t-53 -32t-37.5 -46.5t-14.5 -55.5zM108 596q52 38 102 37.5t90 -25.5t68 -68 t37.5 -90.5t-3.5 -93t-54 -76.5q-46 -34 -94 -33t-90 25t-73 65.5t-42 88t1.5 92.5t57.5 78z" />
<glyph glyph-name="ordfeminine" unicode="&#xaa;" horiz-adv-x="300" d="M67 505q0 -8 7 -10t17.5 -1t21 5t18.5 8q13 7 26.5 20.5t24.5 26.5l18 21t7 4l-13 -80q-1 -4 7.5 -4.5t20.5 1t24.5 4t20 4.5t7 3t-13.5 -1q-6 -1 -9.5 3.5t-5 11.5t-2 14t-0.5 12q0 25 4.5 50t11 46t13.5 35t13 18q-4 0 -22 -4.5t-42 -14.5t-51 -25.5t-50 -36.5 t-38 -48.5t-15 -61.5zM117 526q0 39 14.5 65.5t33 42.5t35 23t21.5 7l-10 -61q-6 -12 -21.5 -30.5t-31.5 -33.5t-28.5 -21t-12.5 8zM34 437h214q7 0 10.5 5.5t7.5 10.5q1 2 5 4.5t7 5t3.5 4t-3.5 1.5h-213q-7 0 -11 -5l-8 -10q-3 -4 -10.5 -10t-1.5 -6z" />
<glyph glyph-name="guillemotleft" unicode="&#xab;" horiz-adv-x="550" d="M494 269l-106 -18q-4 -20 -11.5 -34.5t-23.5 -27.5t-43.5 -25.5t-72.5 -28.5l24.5 -8t57 -23t65 -36.5t49.5 -49.5l96 22q-16 26 -43 47t-53 35.5t-45 22l-19 7.5q32 13 53.5 24.5t35.5 25t22 29.5t14 38zM288 259l-98 -12q-7 -21 -19.5 -40.5t-34.5 -35t-54.5 -28 t-78.5 -19.5l18 -8t47 -22.5t66 -35t75 -44.5l102 23q-32 21 -66 39t-61.5 31t-45 20l-17.5 7q31 5 55.5 13.5t44 23.5t35.5 36.5t32 51.5z" />
<glyph glyph-name="registered" unicode="&#xae;" horiz-adv-x="500" d="M438 438q0 70 -31.5 117t-78 70.5t-101.5 23.5t-101.5 -23.5t-78 -70.5t-31.5 -117t31.5 -117t78 -70.5t101.5 -23.5t101.5 23.5t78 70.5t31.5 117zM216 430q10 -7 28 -22.5t35 -33t29.5 -34t12.5 -25.5q0 -8 -7 -14.5t-5 -8.5q0 -1 5.5 4t12 12.5t12 15.5t5.5 13 q0 12 -10 27t-23.5 29.5t-27.5 27l-23 20.5l12 4.5t26.5 13.5t26.5 22.5t12 31.5q0 27 -21 39.5t-49 12.5t-63 -9.5t-66 -23.5t-52 -30.5t-21 -30.5q0 -4 8.5 -7.5t18 -6t18 -3t8.5 0.5q0 2 -5.5 7t-5.5 15q0 14 12.5 28t31.5 24.5t41.5 17t42.5 6.5q32 0 49 -18.5t17 -36.5 q0 -12 -7.5 -23.5t-19.5 -20t-27 -13.5t-29 -5l3 9.5t7 24.5l8.5 32t7.5 32q2 5 5.5 9t0.5 5q-5 1 -15 -1t-17.5 -4t-8.5 -2q0 -16 -5.5 -41.5l-11.5 -55.5t-11.5 -61t-5.5 -57q0 -8 6 -5.5t13.5 9.5t12.5 14t4 8l-1.5 -1.5t-4 -3t-4.5 -1t-2 5.5q0 7 4 26.5t8 34.5t5 17z M108 596q47 34 94.5 32.5t88 -26.5t70 -67t40.5 -88.5t-0.5 -91.5t-52.5 -75q-40 -30 -85.5 -27t-87.5 27t-74.5 64.5t-46 85.5t-2.5 89.5t56 76.5z" />
<glyph glyph-name="macron" unicode="&#xaf;" horiz-adv-x="417" d="M124 352l-110 -41h270l110 41h-270z" />
<glyph glyph-name="degree" unicode="&#xb0;" horiz-adv-x="294" d="M232 574q0 30 -13.5 50.5t-33.5 30.5t-44 10t-44 -10t-33.5 -30.5t-13.5 -50.5t13.5 -50.5t33.5 -30.5t44 -10t44 10t33.5 30.5t13.5 50.5zM158 510q-18 0 -30 9t-19.5 23.5t-10 31t-1 31t7.5 24t16 10.5q28 1 43 -19t18.5 -44.5t-3 -45t-21.5 -20.5z" />
<glyph glyph-name="uni00B2" unicode="&#xb2;" horiz-adv-x="421" d="M32 383q0 -2 7 1t20.5 7t33 8t43.5 4q10 0 28.5 -1.5t36.5 -5t31 -9t13 -12.5q0 -9 -4.5 -13.5t-1.5 -6.5q1 -1 7 3.5t12.5 12t11.5 17t5 17.5q0 10 -9 16.5t-22.5 10.5t-28.5 5.5t-28 1.5q-25 0 -48 -2.5t-40 -7.5q0 8 17 30.5t46 45.5q19 16 41 31t40 32t30 37.5 t12 49.5q0 26 -15.5 44.5t-50.5 18.5q-25 0 -51 -7t-46 -19t-32 -29t-9 -37q0 -2 10.5 -6t23 -8t22 -6t8.5 0q-8 16 -8 31q0 14 5 26t12.5 20.5t16.5 13.5t16 5t15.5 -3.5t16 -11.5t12.5 -20.5t5 -30.5q0 -31 -15 -54.5t-38 -42.5t-49 -36t-49 -35t-38 -38.5t-15 -46.5z" />
<glyph glyph-name="uni00B3" unicode="&#xb3;" horiz-adv-x="421" d="M113 527q-1 1 -8.5 -3.5t-16.5 -11t-16 -12.5t-7 -8q0 -3 6 -13.5t18 -22.5t30 -21t42 -9q29 0 55.5 12.5t46.5 32t32 41.5t12 42q0 21 -21 37t-56 16q-2 0 9 4.5t25.5 13t27 21t12.5 29.5q0 19 -15 34.5t-39 15.5q-25 0 -47 -9t-38.5 -21t-26.5 -24.5t-10 -19.5t9 -12 t19.5 -8t19.5 -4.5l9 -1.5q0 2 -8.5 8t-8.5 23q0 20 13.5 32t36.5 12q19 0 34.5 -12.5t15.5 -32.5q0 -14 -14 -25t-30.5 -19.5t-30 -13l-13.5 -4.5q-5 -10 -17 -18t-12 -14l5.5 1.5l14.5 4t20.5 4.5t24.5 2q26 0 42.5 -13t16.5 -39q0 -15 -7 -28.5t-17 -23.5t-21.5 -15.5 t-19.5 -5.5q-18 0 -36.5 7t-33.5 17t-24.5 20.5t-9.5 17.5q0 11 4.5 12t2.5 5z" />
<glyph glyph-name="acute" unicode="&#xb4;" horiz-adv-x="300" d="M154 568q-11 -30 -27.5 -55.5t-32 -45t-26 -31t-8.5 -12.5q1 -1 13.5 6t31 19t40 28t41.5 33.5t35.5 34t21.5 30.5l-14 -1t-30.5 -2t-30.5 -2.5z" />
<glyph glyph-name="paragraph" unicode="&#xb6;" horiz-adv-x="584" d="M533 627v63h-266q-44 0 -83.5 -17t-69.5 -46.5t-47.5 -69.5t-17.5 -86q0 -45 18.5 -84.5t49 -69.5t70 -47.5t80.5 -17.5v-418h62v793h86v-793h62v793h56z" />
<glyph glyph-name="uni2219" unicode="&#xb7;" horiz-adv-x="148" d="M28 485q18 8 29 23t16 21q2 3 10 -3t16.5 -14.5t15.5 -17.5t8 -13q1 -2 -7 -11t-17.5 -18t-18.5 -15.5t-10 -3.5q-5 9 -13 18t-15.5 16t-12 12t-1.5 6z" />
<glyph glyph-name="cedilla" unicode="&#xb8;" horiz-adv-x="360" d="M126 0l-43 -2q0 -1 0.5 -7.5t3 -15t6.5 -11.5q14 -10 22.5 -20t0.5 -27q-3 -7 -11 -10.5t-15.5 -5.5t-12.5 -3t-2 -3q14 -12 30.5 -9t27 15t12.5 29t-13 33q-6 6 -10.5 12.5t-6.5 11.5t0 8.5t11 4.5z" />
<glyph glyph-name="uni00B9" unicode="&#xb9;" horiz-adv-x="421" d="M163 445q0 -9 9.5 -9.5t20.5 2.5t20.5 7.5t9.5 5.5t-2 0t-5 -1q-2 0 -4 2t-2 9q0 11 7.5 45.5l17 76t17 82.5t7.5 67q0 7 -14 1.5t-31 -15.5t-31 -20t-14 -12q0 -1 7.5 3t15.5 7t15 1t7 -16q0 -15 -8 -47l-17.5 -68t-17.5 -69.5t-8 -51.5z" />
<glyph glyph-name="ordmasculine" unicode="&#xba;" horiz-adv-x="266" d="M42 437h186q7 0 10.5 5.5t7.5 10.5q1 2 5 4.5t7 5t3.5 4t-3.5 1.5h-185q-7 0 -11 -5l-8 -10q-3 -4 -10.5 -10t-1.5 -6zM75 552q0 -26 17.5 -46.5t44.5 -20.5q8 0 28 10t41 25.5t37.5 35.5t16.5 41q0 16 -5 32.5t-15 30t-23.5 21.5t-31.5 8q-4 0 -16.5 -5.5t-25 -12 t-21 -11.5t-3.5 -4q17 7 30 2.5l13 -4.5q-1 0 -14.5 -8t-29.5 -21.5t-29.5 -32t-13.5 -40.5zM172 505q-2 0 -10 5t-18 15t-17.5 24t-7.5 31q0 16 6.5 29.5t15 23.5t16.5 15t11 5t11 -8t16.5 -20t15.5 -27t7 -29q0 -16 -6.5 -28t-15 -20t-16 -12t-8.5 -4z" />
<glyph glyph-name="guillemotright" unicode="&#xbb;" horiz-adv-x="559" d="M44 11l106 18q4 19 11.5 34t23.5 28t43.5 25.5t72.5 28.5l-24.5 8t-57 23t-65.5 36.5t-49 49.5l-96 -22q16 -26 43 -47t53 -35.5t45 -22l19 -7.5q-32 -13 -53.5 -24.5t-35.5 -25t-22 -29.5t-14 -38zM250 21l98 12q7 21 19.5 40.5t34 35t54 27.5t79.5 20l-18 8t-47 22.5 t-66 35t-75 44.5l-102 -23q32 -21 66 -39t61.5 -31t45 -20l17.5 -7q-32 -5 -56 -13.5t-43.5 -23.5t-35.5 -36.5t-32 -51.5z" />
<glyph glyph-name="onequarter" unicode="&#xbc;" horiz-adv-x="421" d="M163 445q0 -9 9.5 -9.5t20.5 2.5t20.5 7.5t9.5 5.5t-2 0t-5 -1q-2 0 -4 2t-2 9q0 11 7.5 45.5l17 76t17 82.5t7.5 67q0 7 -14 1.5t-31 -15.5t-31 -20t-14 -12q0 -1 7.5 3t15.5 7t15 1t7 -16q0 -15 -8 -47l-17.5 -68t-17.5 -69.5t-8 -51.5zM14 365h292q12 0 17 5.5 t12 10.5q3 2 9 4.5t10.5 5t5.5 4t-6 1.5h-289q-11 0 -17.5 -4.5t-13.5 -10.5q-3 -2 -8 -4.5t-9.5 -5t-6 -4.5t3.5 -2zM20 161l17 -7.5t41.5 -16t53 -16t52.5 -7.5l-3 -14t-6.5 -32.5t-6.5 -37t-3 -27.5q0 -13 13 -13q7 0 15.5 2t16 5t12.5 5.5t5 3.5q0 2 -2.5 1t-5.5 -1 q-2 0 -4.5 2.5t-2.5 10.5q0 17 3.5 39.5t6.5 36t4 15.5q21 0 37 4t26 9t14 8.5t2 3.5q-14 -1 -32.5 0t-29.5 3t-13 2l24 149q2 11 2.5 23.5t-2.5 15.5q-4 2 -17 -5t-23 -15zM72 187q23 20 48.5 38.5l46.5 33l35 23.5l14 9q-2 -28 -6 -54t-8.5 -46.5t-7.5 -32.5l-3 -12 q-9 0 -29 6.5t-40 14t-35 14z" />
<glyph glyph-name="onehalf" unicode="&#xbd;" horiz-adv-x="421" d="M32 -17q0 -2 7 1t20.5 7t33 8t43.5 4q10 0 28.5 -1.5t36.5 -5t31 -9t13 -12.5q0 -9 -4.5 -13.5t-1.5 -6.5q1 -1 7 3.5t12.5 12t11.5 17t5 17.5q0 10 -9 16.5t-22.5 10.5t-28.5 5.5t-28 1.5q-25 0 -48 -2.5t-40 -7.5q0 8 17 30.5t46 45.5q19 16 41 31t40 32t30 37.5 t12 49.5q0 26 -15.5 44.5t-50.5 18.5q-25 0 -51 -7t-46 -19t-32 -29t-9 -37q0 -2 10.5 -6t23 -8t22 -6t8.5 0q-8 16 -8 31q0 14 5 26t12.5 20.5t16.5 13.5t16 5t15.5 -3.5t16 -11.5t12.5 -20.5t5 -30.5q0 -31 -15 -54.5t-38 -42.5t-49 -36t-49 -35t-38 -38.5t-15 -46.5z M163 445q0 -9 9.5 -9.5t20.5 2.5t20.5 7.5t9.5 5.5t-2 0t-5 -1q-2 0 -4 2t-2 9q0 11 7.5 45.5l17 76t17 82.5t7.5 67q0 7 -14 1.5t-31 -15.5t-31 -20t-14 -12q0 -1 7.5 3t15.5 7t15 1t7 -16q0 -15 -8 -47l-17.5 -68t-17.5 -69.5t-8 -51.5zM14 365h292q12 0 17 5.5t12 10.5 q3 2 9 4.5t10.5 5t5.5 4t-6 1.5h-289q-11 0 -17.5 -4.5t-13.5 -10.5q-3 -2 -8 -4.5t-9.5 -5t-6 -4.5t3.5 -2z" />
<glyph glyph-name="threequarters" unicode="&#xbe;" horiz-adv-x="421" d="M14 365h292q12 0 17 5.5t12 10.5q3 2 9 4.5t10.5 5t5.5 4t-6 1.5h-289q-11 0 -17.5 -4.5t-13.5 -10.5q-3 -2 -8 -4.5t-9.5 -5t-6 -4.5t3.5 -2zM20 161l17 -7.5t41.5 -16t53 -16t52.5 -7.5l-3 -14t-6.5 -32.5t-6.5 -37t-3 -27.5q0 -13 13 -13q7 0 15.5 2t16 5t12.5 5.5 t5 3.5q0 2 -2.5 1t-5.5 -1q-2 0 -4.5 2.5t-2.5 10.5q0 17 3.5 39.5t6.5 36t4 15.5q21 0 37 4t26 9t14 8.5t2 3.5q-14 -1 -32.5 0t-29.5 3t-13 2l24 149q2 11 2.5 23.5t-2.5 15.5q-4 2 -17 -5t-23 -15zM72 187q23 20 48.5 38.5l46.5 33l35 23.5l14 9q-2 -28 -6 -54 t-8.5 -46.5t-7.5 -32.5l-3 -12q-9 0 -29 6.5t-40 14t-35 14zM113 527q-1 1 -8.5 -3.5t-16.5 -11t-16 -12.5t-7 -8q0 -3 6 -13.5t18 -22.5t30 -21t42 -9q29 0 55.5 12.5t46.5 32t32 41.5t12 42q0 21 -21 37t-56 16q-2 0 9 4.5t25.5 13t27 21t12.5 29.5q0 19 -15 34.5 t-39 15.5q-25 0 -47 -9t-38.5 -21t-26.5 -24.5t-10 -19.5t9 -12t19.5 -8t19.5 -4.5l9 -1.5q0 2 -8.5 8t-8.5 23q0 20 13.5 32t36.5 12q19 0 34.5 -12.5t15.5 -32.5q0 -14 -14 -25t-30.5 -19.5t-30 -13l-13.5 -4.5q-5 -10 -17 -18t-12 -14l5.5 1.5l14.5 4t20.5 4.5t24.5 2 q26 0 42.5 -13t16.5 -39q0 -15 -7 -28.5t-17 -23.5t-21.5 -15.5t-19.5 -5.5q-18 0 -36.5 7t-33.5 17t-24.5 20.5t-9.5 17.5q0 11 4.5 12t2.5 5z" />
<glyph glyph-name="questiondown" unicode="&#xbf;" horiz-adv-x="508" d="M367 533q-1 10 -16.5 7.5t-34 -9t-33.5 -14l-15 -7.5q14 -71 -6 -126t-88 -96q-55 -33 -93.5 -66t-57.5 -67t-18 -69.5t25 -73.5q25 -40 64 -50.5t84 -2t90.5 32.5t83.5 53q19 15 32.5 40.5t19.5 48.5t4 38.5t-14 11.5q-26 -11 -47.5 -11.5t-38 1.5t-27.5 2.5t-16 -6.5 q-4 -6 6 -14t20 -21.5t12 -34t-18 -51.5q-16 -25 -44.5 -28.5t-58.5 8.5t-54.5 36.5t-32.5 56.5q-8 33 2.5 60t32 49t49.5 40l55.5 34.5l50.5 31t34 30.5q29 42 40.5 86.5t7.5 79.5zM406 621q3 1 -2.5 7t-14.5 14.5t-18.5 18.5t-15.5 21q-2 3 -12 -4.5t-22 -18t-21.5 -20.5 t-8.5 -13q1 -5 10 -16t19.5 -21.5t19.5 -17t12 -3.5q5 7 19 25t35 28z" />
<glyph glyph-name="Agrave" unicode="&#xc0;" horiz-adv-x="1038" d="M14 43q0 -18 21 -30.5t81 -12.5q31 0 67 16t71.5 40t68.5 52t58.5 52t40.5 40l15 16q62 19 112 27t85 10t54 0.5l19 -1.5l22.5 -91.5t28 -100t34 -80.5t42.5 -33q14 0 33 8t40 20.5t41 27t35 27t23 21.5t5 9q-8 1 -22.5 -10.5t-31.5 -17.5t-35 2t-32 48q-12 34 -26 79.5 t-28 97.5l-27.5 106t-23.5 105t-16 95.5t-6 76.5q0 16 6.5 26.5t13.5 16.5t9.5 7t-4.5 0q-18 -4 -43 -9t-48 -10.5t-39 -11t-16 -9.5q0 -30 3 -59.5t6.5 -53t6.5 -38.5l3 -15l-68.5 -73l-68 -74.5l-53.5 -58t-25 -24.5q-45 -15 -93.5 -39.5t-88.5 -48.5t-64.5 -42.5 t-21.5 -21.5t17.5 5.5l41.5 23.5t68 34.5t97 38.5l-11.5 -12.5t-31 -31t-45.5 -40.5t-54.5 -40.5t-58 -31t-56.5 -12.5q-26 0 -44.5 14t-18.5 27q0 9 3.5 15.5t8 11.5t8 8t3.5 5q0 3 -14.5 -2t-31.5 -15.5t-31 -25.5t-14 -33zM484 267q1 1 14 16l35.5 40l46.5 51.5l47 50.5 t38 37l2.5 -13.5l6.5 -35.5t10 -48.5l12 -52.5l-20.5 -3.5t-51.5 -10l-68.5 -14.5t-71.5 -17zM716 696q1 1 -9 12.5t-25.5 31t-32 45t-27.5 55.5l-14 1.5t-30.5 2.5t-30.5 2l-14 1q6 -14 21.5 -30.5t35.5 -34t41.5 -33.5t40 -28t31 -19t13.5 -6z" />
<glyph glyph-name="Aacute" unicode="&#xc1;" horiz-adv-x="1038" d="M14 43q0 -18 21 -30.5t81 -12.5q31 0 67 16t71.5 40t68.5 52t58.5 52t40.5 40l15 16q62 19 112 27t85 10t54 0.5l19 -1.5l22.5 -91.5t28 -100t34 -80.5t42.5 -33q14 0 33 8t40 20.5t41 27t35 27t23 21.5t5 9q-8 1 -22.5 -10.5t-31.5 -17.5t-35 2t-32 48q-12 34 -26 79.5 t-28 97.5l-27.5 106t-23.5 105t-16 95.5t-6 76.5q0 16 6.5 26.5t13.5 16.5t9.5 7t-4.5 0q-18 -4 -43 -9t-48 -10.5t-39 -11t-16 -9.5q0 -30 3 -59.5t6.5 -53t6.5 -38.5l3 -15l-68.5 -73l-68 -74.5l-53.5 -58t-25 -24.5q-45 -15 -93.5 -39.5t-88.5 -48.5t-64.5 -42.5 t-21.5 -21.5t17.5 5.5l41.5 23.5t68 34.5t97 38.5l-11.5 -12.5t-31 -31t-45.5 -40.5t-54.5 -40.5t-58 -31t-56.5 -12.5q-26 0 -44.5 14t-18.5 27q0 9 3.5 15.5t8 11.5t8 8t3.5 5q0 3 -14.5 -2t-31.5 -15.5t-31 -25.5t-14 -33zM484 267q1 1 14 16l35.5 40l46.5 51.5l47 50.5 t38 37l2.5 -13.5l6.5 -35.5t10 -48.5l12 -52.5l-20.5 -3.5t-51.5 -10l-68.5 -14.5t-71.5 -17zM732 836q-11 -30 -27.5 -55.5t-32 -45t-26 -31t-8.5 -12.5q1 -1 13.5 6t31 19t40 28t41.5 33.5t35.5 34t21.5 30.5l-14 -1t-30.5 -2t-30.5 -2.5z" />
<glyph glyph-name="Acircumflex" unicode="&#xc2;" horiz-adv-x="1038" d="M14 43q0 -18 21 -30.5t81 -12.5q31 0 67 16t71.5 40t68.5 52t58.5 52t40.5 40l15 16q62 19 112 27t85 10t54 0.5l19 -1.5l22.5 -91.5t28 -100t34 -80.5t42.5 -33q14 0 33 8t40 20.5t41 27t35 27t23 21.5t5 9q-8 1 -22.5 -10.5t-31.5 -17.5t-35 2t-32 48q-12 34 -26 79.5 t-28 97.5l-27.5 106t-23.5 105t-16 95.5t-6 76.5q0 16 6.5 26.5t13.5 16.5t9.5 7t-4.5 0q-18 -4 -43 -9t-48 -10.5t-39 -11t-16 -9.5q0 -30 3 -59.5t6.5 -53t6.5 -38.5l3 -15l-68.5 -73l-68 -74.5l-53.5 -58t-25 -24.5q-45 -15 -93.5 -39.5t-88.5 -48.5t-64.5 -42.5 t-21.5 -21.5t17.5 5.5l41.5 23.5t68 34.5t97 38.5l-11.5 -12.5t-31 -31t-45.5 -40.5t-54.5 -40.5t-58 -31t-56.5 -12.5q-26 0 -44.5 14t-18.5 27q0 9 3.5 15.5t8 11.5t8 8t3.5 5q0 3 -14.5 -2t-31.5 -15.5t-31 -25.5t-14 -33zM484 267q1 1 14 16l35.5 40l46.5 51.5l47 50.5 t38 37l2.5 -13.5l6.5 -35.5t10 -48.5l12 -52.5l-20.5 -3.5t-51.5 -10l-68.5 -14.5t-71.5 -17zM582 684q-4 -5 9.5 3.5t34.5 23.5l44 31.5l38 27.5t16 12l80 -66l54 54l-88 88l-13 -12t-34 -28t-46.5 -33t-50.5 -27l-7 -13.5t-17 -29.5t-20 -31z" />
<glyph glyph-name="Atilde" unicode="&#xc3;" horiz-adv-x="1038" d="M14 43q0 -18 21 -30.5t81 -12.5q31 0 67 16t71.5 40t68.5 52t58.5 52t40.5 40l15 16q62 19 112 27t85 10t54 0.5l19 -1.5l22.5 -91.5t28 -100t34 -80.5t42.5 -33q14 0 33 8t40 20.5t41 27t35 27t23 21.5t5 9q-8 1 -22.5 -10.5t-31.5 -17.5t-35 2t-32 48q-12 34 -26 79.5 t-28 97.5l-27.5 106t-23.5 105t-16 95.5t-6 76.5q0 16 6.5 26.5t13.5 16.5t9.5 7t-4.5 0q-18 -4 -43 -9t-48 -10.5t-39 -11t-16 -9.5q0 -30 3 -59.5t6.5 -53t6.5 -38.5l3 -15l-68.5 -73l-68 -74.5l-53.5 -58t-25 -24.5q-45 -15 -93.5 -39.5t-88.5 -48.5t-64.5 -42.5 t-21.5 -21.5t17.5 5.5l41.5 23.5t68 34.5t97 38.5l-11.5 -12.5t-31 -31t-45.5 -40.5t-54.5 -40.5t-58 -31t-56.5 -12.5q-26 0 -44.5 14t-18.5 27q0 9 3.5 15.5t8 11.5t8 8t3.5 5q0 3 -14.5 -2t-31.5 -15.5t-31 -25.5t-14 -33zM484 267q1 1 14 16l35.5 40l46.5 51.5l47 50.5 t38 37l2.5 -13.5l6.5 -35.5t10 -48.5l12 -52.5l-20.5 -3.5t-51.5 -10l-68.5 -14.5t-71.5 -17zM509 718q2 -1 6.5 2.5l10.5 8t13.5 9t14.5 6.5q17 4 34 -3.5t33.5 -17.5t33 -19t32.5 -7q21 2 40 16.5t34 32t23.5 31.5t7.5 15q-2 1 -9 -3.5t-17.5 -10.5t-24 -10.5t-28.5 -4.5 t-27.5 8.5t-24.5 18t-23 17t-22 7.5q-21 0 -41 -15t-35.5 -32.5t-24 -32.5t-6.5 -16z" />
<glyph glyph-name="Adieresis" unicode="&#xc4;" horiz-adv-x="1038" d="M14 43q0 -18 21 -30.5t81 -12.5q31 0 67 16t71.5 40t68.5 52t58.5 52t40.5 40l15 16q62 19 112 27t85 10t54 0.5l19 -1.5l22.5 -91.5t28 -100t34 -80.5t42.5 -33q14 0 33 8t40 20.5t41 27t35 27t23 21.5t5 9q-8 1 -22.5 -10.5t-31.5 -17.5t-35 2t-32 48q-12 34 -26 79.5 t-28 97.5l-27.5 106t-23.5 105t-16 95.5t-6 76.5q0 16 6.5 26.5t13.5 16.5t9.5 7t-4.5 0q-18 -4 -43 -9t-48 -10.5t-39 -11t-16 -9.5q0 -30 3 -59.5t6.5 -53t6.5 -38.5l3 -15l-68.5 -73l-68 -74.5l-53.5 -58t-25 -24.5q-45 -15 -93.5 -39.5t-88.5 -48.5t-64.5 -42.5 t-21.5 -21.5t17.5 5.5l41.5 23.5t68 34.5t97 38.5l-11.5 -12.5t-31 -31t-45.5 -40.5t-54.5 -40.5t-58 -31t-56.5 -12.5q-26 0 -44.5 14t-18.5 27q0 9 3.5 15.5t8 11.5t8 8t3.5 5q0 3 -14.5 -2t-31.5 -15.5t-31 -25.5t-14 -33zM484 267q1 1 14 16l35.5 40l46.5 51.5l47 50.5 t38 37l2.5 -13.5l6.5 -35.5t10 -48.5l12 -52.5l-20.5 -3.5t-51.5 -10l-68.5 -14.5t-71.5 -17zM746 767q-3 -1 1.5 -6t12 -12t15.5 -16t13 -18q1 -3 10 3.5t18.5 15.5t17.5 18t7 11q-1 4 -8 13t-15.5 17.5t-16.5 14.5t-10 3q-5 -6 -16 -21t-29 -23zM582 767q-3 -1 1.5 -6 t12 -12t15.5 -16t13 -18q1 -3 10 3.5t18.5 15.5t17.5 18t7 11q-1 4 -8 13t-15.5 17.5t-16.5 14.5t-10 3q-5 -6 -16 -21t-29 -23z" />
<glyph glyph-name="Aring" unicode="&#xc5;" horiz-adv-x="1038" d="M14 43q0 -18 21 -30.5t81 -12.5q31 0 67 16t71.5 40t68.5 52t58.5 52t40.5 40l15 16q62 19 112 27t85 10t54 0.5l19 -1.5l22.5 -91.5t28 -100t34 -80.5t42.5 -33q14 0 33 8t40 20.5t41 27t35 27t23 21.5t5 9q-8 1 -22.5 -10.5t-31.5 -17.5t-35 2t-32 48q-12 34 -26 79.5 t-28 97.5l-27.5 106t-23.5 105t-16 95.5t-6 76.5q0 16 6.5 26.5t13.5 16.5t9.5 7t-4.5 0q-18 -4 -43 -9t-48 -10.5t-39 -11t-16 -9.5q0 -30 3 -59.5t6.5 -53t6.5 -38.5l3 -15l-68.5 -73l-68 -74.5l-53.5 -58t-25 -24.5q-45 -15 -93.5 -39.5t-88.5 -48.5t-64.5 -42.5 t-21.5 -21.5t17.5 5.5l41.5 23.5t68 34.5t97 38.5l-11.5 -12.5t-31 -31t-45.5 -40.5t-54.5 -40.5t-58 -31t-56.5 -12.5q-26 0 -44.5 14t-18.5 27q0 9 3.5 15.5t8 11.5t8 8t3.5 5q0 3 -14.5 -2t-31.5 -15.5t-31 -25.5t-14 -33zM484 267q1 1 14 16l35.5 40l46.5 51.5l47 50.5 t38 37l2.5 -13.5l6.5 -35.5t10 -48.5l12 -52.5l-20.5 -3.5t-51.5 -10l-68.5 -14.5t-71.5 -17zM766 778q0 30 -13.5 50.5t-33.5 30.5t-44 10t-44 -10t-33.5 -30.5t-13.5 -50.5t13.5 -50.5t33.5 -30.5t44 -10t44 10t33.5 30.5t13.5 50.5zM692 714q-18 0 -30 9t-19.5 23.5 t-10 31t-1 31t7.5 24.5t16 10q28 1 43 -19t18.5 -44.5t-3 -45t-21.5 -20.5z" />
<glyph glyph-name="AE" unicode="&#xc6;" horiz-adv-x="1169" d="M7 32q58 -33 110.5 -37.5t99 10.5t87.5 45t77 65t66.5 71l55.5 64l26.5 8t69 19t95.5 22.5t106 19.5v-27q0 -24 -3 -62.5t-11 -74t-23 -60t-40 -21.5q-8 1 -15 4.5l-13.5 6.5t-12.5 3q-5 0 -9 -6q-7 -11 -25 -26l-34.5 -27.5t-24 -19t6.5 -1.5q18 7 48.5 5.5t78.5 -6 t115.5 -8t158.5 -0.5q11 0 29 10t37 23.5t36.5 28.5t28.5 25.5t12.5 14t-11.5 -5.5q-31 -22 -77 -31t-92 -9.5t-88.5 3t-66.5 8t-26 4.5q20 15 35.5 47t26 68t17 71t9.5 55.5t3 22.5q43 4 81.5 9.5t89.5 4.5q12 0 17 -7.5t5.5 -16t-0.5 -14.5t0 -4q7 16 22 33l28.5 31.5 l21.5 23.5t2 9q-42 2 -88.5 -3.5t-84.5 -12.5t-62.5 -12.5t-24.5 -2.5q6 44 17 91t24.5 87.5t29 69t30.5 34.5q21 8 47.5 4.5t52.5 -13t47.5 -23t30.5 -26.5q2 -3 7.5 8.5t10.5 26.5t8.5 28.5t1.5 13.5q-45 14 -97 13t-105 -15t-105.5 -40t-99.5 -63q-48 -37 -98.5 -87 l-92.5 -95.5l-69 -77l-27 -31.5q-87 -26 -145 -53.5t-90.5 -48.5t-39.5 -31t8 -1q47 28 91 47.5t77.5 31.5t54 17l20.5 5l-15.5 -20.5t-42.5 -49.5t-62.5 -60.5t-75.5 -52.5t-82 -27t-82 17q-19 11 -18 24t8.5 24t14.5 18t0 7q-15 -1 -35 -14.5t-37 -30t-27 -30.5t-5 -17z M540 291q-3 -1 9.5 14.5t35 41l52.5 57t62 61.5t63 55.5t56 38.5q3 1 0.5 -19.5l-6.5 -51t-7.5 -66.5t-2.5 -64q0 -4 -26 -10.5t-65.5 -15l-85.5 -19t-85 -22.5z" />
<glyph glyph-name="Ccedilla" unicode="&#xc7;" horiz-adv-x="580" d="M345 -3q29 4 64 17t64.5 29t48 30.5t13.5 22.5q-2 3 -17 -5t-39.5 -18t-58 -17t-73 -1t-82.5 29t-88 72t-62 104t-13 109.5t25 104t53 87.5t70.5 60.5t78.5 22.5q64 0 104.5 -10t64 -24.5t33.5 -31.5t13 -31.5t3.5 -24.5t3.5 -10q5 0 13.5 22t16 48.5t11 49t-0.5 24.5 q-64 25 -131.5 27t-132 -16t-122 -53.5t-101.5 -84.5t-71 -109.5t-30 -127.5q-3 -52 13 -94.5t43 -75.5t61 -57t68.5 -40t64.5 -23.5t49 -7.5l0.5 -4.5t1.5 -10.5t3 -11.5t5 -7.5q14 -10 22.5 -20t0.5 -27q-3 -7 -11 -10.5t-15.5 -5.5t-12.5 -3t-2 -3q14 -12 30.5 -9t27 15 t12.5 29t-13 33q-11 13 -17 24.5t11 13.5z" />
<glyph glyph-name="Egrave" unicode="&#xc8;" horiz-adv-x="755" d="M732 586q4 1 8.5 8.5t9 17.5t7.5 21.5t3 22.5q0 10 -15 16.5t-36 9.5t-44.5 4t-41.5 1q-71 0 -145 -16t-143 -41.5t-129.5 -58t-106 -65t-71.5 -62.5t-26 -50q0 -5 16.5 -11t39 -10t45.5 -6t37 1q3 0 -0.5 3.5t-9.5 10t-11.5 15t-5.5 19.5q0 22 19 48.5t51.5 53.5 t76 52.5t92 45t100 31.5t100.5 12q56 0 103 -16.5t77 -56.5zM692 85q-25 -11 -46 -17.5t-41.5 -10.5t-42 -5.5t-48.5 -1.5q-26 0 -56.5 2.5t-56.5 6l-44 6l-18 2.5q25 31 46 75t35.5 84.5t22.5 69l8 28.5q41 18 85 25.5t76 -1.5q13 -4 17 -13t3.5 -17t-2 -12.5t1.5 1.5 q12 19 24 31.5t23.5 22l21.5 18.5t18 23l-15 2t-46.5 -0.5t-80 -11.5t-115.5 -31l6.5 24t17.5 60t25.5 77.5t29.5 77.5q3 7 7.5 14l8 12.5t4.5 9t-3 4.5q-11 2 -30.5 -0.5t-38 -6.5t-32.5 -8l-14 -4q-11 -6 -19 -33t-14 -66.5t-11.5 -87.5l-11.5 -97.5t-14.5 -96t-21 -82.5 t-29.5 -58t-41 -22q-20 0 -30.5 6t-12.5 3q-10 -14 -26 -27t-31.5 -23t-27 -15.5l-11.5 -5.5q42 -4 89.5 -8t92.5 -7t85 -5t68 -2q58 0 95.5 10.5t60.5 25t36 30t23 25.5zM572 708q1 1 -9 12.5t-25.5 31t-32 45t-27.5 55.5l-14 1.5t-30.5 2.5t-30.5 2l-14 1 q6 -14 21.5 -30.5t35.5 -34t41.5 -33.5t40 -28t31 -19t13.5 -6z" />
<glyph glyph-name="Eacute" unicode="&#xc9;" horiz-adv-x="755" d="M732 586q4 1 8.5 8.5t9 17.5t7.5 21.5t3 22.5q0 10 -15 16.5t-36 9.5t-44.5 4t-41.5 1q-71 0 -145 -16t-143 -41.5t-129.5 -58t-106 -65t-71.5 -62.5t-26 -50q0 -5 16.5 -11t39 -10t45.5 -6t37 1q3 0 -0.5 3.5t-9.5 10t-11.5 15t-5.5 19.5q0 22 19 48.5t51.5 53.5 t76 52.5t92 45t100 31.5t100.5 12q56 0 103 -16.5t77 -56.5zM692 85q-25 -11 -46 -17.5t-41.5 -10.5t-42 -5.5t-48.5 -1.5q-26 0 -56.5 2.5t-56.5 6l-44 6l-18 2.5q25 31 46 75t35.5 84.5t22.5 69l8 28.5q41 18 85 25.5t76 -1.5q13 -4 17 -13t3.5 -17t-2 -12.5t1.5 1.5 q12 19 24 31.5t23.5 22l21.5 18.5t18 23l-15 2t-46.5 -0.5t-80 -11.5t-115.5 -31l6.5 24t17.5 60t25.5 77.5t29.5 77.5q3 7 7.5 14l8 12.5t4.5 9t-3 4.5q-11 2 -30.5 -0.5t-38 -6.5t-32.5 -8l-14 -4q-11 -6 -19 -33t-14 -66.5t-11.5 -87.5l-11.5 -97.5t-14.5 -96t-21 -82.5 t-29.5 -58t-41 -22q-20 0 -30.5 6t-12.5 3q-10 -14 -26 -27t-31.5 -23t-27 -15.5l-11.5 -5.5q42 -4 89.5 -8t92.5 -7t85 -5t68 -2q58 0 95.5 10.5t60.5 25t36 30t23 25.5zM498 830q-11 -30 -27.5 -55.5t-32 -45t-26 -31t-8.5 -12.5q1 -1 13.5 6t31 19t40 28t41.5 33.5 t35.5 34t21.5 30.5l-14 -1t-30.5 -2t-30.5 -2.5z" />
<glyph glyph-name="Ecircumflex" unicode="&#xca;" horiz-adv-x="755" d="M732 586q4 1 8.5 8.5t9 17.5t7.5 21.5t3 22.5q0 10 -15 16.5t-36 9.5t-44.5 4t-41.5 1q-71 0 -145 -16t-143 -41.5t-129.5 -58t-106 -65t-71.5 -62.5t-26 -50q0 -5 16.5 -11t39 -10t45.5 -6t37 1q3 0 -0.5 3.5t-9.5 10t-11.5 15t-5.5 19.5q0 22 19 48.5t51.5 53.5 t76 52.5t92 45t100 31.5t100.5 12q56 0 103 -16.5t77 -56.5zM692 85q-25 -11 -46 -17.5t-41.5 -10.5t-42 -5.5t-48.5 -1.5q-26 0 -56.5 2.5t-56.5 6l-44 6l-18 2.5q25 31 46 75t35.5 84.5t22.5 69l8 28.5q41 18 85 25.5t76 -1.5q13 -4 17 -13t3.5 -17t-2 -12.5t1.5 1.5 q12 19 24 31.5t23.5 22l21.5 18.5t18 23l-15 2t-46.5 -0.5t-80 -11.5t-115.5 -31l6.5 24t17.5 60t25.5 77.5t29.5 77.5q3 7 7.5 14l8 12.5t4.5 9t-3 4.5q-11 2 -30.5 -0.5t-38 -6.5t-32.5 -8l-14 -4q-11 -6 -19 -33t-14 -66.5t-11.5 -87.5l-11.5 -97.5t-14.5 -96t-21 -82.5 t-29.5 -58t-41 -22q-20 0 -30.5 6t-12.5 3q-10 -14 -26 -27t-31.5 -23t-27 -15.5l-11.5 -5.5q42 -4 89.5 -8t92.5 -7t85 -5t68 -2q58 0 95.5 10.5t60.5 25t36 30t23 25.5zM380 680q-4 -5 9.5 3.5t34.5 23.5l44 31.5l38 27.5t16 12l80 -66l54 54l-88 88l-13 -12t-34 -28 t-46.5 -33t-50.5 -27l-7 -13.5t-17 -29.5t-20 -31z" />
<glyph glyph-name="Edieresis" unicode="&#xcb;" horiz-adv-x="755" d="M732 586q4 1 8.5 8.5t9 17.5t7.5 21.5t3 22.5q0 10 -15 16.5t-36 9.5t-44.5 4t-41.5 1q-71 0 -145 -16t-143 -41.5t-129.5 -58t-106 -65t-71.5 -62.5t-26 -50q0 -5 16.5 -11t39 -10t45.5 -6t37 1q3 0 -0.5 3.5t-9.5 10t-11.5 15t-5.5 19.5q0 22 19 48.5t51.5 53.5 t76 52.5t92 45t100 31.5t100.5 12q56 0 103 -16.5t77 -56.5zM692 85q-25 -11 -46 -17.5t-41.5 -10.5t-42 -5.5t-48.5 -1.5q-26 0 -56.5 2.5t-56.5 6l-44 6l-18 2.5q25 31 46 75t35.5 84.5t22.5 69l8 28.5q41 18 85 25.5t76 -1.5q13 -4 17 -13t3.5 -17t-2 -12.5t1.5 1.5 q12 19 24 31.5t23.5 22l21.5 18.5t18 23l-15 2t-46.5 -0.5t-80 -11.5t-115.5 -31l6.5 24t17.5 60t25.5 77.5t29.5 77.5q3 7 7.5 14l8 12.5t4.5 9t-3 4.5q-11 2 -30.5 -0.5t-38 -6.5t-32.5 -8l-14 -4q-11 -6 -19 -33t-14 -66.5t-11.5 -87.5l-11.5 -97.5t-14.5 -96t-21 -82.5 t-29.5 -58t-41 -22q-20 0 -30.5 6t-12.5 3q-10 -14 -26 -27t-31.5 -23t-27 -15.5l-11.5 -5.5q42 -4 89.5 -8t92.5 -7t85 -5t68 -2q58 0 95.5 10.5t60.5 25t36 30t23 25.5zM600 769q-3 -1 1.5 -6t12 -12t15.5 -16t13 -18q1 -3 10 3.5t18.5 15.5t17.5 18t7 11q-1 4 -8 13 t-15.5 17.5t-16.5 14.5t-10 3q-5 -6 -16 -21t-29 -23zM436 769q-3 -1 1.5 -6t12 -12t15.5 -16t13 -18q1 -3 10 3.5t18.5 15.5t17.5 18t7 11q-1 4 -8 13t-15.5 17.5t-16.5 14.5t-10 3q-5 -6 -16 -21t-29 -23z" />
<glyph glyph-name="Igrave" unicode="&#xcc;" horiz-adv-x="454" d="M-2 24q-8 -2 3 -5.5t33.5 -7.5t53.5 -7.5l64 -7t65 -5.5t56 -2q16 0 41 12.5t47.5 27t36.5 25.5t8 8q-17 -9 -38 -12.5t-43 -3.5q-24 0 -47.5 3.5t-42 7.5t-30 7.5l-11.5 3.5q26 9 44.5 41.5t32 80t24 105.5l20.5 118t22.5 118t29.5 106q1 0 10.5 -2t26 -4t29.5 -2 q6 0 14.5 5t19 12l21.5 15t22 14q-17 3 -56 5t-116 2q-51 0 -103.5 -15.5t-95 -34t-69 -35t-26.5 -19.5q0 -8 22 -14t48.5 -9.5t48.5 -3.5t22 4q0 1 -4.5 3.5t-10.5 7.5t-10.5 13.5t-4.5 22.5q0 11 11 20t28 15t38 9.5t41 3.5q15 0 30 -2t21 -5q-3 -1 -11.5 -2.5t-17.5 -4.5 t-17 -7.5t-11 -12.5q-17 -48 -22.5 -104t-7.5 -117.5t-6.5 -126t-20.5 -130.5q-4 -17 -12.5 -31t-22.5 -21.5t-33 -8t-44 10.5l-9.5 -8.5t-24 -19.5t-32.5 -21.5t-34 -14.5zM374 710q1 1 -9 12.5t-25.5 31t-32 45t-27.5 55.5l-14 1.5t-30.5 2.5t-30.5 2l-14 1 q6 -14 21.5 -30.5t35.5 -34t41.5 -33.5t40 -28t31 -19t13.5 -6z" />
<glyph glyph-name="Iacute" unicode="&#xcd;" horiz-adv-x="454" d="M-2 24q-8 -2 3 -5.5t33.5 -7.5t53.5 -7.5l64 -7t65 -5.5t56 -2q16 0 41 12.5t47.5 27t36.5 25.5t8 8q-17 -9 -38 -12.5t-43 -3.5q-24 0 -47.5 3.5t-42 7.5t-30 7.5l-11.5 3.5q26 9 44.5 41.5t32 80t24 105.5l20.5 118t22.5 118t29.5 106q1 0 10.5 -2t26 -4t29.5 -2 q6 0 14.5 5t19 12l21.5 15t22 14q-17 3 -56 5t-116 2q-51 0 -103.5 -15.5t-95 -34t-69 -35t-26.5 -19.5q0 -8 22 -14t48.5 -9.5t48.5 -3.5t22 4q0 1 -4.5 3.5t-10.5 7.5t-10.5 13.5t-4.5 22.5q0 11 11 20t28 15t38 9.5t41 3.5q15 0 30 -2t21 -5q-3 -1 -11.5 -2.5t-17.5 -4.5 t-17 -7.5t-11 -12.5q-17 -48 -22.5 -104t-7.5 -117.5t-6.5 -126t-20.5 -130.5q-4 -17 -12.5 -31t-22.5 -21.5t-33 -8t-44 10.5l-9.5 -8.5t-24 -19.5t-32.5 -21.5t-34 -14.5zM364 850q-11 -30 -27.5 -55.5t-32 -45t-26 -31t-8.5 -12.5q1 -1 13.5 6t31 19t40 28t41.5 33.5 t35.5 34t21.5 30.5l-14 -1t-30.5 -2t-30.5 -2.5z" />
<glyph glyph-name="Icircumflex" unicode="&#xce;" horiz-adv-x="454" d="M-2 24q-8 -2 3 -5.5t33.5 -7.5t53.5 -7.5l64 -7t65 -5.5t56 -2q16 0 41 12.5t47.5 27t36.5 25.5t8 8q-17 -9 -38 -12.5t-43 -3.5q-24 0 -47.5 3.5t-42 7.5t-30 7.5l-11.5 3.5q26 9 44.5 41.5t32 80t24 105.5l20.5 118t22.5 118t29.5 106q1 0 10.5 -2t26 -4t29.5 -2 q6 0 14.5 5t19 12l21.5 15t22 14q-17 3 -56 5t-116 2q-51 0 -103.5 -15.5t-95 -34t-69 -35t-26.5 -19.5q0 -8 22 -14t48.5 -9.5t48.5 -3.5t22 4q0 1 -4.5 3.5t-10.5 7.5t-10.5 13.5t-4.5 22.5q0 11 11 20t28 15t38 9.5t41 3.5q15 0 30 -2t21 -5q-3 -1 -11.5 -2.5t-17.5 -4.5 t-17 -7.5t-11 -12.5q-17 -48 -22.5 -104t-7.5 -117.5t-6.5 -126t-20.5 -130.5q-4 -17 -12.5 -31t-22.5 -21.5t-33 -8t-44 10.5l-9.5 -8.5t-24 -19.5t-32.5 -21.5t-34 -14.5zM176 684q-4 -5 9.5 3.5t34.5 23.5l44 31.5l38 27.5t16 12l80 -66l54 54l-88 88l-13 -12t-34 -28 t-46.5 -33t-50.5 -27l-7 -13.5t-17 -29.5t-20 -31z" />
<glyph glyph-name="Idieresis" unicode="&#xcf;" horiz-adv-x="454" d="M-2 24q-8 -2 3 -5.5t33.5 -7.5t53.5 -7.5l64 -7t65 -5.5t56 -2q16 0 41 12.5t47.5 27t36.5 25.5t8 8q-17 -9 -38 -12.5t-43 -3.5q-24 0 -47.5 3.5t-42 7.5t-30 7.5l-11.5 3.5q26 9 44.5 41.5t32 80t24 105.5l20.5 118t22.5 118t29.5 106q1 0 10.5 -2t26 -4t29.5 -2 q6 0 14.5 5t19 12l21.5 15t22 14q-17 3 -56 5t-116 2q-51 0 -103.5 -15.5t-95 -34t-69 -35t-26.5 -19.5q0 -8 22 -14t48.5 -9.5t48.5 -3.5t22 4q0 1 -4.5 3.5t-10.5 7.5t-10.5 13.5t-4.5 22.5q0 11 11 20t28 15t38 9.5t41 3.5q15 0 30 -2t21 -5q-3 -1 -11.5 -2.5t-17.5 -4.5 t-17 -7.5t-11 -12.5q-17 -48 -22.5 -104t-7.5 -117.5t-6.5 -126t-20.5 -130.5q-4 -17 -12.5 -31t-22.5 -21.5t-33 -8t-44 10.5l-9.5 -8.5t-24 -19.5t-32.5 -21.5t-34 -14.5zM364 759q-3 -1 1.5 -6t12 -12t15.5 -16t13 -18q1 -3 10 3.5t18.5 15.5t17.5 18t7 11q-1 4 -8 13 t-15.5 17.5t-16.5 14.5t-10 3q-5 -6 -16 -21t-29 -23zM200 759q-3 -1 1.5 -6t12 -12t15.5 -16t13 -18q1 -3 10 3.5t18.5 15.5t17.5 18t7 11q-1 4 -8 13t-15.5 17.5t-16.5 14.5t-10 3q-5 -6 -16 -21t-29 -23z" />
<glyph glyph-name="Eth" unicode="&#xd0;" horiz-adv-x="976" d="M372 438h-91l-27 -54h109q-8 -49 -16.5 -94l-15.5 -81t-11 -58.5t-4 -26.5t13.5 -15.5t35 -26t50 -31t58 -30t59 -22.5t53.5 -9q6 0 36 16.5t71 45.5t87 69t85 87t64.5 99t25.5 106q0 59 -15 102.5t-39 74t-53 49.5t-58 29.5t-53.5 14.5t-39.5 4q-43 0 -111.5 -19 t-145.5 -50.5t-155 -70.5t-140.5 -79.5t-102 -78t-39.5 -65.5q0 -6 21.5 -12.5t47.5 -11t47.5 -6t21.5 3.5q0 3 -6.5 7t-14 9.5t-13.5 13t-6 18.5q0 33 28 68t73.5 68t103.5 62.5t116.5 51.5t113.5 35t95 13q42 0 83.5 -23.5t74.5 -63t53.5 -92.5t20.5 -111 q0 -66 -22.5 -119t-55.5 -89.5t-71 -56t-70 -19.5q-35 0 -77 19t-79.5 44.5t-62.5 51.5t-25 39l4 13t10 35l13.5 51l15.5 61h93l27 54h-107q6 25 11 48.5t9 45.5q2 15 8 28.5t11.5 23.5t8.5 16t-1 6q-12 0 -31 -6.5t-37 -14t-31 -14l-13 -6.5q-3 -30 -8 -62z" />
<glyph glyph-name="Ntilde" unicode="&#xd1;" horiz-adv-x="1000" d="M502 469q34 -45 73 -102l77.5 -115l74 -111.5t63.5 -91.5t45 -54.5t19 -0.5q4 39 18 105.5l32.5 149.5l39.5 176l41 185q3 12 8.5 22.5t11 18.5t8 13.5t-0.5 8.5q-3 2 -19 1.5t-34 -2t-33 -4.5t-16 -6q-9 -28 -16 -67.5t-13 -85t-11.5 -94l-10.5 -94.5t-10 -85.5 t-10 -68.5l-20.5 21.5t-52 58l-69.5 83.5t-71.5 98t-59 102.5t-32.5 96.5q-2 12 1.5 21t7 15.5l5.5 10t-2 3.5q-18 0 -65.5 -13t-108.5 -34.5t-126.5 -51t-120 -62t-90 -66.5t-35.5 -66q0 -5 21 -10t46.5 -8.5t46.5 -4t21 3.5q0 3 -4 5.5t-8.5 6.5t-8.5 11.5t-4 22.5 q0 36 25 65.5t62 53.5t81 41.5t81 29.5t62 18l25 6q-7 -41 -17.5 -94l-22.5 -111l-24 -117t-21.5 -111.5t-15.5 -95t-6 -67.5q0 -23 10.5 -33t26.5 -10t36 6.5t36.5 14.5t27 15t9.5 9q-2 3 -10 1.5t-17 -2t-16.5 4.5t-7.5 22q0 8 5 41.5t12.5 79l16.5 97l16.5 94.5 l12.5 71.5zM615 688q2 -1 6.5 2.5l10.5 8t13.5 9t14.5 6.5q17 4 34 -3.5t33.5 -17.5t33 -19t32.5 -7q21 2 40 16.5t34 32t23.5 31.5t7.5 15q-2 1 -9 -3.5t-17.5 -10.5t-24 -10.5t-28.5 -4.5t-27.5 8.5t-24.5 18t-23 17t-22 7.5q-21 0 -41 -15t-35.5 -32.5t-24 -32.5 t-6.5 -16z" />
<glyph glyph-name="Ograve" unicode="&#xd2;" horiz-adv-x="670" d="M5 236q0 -51 22.5 -96t56 -79t72 -53.5t69.5 -19.5q15 0 52 11t83.5 33t96 55t90.5 78t67.5 101.5t26.5 125.5q0 55 -17 108.5t-50 95.5t-81 68t-110 26q-38 0 -80 -11t-90 -35q-4 -2 -15.5 -18.5l-23 -34.5t-18.5 -32t-3 -11q33 23 68.5 34.5t71.5 11.5q52 0 99 -19 t82.5 -52.5t56.5 -80.5t21 -102q0 -54 -20.5 -105.5t-54.5 -91.5t-78 -64.5t-90 -24.5q-28 0 -62 16.5t-63.5 47.5t-49.5 76.5t-20 103.5q0 53 14 93.5t34.5 69.5t44 49t42.5 33.5t29 21.5t5 13q-3 3 -24.5 -7t-52.5 -31t-66 -52t-65 -70t-50 -85t-20 -97zM474 706 q1 1 -9 12.5t-25.5 31t-32 45t-27.5 55.5l-14 1.5t-30.5 2.5t-30.5 2l-14 1q6 -14 21.5 -30.5t35.5 -34t41.5 -33.5t40 -28t31 -19t13.5 -6z" />
<glyph glyph-name="Oacute" unicode="&#xd3;" horiz-adv-x="670" d="M5 236q0 -51 22.5 -96t56 -79t72 -53.5t69.5 -19.5q15 0 52 11t83.5 33t96 55t90.5 78t67.5 101.5t26.5 125.5q0 55 -17 108.5t-50 95.5t-81 68t-110 26q-38 0 -80 -11t-90 -35q-4 -2 -15.5 -18.5l-23 -34.5t-18.5 -32t-3 -11q33 23 68.5 34.5t71.5 11.5q52 0 99 -19 t82.5 -52.5t56.5 -80.5t21 -102q0 -54 -20.5 -105.5t-54.5 -91.5t-78 -64.5t-90 -24.5q-28 0 -62 16.5t-63.5 47.5t-49.5 76.5t-20 103.5q0 53 14 93.5t34.5 69.5t44 49t42.5 33.5t29 21.5t5 13q-3 3 -24.5 -7t-52.5 -31t-66 -52t-65 -70t-50 -85t-20 -97zM402 852 q-11 -30 -27.5 -55.5t-32 -45t-26 -31t-8.5 -12.5q1 -1 13.5 6t31 19t40 28t41.5 33.5t35.5 34t21.5 30.5l-14 -1t-30.5 -2t-30.5 -2.5z" />
<glyph glyph-name="Ocircumflex" unicode="&#xd4;" horiz-adv-x="670" d="M5 236q0 -51 22.5 -96t56 -79t72 -53.5t69.5 -19.5q15 0 52 11t83.5 33t96 55t90.5 78t67.5 101.5t26.5 125.5q0 55 -17 108.5t-50 95.5t-81 68t-110 26q-38 0 -80 -11t-90 -35q-4 -2 -15.5 -18.5l-23 -34.5t-18.5 -32t-3 -11q33 23 68.5 34.5t71.5 11.5q52 0 99 -19 t82.5 -52.5t56.5 -80.5t21 -102q0 -54 -20.5 -105.5t-54.5 -91.5t-78 -64.5t-90 -24.5q-28 0 -62 16.5t-63.5 47.5t-49.5 76.5t-20 103.5q0 53 14 93.5t34.5 69.5t44 49t42.5 33.5t29 21.5t5 13q-3 3 -24.5 -7t-52.5 -31t-66 -52t-65 -70t-50 -85t-20 -97zM212 686 q-4 -5 9.5 3.5t34.5 23.5l44 31.5l38 27.5t16 12l80 -66l54 54l-88 88l-13 -12t-34 -28t-46.5 -33t-50.5 -27l-7 -13.5t-17 -29.5t-20 -31z" />
<glyph glyph-name="Otilde" unicode="&#xd5;" horiz-adv-x="670" d="M5 236q0 -51 22.5 -96t56 -79t72 -53.5t69.5 -19.5q15 0 52 11t83.5 33t96 55t90.5 78t67.5 101.5t26.5 125.5q0 55 -17 108.5t-50 95.5t-81 68t-110 26q-38 0 -80 -11t-90 -35q-4 -2 -15.5 -18.5l-23 -34.5t-18.5 -32t-3 -11q33 23 68.5 34.5t71.5 11.5q52 0 99 -19 t82.5 -52.5t56.5 -80.5t21 -102q0 -54 -20.5 -105.5t-54.5 -91.5t-78 -64.5t-90 -24.5q-28 0 -62 16.5t-63.5 47.5t-49.5 76.5t-20 103.5q0 53 14 93.5t34.5 69.5t44 49t42.5 33.5t29 21.5t5 13q-3 3 -24.5 -7t-52.5 -31t-66 -52t-65 -70t-50 -85t-20 -97zM307 718 q2 -1 6.5 2.5l10.5 8t13.5 9t14.5 6.5q17 4 34 -3.5t33.5 -17.5t33 -19t32.5 -7q21 2 40 16.5t34 32t23.5 31.5t7.5 15q-2 1 -9 -3.5t-17.5 -10.5t-24 -10.5t-28.5 -4.5t-27.5 8.5t-24.5 18t-23 17t-22 7.5q-21 0 -41 -15t-35.5 -32.5t-24 -32.5t-6.5 -16z" />
<glyph glyph-name="Odieresis" unicode="&#xd6;" horiz-adv-x="670" d="M5 236q0 -51 22.5 -96t56 -79t72 -53.5t69.5 -19.5q15 0 52 11t83.5 33t96 55t90.5 78t67.5 101.5t26.5 125.5q0 55 -17 108.5t-50 95.5t-81 68t-110 26q-38 0 -80 -11t-90 -35q-4 -2 -15.5 -18.5l-23 -34.5t-18.5 -32t-3 -11q33 23 68.5 34.5t71.5 11.5q52 0 99 -19 t82.5 -52.5t56.5 -80.5t21 -102q0 -54 -20.5 -105.5t-54.5 -91.5t-78 -64.5t-90 -24.5q-28 0 -62 16.5t-63.5 47.5t-49.5 76.5t-20 103.5q0 53 14 93.5t34.5 69.5t44 49t42.5 33.5t29 21.5t5 13q-3 3 -24.5 -7t-52.5 -31t-66 -52t-65 -70t-50 -85t-20 -97zM428 769 q-3 -1 1.5 -6t12 -12t15.5 -16t13 -18q1 -3 10 3.5t18.5 15.5t17.5 18t7 11q-1 4 -8 13t-15.5 17.5t-16.5 14.5t-10 3q-5 -6 -16 -21t-29 -23zM264 769q-3 -1 1.5 -6t12 -12t15.5 -16t13 -18q1 -3 10 3.5t18.5 15.5t17.5 18t7 11q-1 4 -8 13t-15.5 17.5t-16.5 14.5t-10 3 q-5 -6 -16 -21t-29 -23z" />
<glyph glyph-name="multiply" unicode="&#xd7;" horiz-adv-x="400" d="M81 162l99 99l98 -99q7 -6 10.5 -3.5t5.5 10t3 16t3 14.5l8 25t-6 22l-68 68l54 55q10 10 7 22t-4 26q0 5 1.5 14t2.5 16.5t-0.5 10.5t-8.5 -4l-96 -96l-96 96q-6 6 -9 3.5t-4.5 -9t-2.5 -14.5t-3 -13l-6.5 -12.5t-5.5 -12.5t-1.5 -11.5t5.5 -10.5l69 -70l-54 -54 q-11 -10 -9 -22.5t2 -26.5q0 -6 -0.5 -14.5t-0.5 -15.5t1.5 -10.5t5.5 1.5z" />
<glyph glyph-name="Oslash" unicode="&#xd8;" horiz-adv-x="670" d="M633 621v44l-65 -65q-1 1 -13 16t-40.5 34.5t-69.5 31t-100 5t-132 -42.5q-4 -2 -15.5 -18t-22.5 -34t-18.5 -32t-3.5 -12q53 36 103 43.5t90 -2.5t71.5 -28t47 -32.5t16.5 -15.5l-338 -338l-9 18.5t-15 51.5t-4.5 77.5t22.5 97.5q12 31 38.5 58t52 47.5l43 34t12.5 18.5 q-3 3 -25 -7.5t-53 -32t-67 -52.5t-66 -70t-49 -84.5t-18 -95.5q1 -31 9.5 -57.5t18.5 -45.5t18.5 -30l8.5 -11l-40 -40v-44l59 59l15.5 -15t40 -31.5t55.5 -27t63 -1.5q38 12 82 31t87.5 45t83.5 59t70.5 73.5t48 88.5t16.5 103q-1 43 -9.5 77t-18.5 57.5t-18 36l-8 12.5z M159 147l343 343l11.5 -15.5t25.5 -53.5q11 -29 12 -66t-7.5 -76.5t-27 -77.5t-48 -69.5t-69 -52.5t-90.5 -25q-30 -3 -57 11.5t-48 32.5t-33 33.5z" />
<glyph glyph-name="Ugrave" unicode="&#xd9;" horiz-adv-x="1000" d="M482 1q28 0 63.5 9.5t76 34t85 68t91.5 112.5l-5.5 -17t-12.5 -43t-12.5 -56t-5.5 -56q0 -12 1.5 -23.5t6.5 -20.5t14.5 -14t24.5 -5q21 0 45.5 7.5t44 18t32 22t9.5 18.5q-1 2 -7 -1.5t-14.5 -8t-18.5 -6.5t-19 4t-15 22.5t-8 49.5q-1 31 10.5 92.5t32 139t48.5 164.5 t60 168q0 2 -19 -1t-42 -8t-42 -10t-19 -7q-4 -27 -10.5 -64.5t-14.5 -79.5t-17 -84l-17.5 -78t-16 -62t-11.5 -34q-3 -6 -14 -21t-28.5 -34.5t-40 -41t-47.5 -39t-52 -29t-53 -11.5q-37 0 -63 14t-42 36.5t-23.5 50.5t-7.5 55q0 26 9 71t22.5 96.5t29 104.5l28 96t19.5 70 t5 26q-22 -5 -69.5 -19.5t-105.5 -36.5t-119.5 -49t-112.5 -56t-83.5 -58.5t-32.5 -55.5q0 -8 20.5 -16t45 -13.5t45 -7.5t20.5 2q0 3 -3.5 7.5l-8 10t-8 13t-3.5 18.5q0 30 22.5 57.5t56 51t72.5 42t72.5 31.5t56 20l22.5 7q-7 -96 -22.5 -173.5t-31 -139l-27.5 -109 t-12 -85.5q0 -28 10.5 -52.5t30 -43t46 -29.5t59.5 -11zM786 682q1 1 -9 12.5t-25.5 31t-32 45t-27.5 55.5l-14 1.5t-30.5 2.5t-30.5 2l-14 1q6 -14 21.5 -30.5t35.5 -34t41.5 -33.5t40 -28t31 -19t13.5 -6z" />
<glyph glyph-name="Uacute" unicode="&#xda;" horiz-adv-x="1000" d="M482 1q28 0 63.5 9.5t76 34t85 68t91.5 112.5l-5.5 -17t-12.5 -43t-12.5 -56t-5.5 -56q0 -12 1.5 -23.5t6.5 -20.5t14.5 -14t24.5 -5q21 0 45.5 7.5t44 18t32 22t9.5 18.5q-1 2 -7 -1.5t-14.5 -8t-18.5 -6.5t-19 4t-15 22.5t-8 49.5q-1 31 10.5 92.5t32 139t48.5 164.5 t60 168q0 2 -19 -1t-42 -8t-42 -10t-19 -7q-4 -27 -10.5 -64.5t-14.5 -79.5t-17 -84l-17.5 -78t-16 -62t-11.5 -34q-3 -6 -14 -21t-28.5 -34.5t-40 -41t-47.5 -39t-52 -29t-53 -11.5q-37 0 -63 14t-42 36.5t-23.5 50.5t-7.5 55q0 26 9 71t22.5 96.5t29 104.5l28 96t19.5 70 t5 26q-22 -5 -69.5 -19.5t-105.5 -36.5t-119.5 -49t-112.5 -56t-83.5 -58.5t-32.5 -55.5q0 -8 20.5 -16t45 -13.5t45 -7.5t20.5 2q0 3 -3.5 7.5l-8 10t-8 13t-3.5 18.5q0 30 22.5 57.5t56 51t72.5 42t72.5 31.5t56 20l22.5 7q-7 -96 -22.5 -173.5t-31 -139l-27.5 -109 t-12 -85.5q0 -28 10.5 -52.5t30 -43t46 -29.5t59.5 -11zM768 842q-11 -30 -27.5 -55.5t-32 -45t-26 -31t-8.5 -12.5q1 -1 13.5 6t31 19t40 28t41.5 33.5t35.5 34t21.5 30.5l-14 -1t-30.5 -2t-30.5 -2.5z" />
<glyph glyph-name="Ucircumflex" unicode="&#xdb;" horiz-adv-x="1000" d="M482 1q28 0 63.5 9.5t76 34t85 68t91.5 112.5l-5.5 -17t-12.5 -43t-12.5 -56t-5.5 -56q0 -12 1.5 -23.5t6.5 -20.5t14.5 -14t24.5 -5q21 0 45.5 7.5t44 18t32 22t9.5 18.5q-1 2 -7 -1.5t-14.5 -8t-18.5 -6.5t-19 4t-15 22.5t-8 49.5q-1 31 10.5 92.5t32 139t48.5 164.5 t60 168q0 2 -19 -1t-42 -8t-42 -10t-19 -7q-4 -27 -10.5 -64.5t-14.5 -79.5t-17 -84l-17.5 -78t-16 -62t-11.5 -34q-3 -6 -14 -21t-28.5 -34.5t-40 -41t-47.5 -39t-52 -29t-53 -11.5q-37 0 -63 14t-42 36.5t-23.5 50.5t-7.5 55q0 26 9 71t22.5 96.5t29 104.5l28 96t19.5 70 t5 26q-22 -5 -69.5 -19.5t-105.5 -36.5t-119.5 -49t-112.5 -56t-83.5 -58.5t-32.5 -55.5q0 -8 20.5 -16t45 -13.5t45 -7.5t20.5 2q0 3 -3.5 7.5l-8 10t-8 13t-3.5 18.5q0 30 22.5 57.5t56 51t72.5 42t72.5 31.5t56 20l22.5 7q-7 -96 -22.5 -173.5t-31 -139l-27.5 -109 t-12 -85.5q0 -28 10.5 -52.5t30 -43t46 -29.5t59.5 -11zM612 690q-4 -5 9.5 3.5t34.5 23.5l44 31.5l38 27.5t16 12l80 -66l54 54l-88 88l-13 -12t-34 -28t-46.5 -33t-50.5 -27l-7 -13.5t-17 -29.5t-20 -31z" />
<glyph glyph-name="Udieresis" unicode="&#xdc;" horiz-adv-x="1000" d="M482 1q28 0 63.5 9.5t76 34t85 68t91.5 112.5l-5.5 -17t-12.5 -43t-12.5 -56t-5.5 -56q0 -12 1.5 -23.5t6.5 -20.5t14.5 -14t24.5 -5q21 0 45.5 7.5t44 18t32 22t9.5 18.5q-1 2 -7 -1.5t-14.5 -8t-18.5 -6.5t-19 4t-15 22.5t-8 49.5q-1 31 10.5 92.5t32 139t48.5 164.5 t60 168q0 2 -19 -1t-42 -8t-42 -10t-19 -7q-4 -27 -10.5 -64.5t-14.5 -79.5t-17 -84l-17.5 -78t-16 -62t-11.5 -34q-3 -6 -14 -21t-28.5 -34.5t-40 -41t-47.5 -39t-52 -29t-53 -11.5q-37 0 -63 14t-42 36.5t-23.5 50.5t-7.5 55q0 26 9 71t22.5 96.5t29 104.5l28 96t19.5 70 t5 26q-22 -5 -69.5 -19.5t-105.5 -36.5t-119.5 -49t-112.5 -56t-83.5 -58.5t-32.5 -55.5q0 -8 20.5 -16t45 -13.5t45 -7.5t20.5 2q0 3 -3.5 7.5l-8 10t-8 13t-3.5 18.5q0 30 22.5 57.5t56 51t72.5 42t72.5 31.5t56 20l22.5 7q-7 -96 -22.5 -173.5t-31 -139l-27.5 -109 t-12 -85.5q0 -28 10.5 -52.5t30 -43t46 -29.5t59.5 -11zM782 739q-3 -1 1.5 -6t12 -12t15.5 -16t13 -18q1 -3 10 3.5t18.5 15.5t17.5 18t7 11q-1 4 -8 13t-15.5 17.5t-16.5 14.5t-10 3q-5 -6 -16 -21t-29 -23zM618 739q-3 -1 1.5 -6t12 -12t15.5 -16t13 -18q1 -3 10 3.5 t18.5 15.5t17.5 18t7 11q-1 4 -8 13t-15.5 17.5t-16.5 14.5t-10 3q-5 -6 -16 -21t-29 -23z" />
<glyph glyph-name="Yacute" unicode="&#xdd;" horiz-adv-x="632" d="M97 474q0 51 18 85.5t41.5 55t45 29t28.5 8.5q11 0 33 -26t49.5 -65t56 -84l52.5 -84l39 -65l15 -26q-21 -40 -46 -82l-47 -80.5t-36.5 -70.5t-14.5 -51q0 -20 18.5 -27t41 -7.5t41.5 3t19 5.5q0 3 -4 7t-8.5 10t-8.5 16t-4 25q0 39 22.5 93.5t56 116t73 125.5l73 121.5 t56 104.5t22.5 74q0 2 -20 3t-45 1q-24 0 -45 -1.5t-22 -4.5q-2 -3 3 -6.5l12 -8.5t12.5 -11.5t5.5 -14.5q0 -10 -13.5 -43l-31.5 -73.5l-37.5 -81l-32 -65.5l-13.5 -27q-8 13 -23.5 44l-35 70l-40.5 81t-40 76.5t-33 56.5t-20 22q-21 0 -52 -13t-64.5 -34t-67.5 -47.5 t-60.5 -53.5t-43.5 -52t-17 -43q0 -8 18 -15.5t39.5 -13t39.5 -7.5t18 2q0 3 -3.5 7t-8 10t-8 13.5t-3.5 18.5zM514 816q-11 -30 -27.5 -55.5t-32 -45t-26 -31t-8.5 -12.5q1 -1 13.5 6t31 19t40 28t41.5 33.5t35.5 34t21.5 30.5l-14 -1t-30.5 -2t-30.5 -2.5z" />
<glyph glyph-name="Thorn" unicode="&#xde;" horiz-adv-x="742" d="M489 502q42 -1 68.5 -19t42 -42.5t21 -49t5.5 -38.5q0 -18 -15 -35.5t-37.5 -33t-49.5 -29t-51 -23.5t-41.5 -15.5t-21.5 -5.5l7.5 26l18.5 67l25 93zM396 506q-72 -21 -142.5 -52t-127 -65.5t-91 -69.5t-34.5 -62q0 -5 16 -10.5t38.5 -10t45.5 -6.5t37 1q3 0 -1 3.5 t-10 10t-12 15t-6 19.5q0 35 26 68t67 60.5t91.5 48.5t99.5 33l-26 -130.5t-26 -134t-19 -122.5t-5 -97q1 -16 10 -17t21.5 7t26 22t25 27.5t17.5 24t3 12.5q-1 0 -6.5 -5.5t-12 -9.5t-11.5 -2.5t-5 15.5q0 12 3.5 31t7.5 37.5t7.5 32l3.5 13.5q4 0 30 8.5t63 24t78.5 37 t77 48t59 57t23.5 63.5q0 46 -46 75t-119 29q-37 0 -77 -6q3 10 8.5 31l10.5 41l9 35.5l4 15.5q3 11 10.5 20.5t7.5 14.5t-7 5q-11 0 -30.5 -3t-39 -6.5t-33.5 -6.5l-14 -3l-3 -20l-7 -47.5t-8.5 -55.5t-7.5 -44z" />
<glyph glyph-name="germandbls" unicode="&#xdf;" horiz-adv-x="553" d="M386 421q5 9 26 24t46 35t47.5 43.5t32 49.5t-1 54t-52.5 56q-17 12 -31.5 19.5t-30 11t-34.5 4t-46 -1.5q-51 -4 -92 -25t-54 -65l-244 -832q-6 -22 9 -28.5t40 -3.5t54.5 12.5t52.5 19.5q6 3 4.5 2.5t-7.5 -1.5t-14 0t-14.5 6.5t-9.5 17.5t1 34l154 755q11 58 35.5 74 t72.5 6q28 -6 53.5 -22t41.5 -39t18.5 -52.5t-13.5 -61.5q-15 -29 -39 -49.5t-47 -37.5t-41 -32.5t-20 -33.5q-2 -14 6.5 -27.5t22 -28l29 -30t29.5 -32.5t23 -36.5t8 -41.5q-2 -37 -14 -62t-29 -38t-36 -14.5t-34 8t-22.5 30t-1.5 51.5l-11 -8.5t-26.5 -19.5t-33.5 -21 t-32 -12l3.5 -13t13 -29t25 -29.5t39.5 -14.5q16 -1 41 9t53.5 27t57.5 40t52 49t37.5 53.5t14.5 52.5q0 22 -10.5 41t-26 35.5t-32.5 31.5t-29.5 29.5t-17.5 29t4 31.5z" />
<glyph glyph-name="agrave" unicode="&#xe0;" d="M5 19q0 -15 14.5 -19.5t35 -2t42.5 10t37 15.5q25 15 52.5 42.5t49.5 53l36 41.5t13 7l-25 -160q-1 -7 16 -8t40.5 2t48 7.5t39.5 9t14.5 6t-27.5 -1.5q-13 -2 -20 7.5t-10 22.5t-3.5 27.5t-0.5 23.5q0 50 9 100t22 91.5t28 70t26 36.5q-9 0 -44.5 -9.5t-84 -29 t-103 -50.5t-100 -73.5t-75.5 -97t-30 -122.5zM106 61q0 52 13.5 92.5t34.5 71.5t46.5 52.5t48.5 35t40.5 19.5t23.5 6l-19 -122q-9 -16 -26 -38t-38 -45t-43 -44t-40 -33t-30 -12q-11 0 -11 17zM374 424q1 1 -9 12.5t-25.5 31t-32 45t-27.5 55.5l-14 1.5t-30.5 2.5t-30.5 2 l-14 1q6 -14 21.5 -30.5t35.5 -34t41.5 -33.5t40 -28t31 -19t13.5 -6z" />
<glyph glyph-name="aacute" unicode="&#xe1;" d="M5 19q0 -15 14.5 -19.5t35 -2t42.5 10t37 15.5q25 15 52.5 42.5t49.5 53l36 41.5t13 7l-25 -160q-1 -7 16 -8t40.5 2t48 7.5t39.5 9t14.5 6t-27.5 -1.5q-13 -2 -20 7.5t-10 22.5t-3.5 27.5t-0.5 23.5q0 50 9 100t22 91.5t28 70t26 36.5q-9 0 -44.5 -9.5t-84 -29 t-103 -50.5t-100 -73.5t-75.5 -97t-30 -122.5zM106 61q0 52 13.5 92.5t34.5 71.5t46.5 52.5t48.5 35t40.5 19.5t23.5 6l-19 -122q-9 -16 -26 -38t-38 -45t-43 -44t-40 -33t-30 -12q-11 0 -11 17zM336 568q-11 -30 -27.5 -55.5t-32 -45t-26 -31t-8.5 -12.5q1 -1 13.5 6t31 19 t40 28t41.5 33.5t35.5 34t21.5 30.5l-14 -1t-30.5 -2t-30.5 -2.5z" />
<glyph glyph-name="acircumflex" unicode="&#xe2;" d="M196 416q-4 -5 9.5 3.5t34.5 23.5l44 31.5l38 27.5t16 12l80 -66l54 54l-88 88l-13 -12t-34 -28t-46.5 -33t-50.5 -27l-7 -13.5t-17 -29.5t-20 -31zM5 19q0 -15 14.5 -19.5t35 -2t42.5 10t37 15.5q25 15 52.5 42.5t49.5 53l36 41.5t13 7l-25 -160q-1 -7 16 -8t40.5 2 t48 7.5t39.5 9t14.5 6t-27.5 -1.5q-13 -2 -20 7.5t-10 22.5t-3.5 27.5t-0.5 23.5q0 50 9 100t22 91.5t28 70t26 36.5q-9 0 -44.5 -9.5t-84 -29t-103 -50.5t-100 -73.5t-75.5 -97t-30 -122.5zM106 61q0 52 13.5 92.5t34.5 71.5t46.5 52.5t48.5 35t40.5 19.5t23.5 6l-19 -122 q-9 -16 -26 -38t-38 -45t-43 -44t-40 -33t-30 -12q-11 0 -11 17z" />
<glyph glyph-name="atilde" unicode="&#xe3;" d="M5 19q0 -15 14.5 -19.5t35 -2t42.5 10t37 15.5q25 15 52.5 42.5t49.5 53l36 41.5t13 7l-25 -160q-1 -7 16 -8t40.5 2t48 7.5t39.5 9t14.5 6t-27.5 -1.5q-13 -2 -20 7.5t-10 22.5t-3.5 27.5t-0.5 23.5q0 50 9 100t22 91.5t28 70t26 36.5q-9 0 -44.5 -9.5t-84 -29 t-103 -50.5t-100 -73.5t-75.5 -97t-30 -122.5zM106 61q0 52 13.5 92.5t34.5 71.5t46.5 52.5t48.5 35t40.5 19.5t23.5 6l-19 -122q-9 -16 -26 -38t-38 -45t-43 -44t-40 -33t-30 -12q-11 0 -11 17zM203 456q2 -1 6.5 2.5l10.5 8t13.5 9t14.5 6.5q17 4 34 -3.5t33.5 -17.5 t33 -19t32.5 -7q21 2 40 16.5t34 32t23.5 31.5t7.5 15q-2 1 -9 -3.5t-17.5 -10.5t-24 -10.5t-28.5 -4.5t-27.5 8.5t-24.5 18t-23 17t-22 7.5q-21 0 -41 -15t-35.5 -32.5t-24 -32.5t-6.5 -16z" />
<glyph glyph-name="adieresis" unicode="&#xe4;" d="M5 19q0 -15 14.5 -19.5t35 -2t42.5 10t37 15.5q25 15 52.5 42.5t49.5 53l36 41.5t13 7l-25 -160q-1 -7 16 -8t40.5 2t48 7.5t39.5 9t14.5 6t-27.5 -1.5q-13 -2 -20 7.5t-10 22.5t-3.5 27.5t-0.5 23.5q0 50 9 100t22 91.5t28 70t26 36.5q-9 0 -44.5 -9.5t-84 -29 t-103 -50.5t-100 -73.5t-75.5 -97t-30 -122.5zM106 61q0 52 13.5 92.5t34.5 71.5t46.5 52.5t48.5 35t40.5 19.5t23.5 6l-19 -122q-9 -16 -26 -38t-38 -45t-43 -44t-40 -33t-30 -12q-11 0 -11 17zM334 485q-3 -1 1.5 -6t12 -12t15.5 -16t13 -18q1 -3 10 3.5t18.5 15.5 t17.5 18t7 11q-1 4 -8 13t-15.5 17.5t-16.5 14.5t-10 3q-5 -6 -16 -21t-29 -23zM170 485q-3 -1 1.5 -6t12 -12t15.5 -16t13 -18q1 -3 10 3.5t18.5 15.5t17.5 18t7 11q-1 4 -8 13t-15.5 17.5t-16.5 14.5t-10 3q-5 -6 -16 -21t-29 -23z" />
<glyph glyph-name="aring" unicode="&#xe5;" d="M5 19q0 -15 14.5 -19.5t35 -2t42.5 10t37 15.5q25 15 52.5 42.5t49.5 53l36 41.5t13 7l-25 -160q-1 -7 16 -8t40.5 2t48 7.5t39.5 9t14.5 6t-27.5 -1.5q-13 -2 -20 7.5t-10 22.5t-3.5 27.5t-0.5 23.5q0 50 9 100t22 91.5t28 70t26 36.5q-9 0 -44.5 -9.5t-84 -29 t-103 -50.5t-100 -73.5t-75.5 -97t-30 -122.5zM106 61q0 52 13.5 92.5t34.5 71.5t46.5 52.5t48.5 35t40.5 19.5t23.5 6l-19 -122q-9 -16 -26 -38t-38 -45t-43 -44t-40 -33t-30 -12q-11 0 -11 17zM416 506q0 30 -13.5 50.5t-33.5 30.5t-44 10t-44 -10t-33.5 -30.5 t-13.5 -50.5t13.5 -50.5t33.5 -30.5t44 -10t44 10t33.5 30.5t13.5 50.5zM342 442q-18 0 -30 9t-19.5 23.5t-10 31t-1 31t7.5 24.5t16 10q28 1 43 -19t18.5 -44.5t-3 -45t-21.5 -20.5z" />
<glyph glyph-name="ae" unicode="&#xe6;" horiz-adv-x="683" d="M260 7q-2 -11 12 -11t31 4t32 9.5l15 5.5q18 -22 45 -24.5t55.5 6t56.5 24.5t48.5 31.5t30.5 26t3 8.5t-20.5 -11t-29.5 -18.5t-31.5 -16t-27.5 -3.5q-21 5 -36 19t-24.5 32t-15 37t-7.5 35l17 6.5l43.5 17.5l57.5 24.5t58.5 27.5t47.5 27t24 22q2 5 -8.5 24t-29 39 t-42.5 34t-48 10q-25 -5 -47.5 -18.5t-39.5 -27.5t-27 -25.5l-10 -11.5q0 25 3 41.5t6.5 26t5 13t-2.5 2.5q-31 -9 -72 -23.5t-85.5 -37t-88 -52.5t-78 -69t-55.5 -86.5t-21 -105.5q0 -15 14.5 -19.5t35 -2t42.5 10t37 15.5q25 15 53 43t51.5 54t37.5 43t13 8zM395 177 q-2 20 1 45t10.5 49t21 45.5t33.5 34.5q8 5 23 -6.5t28.5 -29.5t21 -37.5t0.5 -29.5q-8 -12 -31 -25t-47 -23.5t-42.5 -16.5zM106 61q0 42 12.5 85.5t38.5 82t64.5 67.5t91.5 42l-2.5 -18l-5.5 -40.5t-6.5 -41.5t-4.5 -22q-9 -16 -26 -38t-38 -45t-43 -44t-40 -33t-30 -12 q-11 0 -11 17z" />
<glyph glyph-name="ccedilla" unicode="&#xe7;" horiz-adv-x="354" d="M105 -8q0 -1 0.5 -7.5t3 -15t6.5 -11.5q14 -10 22.5 -20t0.5 -27q-3 -7 -11 -10.5t-15.5 -5.5t-12.5 -3t-2 -3q14 -12 30.5 -9t27 15t12.5 29t-13 33q-6 6 -10.5 12.5t-6.5 11.5t0 8.5t11 4.5q13 1 34.5 11t44 23t42 25.5t29 20t5 6.5t-30.5 -16q-44 -25 -72.5 -18.5 t-44.5 32t-20.5 64t0 76.5t16.5 70t29 45q4 3 17.5 -1.5t28.5 -13t28 -21t16 -26.5q2 -8 -5 -22t-12 -23q-5 -8 6 4t26.5 33l31 44t19.5 36q4 14 -6.5 24t-26.5 16.5t-31.5 8.5t-22.5 0q-21 -7 -51.5 -20.5t-60 -31t-53.5 -36.5t-32 -37q-10 -23 -19 -60.5t-7 -77.5 t19.5 -77t59.5 -60z" />
<glyph glyph-name="egrave" unicode="&#xe8;" horiz-adv-x="406" d="M20 152q0 -23 7.5 -51.5t22 -53.5t34.5 -42t45 -17q31 0 66 16t63.5 35t45 34.5t10.5 13.5q-7 -2 -20 -10l-28 -17t-30 -16t-27 -7q-21 0 -37.5 15.5t-28 36.5t-17.5 41.5t-6 30.5q2 0 21 7.5l46.5 19l59.5 26t58.5 28.5t44.5 26t18 18q0 7 -10.5 25t-27 36.5t-37 32.5 t-41.5 14q-29 0 -68.5 -19t-76 -51.5t-62 -76.5t-25.5 -95zM118 177q-3 40 5 72t20 55t25.5 35.5t22.5 12.5t22.5 -12.5t25.5 -29.5t18.5 -34.5t-0.5 -27.5q-8 -12 -31 -25t-47 -23.5t-42.5 -16.5zM278 424q1 1 -9 12.5t-25.5 31t-32 45t-27.5 55.5l-14 1.5t-30.5 2.5 t-30.5 2l-14 1q6 -14 21.5 -30.5t35.5 -34t41.5 -33.5t40 -28t31 -19t13.5 -6z" />
<glyph glyph-name="eacute" unicode="&#xe9;" horiz-adv-x="406" d="M20 152q0 -23 7.5 -51.5t22 -53.5t34.5 -42t45 -17q31 0 66 16t63.5 35t45 34.5t10.5 13.5q-7 -2 -20 -10l-28 -17t-30 -16t-27 -7q-21 0 -37.5 15.5t-28 36.5t-17.5 41.5t-6 30.5q2 0 21 7.5l46.5 19l59.5 26t58.5 28.5t44.5 26t18 18q0 7 -10.5 25t-27 36.5t-37 32.5 t-41.5 14q-29 0 -68.5 -19t-76 -51.5t-62 -76.5t-25.5 -95zM118 177q-3 40 5 72t20 55t25.5 35.5t22.5 12.5t22.5 -12.5t25.5 -29.5t18.5 -34.5t-0.5 -27.5q-8 -12 -31 -25t-47 -23.5t-42.5 -16.5zM230 568q-11 -30 -27.5 -55.5t-32 -45t-26 -31t-8.5 -12.5q1 -1 13.5 6 t31 19t40 28t41.5 33.5t35.5 34t21.5 30.5l-14 -1t-30.5 -2t-30.5 -2.5z" />
<glyph glyph-name="ecircumflex" unicode="&#xea;" horiz-adv-x="406" d="M20 152q0 -23 7.5 -51.5t22 -53.5t34.5 -42t45 -17q31 0 66 16t63.5 35t45 34.5t10.5 13.5q-7 -2 -20 -10l-28 -17t-30 -16t-27 -7q-21 0 -37.5 15.5t-28 36.5t-17.5 41.5t-6 30.5q2 0 21 7.5l46.5 19l59.5 26t58.5 28.5t44.5 26t18 18q0 7 -10.5 25t-27 36.5t-37 32.5 t-41.5 14q-29 0 -68.5 -19t-76 -51.5t-62 -76.5t-25.5 -95zM118 177q-3 40 5 72t20 55t25.5 35.5t22.5 12.5t22.5 -12.5t25.5 -29.5t18.5 -34.5t-0.5 -27.5q-8 -12 -31 -25t-47 -23.5t-42.5 -16.5zM92 416q-4 -5 9.5 3.5t34.5 23.5l44 31.5l38 27.5t16 12l80 -66l54 54 l-88 88l-13 -12t-34 -28t-46.5 -33t-50.5 -27l-7 -13.5t-17 -29.5t-20 -31z" />
<glyph glyph-name="edieresis" unicode="&#xeb;" horiz-adv-x="406" d="M20 152q0 -23 7.5 -51.5t22 -53.5t34.5 -42t45 -17q31 0 66 16t63.5 35t45 34.5t10.5 13.5q-7 -2 -20 -10l-28 -17t-30 -16t-27 -7q-21 0 -37.5 15.5t-28 36.5t-17.5 41.5t-6 30.5q2 0 21 7.5l46.5 19l59.5 26t58.5 28.5t44.5 26t18 18q0 7 -10.5 25t-27 36.5t-37 32.5 t-41.5 14q-29 0 -68.5 -19t-76 -51.5t-62 -76.5t-25.5 -95zM118 177q-3 40 5 72t20 55t25.5 35.5t22.5 12.5t22.5 -12.5t25.5 -29.5t18.5 -34.5t-0.5 -27.5q-8 -12 -31 -25t-47 -23.5t-42.5 -16.5zM272 485q-3 -1 1.5 -6t12 -12t15.5 -16t13 -18q1 -3 10 3.5t18.5 15.5 t17.5 18t7 11q-1 4 -8 13t-15.5 17.5t-16.5 14.5t-10 3q-5 -6 -16 -21t-29 -23zM108 485q-3 -1 1.5 -6t12 -12t15.5 -16t13 -18q1 -3 10 3.5t18.5 15.5t17.5 18t7 11q-1 4 -8 13t-15.5 17.5t-16.5 14.5t-10 3q-5 -6 -16 -21t-29 -23z" />
<glyph glyph-name="igrave" unicode="&#xec;" horiz-adv-x="260" d="M25 33q10 -25 29.5 -33.5t43.5 -7.5t48 8.5t43 16.5t28.5 15.5t4.5 4.5q-31 -10 -57.5 -9.5t-43.5 29.5q-16 26 -15 62t12.5 79t29.5 90.5l36 97.5q0 1 -14 0t-30.5 -2.5t-30 -3l-13.5 -1.5q-9 -50 -26 -99t-31 -93.5t-20 -83.5t6 -70zM204 424q1 1 -9 12.5t-25.5 31 t-32 45t-27.5 55.5l-14 1.5t-30.5 2.5t-30.5 2l-14 1q6 -14 21.5 -30.5t35.5 -34t41.5 -33.5t40 -28t31 -19t13.5 -6z" />
<glyph glyph-name="iacute" unicode="&#xed;" horiz-adv-x="260" d="M25 33q10 -25 29.5 -33.5t43.5 -7.5t48 8.5t43 16.5t28.5 15.5t4.5 4.5q-31 -10 -57.5 -9.5t-43.5 29.5q-16 26 -15 62t12.5 79t29.5 90.5l36 97.5q0 1 -14 0t-30.5 -2.5t-30 -3l-13.5 -1.5q-9 -50 -26 -99t-31 -93.5t-20 -83.5t6 -70zM154 568q-11 -30 -27.5 -55.5 t-32 -45t-26 -31t-8.5 -12.5q1 -1 13.5 6t31 19t40 28t41.5 33.5t35.5 34t21.5 30.5l-14 -1t-30.5 -2t-30.5 -2.5z" />
<glyph glyph-name="icircumflex" unicode="&#xee;" horiz-adv-x="260" d="M25 33q10 -25 29.5 -33.5t43.5 -7.5t48 8.5t43 16.5t28.5 15.5t4.5 4.5q-31 -10 -57.5 -9.5t-43.5 29.5q-16 26 -15 62t12.5 79t29.5 90.5l36 97.5q0 1 -14 0t-30.5 -2.5t-30 -3l-13.5 -1.5q-9 -50 -26 -99t-31 -93.5t-20 -83.5t6 -70zM12 416q-4 -5 9.5 3.5t34.5 23.5 l44 31.5l38 27.5t16 12l80 -66l54 54l-88 88l-13 -12t-34 -28t-46.5 -33t-50.5 -27l-7 -13.5t-17 -29.5t-20 -31z" />
<glyph glyph-name="idieresis" unicode="&#xef;" horiz-adv-x="260" d="M25 33q10 -25 29.5 -33.5t43.5 -7.5t48 8.5t43 16.5t28.5 15.5t4.5 4.5q-31 -10 -57.5 -9.5t-43.5 29.5q-16 26 -15 62t12.5 79t29.5 90.5l36 97.5q0 1 -14 0t-30.5 -2.5t-30 -3l-13.5 -1.5q-9 -50 -26 -99t-31 -93.5t-20 -83.5t6 -70zM182 485q-3 -1 1.5 -6t12 -12 t15.5 -16t13 -18q1 -3 10 3.5t18.5 15.5t17.5 18t7 11q-1 4 -8 13t-15.5 17.5t-16.5 14.5t-10 3q-5 -6 -16 -21t-29 -23zM18 485q-3 -1 1.5 -6t12 -12t15.5 -16t13 -18q1 -3 10 3.5t18.5 15.5t17.5 18t7 11q-1 4 -8 13t-15.5 17.5t-16.5 14.5t-10 3q-5 -6 -16 -21t-29 -23z " />
<glyph glyph-name="eth" unicode="&#xf0;" horiz-adv-x="378" d="M190 55q-10 0 -24 5t-27 18.5t-22 38.5t-9 66q0 52 16.5 88.5t37 59.5t39 33.5t22.5 10.5l12.5 -15t28 -38t28 -51t12.5 -54q0 -25 -13.5 -53.5t-32 -52.5t-37.5 -40t-31 -16zM106 527l41.5 -52.5l36 -46l25 -33l9.5 -12.5q-4 0 -20 -5.5t-38.5 -17t-47.5 -29.5 t-46.5 -44t-35.5 -60.5t-14 -77.5q0 -33 9 -61.5t25.5 -50.5t38 -34.5t47.5 -12.5q13 0 32.5 11.5t41 30.5t43 44.5t38.5 52.5t28 55t11 53q0 39 -14.5 81.5t-37 86t-51 87l-56.5 84.5l45 34v54l-70 -52q-33 45 -56 83q-5 9 -6.5 16.5t-6.5 7.5q-3 0 -14.5 -12t-23.5 -26.5 t-21 -27t-8 -13.5q14 -14 31 -34.5l37 -44.5l-62 -47v-54z" />
<glyph glyph-name="ntilde" unicode="&#xf1;" horiz-adv-x="484" d="M59 336q2 -17 -1.5 -52t-9.5 -77l-12.5 -84.5t-11 -75t-5 -49t5.5 -6.5q19 32 48.5 74t62.5 84.5l66 81t59.5 64.5t43.5 35t17 -7q1 -32 -6 -69t-17 -73t-20.5 -69.5t-17.5 -59t-7.5 -40.5t9.5 -15q23 0 51.5 10t52 21t37 20t6.5 7q-16 -5 -33 1t-17 23q0 19 7 50 t17 66.5l19.5 71t14.5 64.5t3 47.5t-16 18.5q-35 0 -74.5 -23.5t-78.5 -59.5t-75 -79t-63 -82q-3 -4 -1 8t7 33.5l11.5 49l13 54.5l12 50l8.5 35q0 1 -11 -1.5t-27.5 -7t-35.5 -10.5l-34 -11t-23.5 -8.5t-4.5 -3.5q9 0 19 1.5t11 -7.5zM121 456q2 -1 6.5 2.5l10.5 8t13.5 9 t14.5 6.5q17 4 34 -3.5t33.5 -17.5t33 -19t32.5 -7q21 2 40 16.5t34 32t23.5 31.5t7.5 15q-2 1 -9 -3.5t-17.5 -10.5t-24 -10.5t-28.5 -4.5t-27.5 8.5t-24.5 18t-23 17t-22 7.5q-21 0 -41 -15t-35.5 -32.5t-24 -32.5t-6.5 -16z" />
<glyph glyph-name="ograve" unicode="&#xf2;" horiz-adv-x="420" d="M2 121q0 -26 9 -50t25.5 -42t39 -29t49.5 -11q10 0 32.5 9t50 25t56.5 37t53 46t39.5 51.5t15.5 53.5q0 33 -10 66.5t-29.5 60t-47.5 43.5t-63 17q-8 0 -33 -11.5t-50.5 -25t-42 -23t-7.5 -6.5q23 8 43.5 6.5t31.5 -5.5t12 -5q-1 0 -14.5 -7t-33 -20t-41.5 -31.5 t-41 -41.5t-31.5 -50t-12.5 -57zM196 30q-3 0 -20 10t-36.5 29.5t-35 47t-15.5 63.5q0 33 13 59.5t30 45t33 28.5t22 10q5 0 21.5 -15.5t34 -39.5t31 -54t13.5 -59q0 -32 -13 -55t-29.5 -39t-31 -23.5t-17.5 -7.5zM292 424q1 1 -9 12.5t-25.5 31t-32 45t-27.5 55.5l-14 1.5 t-30.5 2.5t-30.5 2l-14 1q6 -14 21.5 -30.5t35.5 -34t41.5 -33.5t40 -28t31 -19t13.5 -6z" />
<glyph glyph-name="oacute" unicode="&#xf3;" horiz-adv-x="420" d="M2 121q0 -26 9 -50t25.5 -42t39 -29t49.5 -11q10 0 32.5 9t50 25t56.5 37t53 46t39.5 51.5t15.5 53.5q0 33 -10 66.5t-29.5 60t-47.5 43.5t-63 17q-8 0 -33 -11.5t-50.5 -25t-42 -23t-7.5 -6.5q23 8 43.5 6.5t31.5 -5.5t12 -5q-1 0 -14.5 -7t-33 -20t-41.5 -31.5 t-41 -41.5t-31.5 -50t-12.5 -57zM196 30q-3 0 -20 10t-36.5 29.5t-35 47t-15.5 63.5q0 33 13 59.5t30 45t33 28.5t22 10q5 0 21.5 -15.5t34 -39.5t31 -54t13.5 -59q0 -32 -13 -55t-29.5 -39t-31 -23.5t-17.5 -7.5zM216 568q-11 -30 -27.5 -55.5t-32 -45t-26 -31t-8.5 -12.5 q1 -1 13.5 6t31 19t40 28t41.5 33.5t35.5 34t21.5 30.5l-14 -1t-30.5 -2t-30.5 -2.5z" />
<glyph glyph-name="ocircumflex" unicode="&#xf4;" horiz-adv-x="420" d="M2 121q0 -26 9 -50t25.5 -42t39 -29t49.5 -11q10 0 32.5 9t50 25t56.5 37t53 46t39.5 51.5t15.5 53.5q0 33 -10 66.5t-29.5 60t-47.5 43.5t-63 17q-8 0 -33 -11.5t-50.5 -25t-42 -23t-7.5 -6.5q23 8 43.5 6.5t31.5 -5.5t12 -5q-1 0 -14.5 -7t-33 -20t-41.5 -31.5 t-41 -41.5t-31.5 -50t-12.5 -57zM196 30q-3 0 -20 10t-36.5 29.5t-35 47t-15.5 63.5q0 33 13 59.5t30 45t33 28.5t22 10q5 0 21.5 -15.5t34 -39.5t31 -54t13.5 -59q0 -32 -13 -55t-29.5 -39t-31 -23.5t-17.5 -7.5zM104 416q-4 -5 9.5 3.5t34.5 23.5l44 31.5l38 27.5t16 12 l80 -66l54 54l-88 88l-13 -12t-34 -28t-46.5 -33t-50.5 -27l-7 -13.5t-17 -29.5t-20 -31z" />
<glyph glyph-name="otilde" unicode="&#xf5;" horiz-adv-x="420" d="M2 121q0 -26 9 -50t25.5 -42t39 -29t49.5 -11q10 0 32.5 9t50 25t56.5 37t53 46t39.5 51.5t15.5 53.5q0 33 -10 66.5t-29.5 60t-47.5 43.5t-63 17q-8 0 -33 -11.5t-50.5 -25t-42 -23t-7.5 -6.5q23 8 43.5 6.5t31.5 -5.5t12 -5q-1 0 -14.5 -7t-33 -20t-41.5 -31.5 t-41 -41.5t-31.5 -50t-12.5 -57zM196 30q-3 0 -20 10t-36.5 29.5t-35 47t-15.5 63.5q0 33 13 59.5t30 45t33 28.5t22 10q5 0 21.5 -15.5t34 -39.5t31 -54t13.5 -59q0 -32 -13 -55t-29.5 -39t-31 -23.5t-17.5 -7.5zM83 456q2 -1 6.5 2.5l10.5 8t13.5 9t14.5 6.5q17 4 34 -3.5 t33.5 -17.5t33 -19t32.5 -7q21 2 40 16.5t34 32t23.5 31.5t7.5 15q-2 1 -9 -3.5t-17.5 -10.5t-24 -10.5t-28.5 -4.5t-27.5 8.5t-24.5 18t-23 17t-22 7.5q-21 0 -41 -15t-35.5 -32.5t-24 -32.5t-6.5 -16z" />
<glyph glyph-name="odieresis" unicode="&#xf6;" horiz-adv-x="420" d="M2 121q0 -26 9 -50t25.5 -42t39 -29t49.5 -11q10 0 32.5 9t50 25t56.5 37t53 46t39.5 51.5t15.5 53.5q0 33 -10 66.5t-29.5 60t-47.5 43.5t-63 17q-8 0 -33 -11.5t-50.5 -25t-42 -23t-7.5 -6.5q23 8 43.5 6.5t31.5 -5.5t12 -5q-1 0 -14.5 -7t-33 -20t-41.5 -31.5 t-41 -41.5t-31.5 -50t-12.5 -57zM196 30q-3 0 -20 10t-36.5 29.5t-35 47t-15.5 63.5q0 33 13 59.5t30 45t33 28.5t22 10q5 0 21.5 -15.5t34 -39.5t31 -54t13.5 -59q0 -32 -13 -55t-29.5 -39t-31 -23.5t-17.5 -7.5zM272 485q-3 -1 1.5 -6t12 -12t15.5 -16t13 -18q1 -3 10 3.5 t18.5 15.5t17.5 18t7 11q-1 4 -8 13t-15.5 17.5t-16.5 14.5t-10 3q-5 -6 -16 -21t-29 -23zM108 485q-3 -1 1.5 -6t12 -12t15.5 -16t13 -18q1 -3 10 3.5t18.5 15.5t17.5 18t7 11q-1 4 -8 13t-15.5 17.5t-16.5 14.5t-10 3q-5 -6 -16 -21t-29 -23z" />
<glyph glyph-name="divide" unicode="&#xf7;" horiz-adv-x="490" d="M8 278h365q14 0 20.5 10.5t15.5 21.5q3 4 11 9t14 9.5t7 8t-9 3.5h-361q-14 0 -22 -10t-17 -20q-4 -4 -10.5 -9.5t-11.5 -10.5t-6.5 -8.5t4.5 -3.5zM178 187q-3 -1 1.5 -6t12 -12t15.5 -16t13 -18q1 -3 10 3.5t18.5 15.5t17.5 18t7 11q-1 4 -8 13t-15.5 17.5t-16.5 14.5 t-10 3q-5 -6 -16 -21t-29 -23zM178 439q-3 -1 1.5 -6t12 -12t15.5 -16t13 -18q1 -3 10 3.5t18.5 15.5t17.5 18t7 11q-1 4 -8 13t-15.5 17.5t-16.5 14.5t-10 3q-5 -6 -16 -21t-29 -23z" />
<glyph glyph-name="oslash" unicode="&#xf8;" horiz-adv-x="420" d="M321 351q-15 7 -26 15t-22 15t-23 12t-28 5q-8 0 -33 -11.5t-50.5 -25t-42 -23t-7.5 -6.5q23 8 43.5 6.5t31.5 -5.5t12 -5q-21 -11 -49 -29t-54 -42.5t-45.5 -55t-24.5 -67.5q-3 -22 2 -42t10.5 -30.5t6.5 -11.5l-34 -34l22 -22l31 31q1 -1 10.5 -9.5t29 -17.5t44.5 -9 q10 0 32.5 9t49.5 24.5t56 36.5t52.5 45t39.5 50.5t17 52.5q1 35 -7.5 62.5t-16 40t-8.5 14.5l50 50l-24 20l-48 -49zM115 99l143 143l10 -17t15 -39q10 -39 -1.5 -69t-30.5 -49.5t-37 -29.5t-21 -8q-27 15 -45.5 32t-25 26.5t-7.5 10.5zM184 323q4 2 13.5 -6t19.5 -18.5 t17 -20l7 -9.5l-141 -141q0 1 -4 13t-5.5 34t5 47.5t27 52t61.5 48.5z" />
<glyph glyph-name="ugrave" unicode="&#xf9;" horiz-adv-x="466" d="M382 50q-2 17 1.5 52t9.5 77l12.5 84.5t11 75t5 49t-5.5 6.5q-19 -33 -48.5 -74.5l-62.5 -84l-66 -81t-59.5 -64.5t-43.5 -35t-17 7q-1 32 6 69t17 73t20.5 69.5t17.5 59t7.5 40.5t-9.5 15q-23 0 -51.5 -10t-52 -21t-37 -20t-6.5 -7q16 5 33 -1t17 -23q0 -19 -7 -50 t-17 -66.5l-19.5 -71t-14.5 -64.5t-3 -47.5t16 -18.5q35 0 74.5 23.5t78.5 59.5t75 79t63 82q3 4 1 -8t-7 -33.5l-11.5 -49l-13 -54.5l-12.5 -50t-8 -35q0 -1 11 1.5t27.5 7t35.5 10.5l34 11t23.5 8.5t4.5 3.5q-9 0 -19 -1.5t-11 7.5zM306 424q1 1 -9 12.5t-25.5 31t-32 45 t-27.5 55.5l-14 1.5t-30.5 2.5t-30.5 2l-14 1q6 -14 21.5 -30.5t35.5 -34t41.5 -33.5t40 -28t31 -19t13.5 -6z" />
<glyph glyph-name="uacute" unicode="&#xfa;" horiz-adv-x="466" d="M382 50q-2 17 1.5 52t9.5 77l12.5 84.5t11 75t5 49t-5.5 6.5q-19 -33 -48.5 -74.5l-62.5 -84l-66 -81t-59.5 -64.5t-43.5 -35t-17 7q-1 32 6 69t17 73t20.5 69.5t17.5 59t7.5 40.5t-9.5 15q-23 0 -51.5 -10t-52 -21t-37 -20t-6.5 -7q16 5 33 -1t17 -23q0 -19 -7 -50 t-17 -66.5l-19.5 -71t-14.5 -64.5t-3 -47.5t16 -18.5q35 0 74.5 23.5t78.5 59.5t75 79t63 82q3 4 1 -8t-7 -33.5l-11.5 -49l-13 -54.5l-12.5 -50t-8 -35q0 -1 11 1.5t27.5 7t35.5 10.5l34 11t23.5 8.5t4.5 3.5q-9 0 -19 -1.5t-11 7.5zM332 568q-11 -30 -27.5 -55.5t-32 -45 t-26 -31t-8.5 -12.5q1 -1 13.5 6t31 19t40 28t41.5 33.5t35.5 34t21.5 30.5l-14 -1t-30.5 -2t-30.5 -2.5z" />
<glyph glyph-name="ucircumflex" unicode="&#xfb;" horiz-adv-x="466" d="M382 50q-2 17 1.5 52t9.5 77l12.5 84.5t11 75t5 49t-5.5 6.5q-19 -33 -48.5 -74.5l-62.5 -84l-66 -81t-59.5 -64.5t-43.5 -35t-17 7q-1 32 6 69t17 73t20.5 69.5t17.5 59t7.5 40.5t-9.5 15q-23 0 -51.5 -10t-52 -21t-37 -20t-6.5 -7q16 5 33 -1t17 -23q0 -19 -7 -50 t-17 -66.5l-19.5 -71t-14.5 -64.5t-3 -47.5t16 -18.5q35 0 74.5 23.5t78.5 59.5t75 79t63 82q3 4 1 -8t-7 -33.5l-11.5 -49l-13 -54.5l-12.5 -50t-8 -35q0 -1 11 1.5t27.5 7t35.5 10.5l34 11t23.5 8.5t4.5 3.5q-9 0 -19 -1.5t-11 7.5zM104 416q-4 -5 9.5 3.5t34.5 23.5 l44 31.5l38 27.5t16 12l80 -66l54 54l-88 88l-13 -12t-34 -28t-46.5 -33t-50.5 -27l-7 -13.5t-17 -29.5t-20 -31z" />
<glyph glyph-name="udieresis" unicode="&#xfc;" horiz-adv-x="466" d="M382 50q-2 17 1.5 52t9.5 77l12.5 84.5t11 75t5 49t-5.5 6.5q-19 -33 -48.5 -74.5l-62.5 -84l-66 -81t-59.5 -64.5t-43.5 -35t-17 7q-1 32 6 69t17 73t20.5 69.5t17.5 59t7.5 40.5t-9.5 15q-23 0 -51.5 -10t-52 -21t-37 -20t-6.5 -7q16 5 33 -1t17 -23q0 -19 -7 -50 t-17 -66.5l-19.5 -71t-14.5 -64.5t-3 -47.5t16 -18.5q35 0 74.5 23.5t78.5 59.5t75 79t63 82q3 4 1 -8t-7 -33.5l-11.5 -49l-13 -54.5l-12.5 -50t-8 -35q0 -1 11 1.5t27.5 7t35.5 10.5l34 11t23.5 8.5t4.5 3.5q-9 0 -19 -1.5t-11 7.5zM278 485q-3 -1 1.5 -6t12 -12t15.5 -16 t13 -18q1 -3 10 3.5t18.5 15.5t17.5 18t7 11q-1 4 -8 13t-15.5 17.5t-16.5 14.5t-10 3q-5 -6 -16 -21t-29 -23zM114 485q-3 -1 1.5 -6t12 -12t15.5 -16t13 -18q1 -3 10 3.5t18.5 15.5t17.5 18t7 11q-1 4 -8 13t-15.5 17.5t-16.5 14.5t-10 3q-5 -6 -16 -21t-29 -23z" />
<glyph glyph-name="yacute" unicode="&#xfd;" horiz-adv-x="500" d="M-125 -72q-4 -4 5 -19.5t25 -37t36.5 -45t40 -43t35 -32t21.5 -11.5q60 14 103.5 33.5t75 46.5t53.5 64t41 87t37 114l40 146q10 36 28.5 66t36.5 51.5t30.5 33t8.5 10.5q-21 -4 -46.5 -8t-47.5 -7t-37 -4.5l-15 -1.5q-11 -24 -20.5 -53t-16 -55t-10.5 -43.5l-4 -17.5 q-14 -24 -34 -49t-40.5 -45.5t-37.5 -32.5t-25 -11q-9 1 -13.5 19.5t-6 48t0 65.5t5.5 72.5t10 70t14 56.5q1 2 -17.5 0t-40.5 -6t-40.5 -8.5t-18.5 -7.5q4 -22 6 -59t3 -80.5l2 -88.5t3.5 -81t7 -59.5t12.5 -23.5q17 -1 43.5 18.5t54 46t52.5 55l40 46.5t16 20 q-8 -29 -14 -66.5t-13.5 -77.5t-17.5 -80t-27 -73t-41.5 -56.5t-60.5 -30.5q-12 -2 -33 6t-43.5 27t-42.5 48.5t-31 70.5q-3 12 4.5 22.5t16.5 17.5t14.5 10t-2.5 0q-30 -10 -48 -15t-30.5 -10t-22.5 -12t-24 -21zM350 568q-11 -30 -27.5 -55.5t-32 -45t-26 -31t-8.5 -12.5 q1 -1 13.5 6t31 19t40 28t41.5 33.5t35.5 34t21.5 30.5l-14 -1t-30.5 -2t-30.5 -2.5z" />
<glyph glyph-name="thorn" unicode="&#xfe;" horiz-adv-x="417" d="M-50 -231q-3 -10 9 -13t30.5 -1t40.5 6.5t40 9.5t27.5 9t3.5 4q-7 0 -15.5 -2t-16 -1.5t-11.5 5t-2 16.5q8 51 20 96t19 92q2 1 27 12t64.5 32.5t78.5 47.5t69 56.5t35 60.5q5 28 4 64t-6 66.5t-13.5 49.5t-17.5 15q-34 -15 -68.5 -43.5t-62.5 -56t-45.5 -48.5l-17.5 -21 q5 27 14.5 70l20.5 92.5l23 101l23 96.5t21 78.5t16 47.5q4 9 -1 6.5t-14 -10.5l-20.5 -18.5t-20.5 -17.5l-27 -21l-39 -31.5l-34.5 -29.5t-13.5 -14q1 -2 12 7.5l24 20t23 16.5t10 -1q0 -24 -12 -83.5t-31 -138.5l-42.5 -169.5l-46.5 -177l-43.5 -160.5zM97 2l40 196 q1 1 13 15.5l31 36t38 39.5t35 26t20 -5q10 -30 13.5 -72.5t-10.5 -86.5q-11 -32 -40.5 -59.5t-60.5 -47.5t-55 -31z" />
<glyph glyph-name="ydieresis" unicode="&#xff;" horiz-adv-x="500" d="M-125 -72q-4 -4 5 -19.5t25 -37t36.5 -45t40 -43t35 -32t21.5 -11.5q60 14 103.5 33.5t75 46.5t53.5 64t41 87t37 114l40 146q10 36 28.5 66t36.5 51.5t30.5 33t8.5 10.5q-21 -4 -46.5 -8t-47.5 -7t-37 -4.5l-15 -1.5q-11 -24 -20.5 -53t-16 -55t-10.5 -43.5l-4 -17.5 q-14 -24 -34 -49t-40.5 -45.5t-37.5 -32.5t-25 -11q-9 1 -13.5 19.5t-6 48t0 65.5t5.5 72.5t10 70t14 56.5q1 2 -17.5 0t-40.5 -6t-40.5 -8.5t-18.5 -7.5q4 -22 6 -59t3 -80.5l2 -88.5t3.5 -81t7 -59.5t12.5 -23.5q17 -1 43.5 18.5t54 46t52.5 55l40 46.5t16 20 q-8 -29 -14 -66.5t-13.5 -77.5t-17.5 -80t-27 -73t-41.5 -56.5t-60.5 -30.5q-12 -2 -33 6t-43.5 27t-42.5 48.5t-31 70.5q-3 12 4.5 22.5t16.5 17.5t14.5 10t-2.5 0q-30 -10 -48 -15t-30.5 -10t-22.5 -12t-24 -21zM308 485q-3 -1 1.5 -6t12 -12t15.5 -16t13 -18q1 -3 10 3.5 t18.5 15.5t17.5 18t7 11q-1 4 -8 13t-15.5 17.5t-16.5 14.5t-10 3q-5 -6 -16 -21t-29 -23zM144 485q-3 -1 1.5 -6t12 -12t15.5 -16t13 -18q1 -3 10 3.5t18.5 15.5t17.5 18t7 11q-1 4 -8 13t-15.5 17.5t-16.5 14.5t-10 3q-5 -6 -16 -21t-29 -23z" />
<glyph glyph-name="OE" unicode="&#x152;" horiz-adv-x="902" d="M253 -8q12 3 26 8.5t23 8.5t10 4q28 -3 65 -6l77 -6t81 -5t78 -2t67.5 2.5t48.5 8.5q12 4 30.5 17t35.5 27.5l28.5 25t10.5 10.5q-25 -12 -44 -18t-32.5 -8.5t-23 -3t-14.5 -1.5q-35 -5 -76.5 -3.5t-77.5 5t-60.5 7.5l-24.5 4q25 31 46 75t35.5 84.5t22.5 69l8 28.5 q41 18 85 25.5t76 -1.5q13 -4 17 -13t3.5 -17t-2 -12.5t1.5 1.5q12 19 24 31.5t23.5 22l21.5 18.5t18 23l-15 2t-46.5 -0.5t-80 -11.5t-115.5 -31q1 2 7.5 26.5t18.5 64.5t26.5 80.5t30.5 75.5t31 49l15.5 -0.5t39 -7t51 -21t50.5 -42.5q2 -3 8.5 8.5t12 27t7 30t-7.5 17.5 q-44 15 -95.5 17t-99 -3.5t-88 -15t-63 -16t-24.5 -7.5q-63 43 -138.5 45.5t-172.5 -45.5q-4 -2 -15.5 -18.5l-23 -34.5t-18.5 -32t-3 -11q44 32 93 41.5t96.5 0t90 -36.5t74.5 -69q28 -37 38 -82t5 -91.5t-24.5 -91.5t-50.5 -80.5t-73 -58.5t-93 -26q-23 -1 -50.5 10 t-53.5 32.5t-48 53.5t-33 73.5t-9.5 91t22.5 105.5q12 31 38 58t51.5 47.5l43.5 34t13 18.5q-3 3 -25 -7.5t-53 -32t-67 -52.5t-66 -70t-49 -84.5t-18 -95.5q1 -51 26.5 -99.5t62.5 -84.5t80 -53.5t79 -6.5z" />
<glyph glyph-name="oe" unicode="&#x153;" horiz-adv-x="674" d="M299 89l8 -21t34 -53q18 -22 45 -24.5t55.5 6t56.5 24.5t48.5 31.5t30.5 26t3 8.5t-20.5 -11t-29.5 -18.5t-31.5 -16t-27.5 -3.5q-21 5 -36 19t-24.5 32t-15 37t-7.5 35l17 6.5l43.5 17.5l57.5 24.5t58.5 27.5t47.5 27t24 22q2 5 -8.5 24t-29 39t-42.5 34t-48 10 q-34 -6 -62.5 -21t-49 -30.5t-32 -27l-11.5 -11.5q-20 39 -51.5 67t-79.5 28q-8 0 -33 -11.5t-50.5 -25t-42 -23t-7.5 -6.5q23 8 43.5 6.5t31.5 -5.5t12 -5q-21 -11 -49 -29t-54 -42.5t-45.5 -55t-24.5 -67.5q-3 -28 5 -54t25 -46.5t40.5 -32.5t51.5 -12q16 0 42 12 t52.5 28.5t49 33t30.5 26.5zM386 177q-2 20 1 45t10.5 49t21 45.5t33.5 34.5q8 5 23 -6.5t28.5 -29.5t21 -37.5t0.5 -29.5q-8 -12 -31 -25t-47 -23.5t-42.5 -16.5zM193 30q-59 33 -83 76t-20.5 85t29 77.5t65.5 54.5q5 2 19 -10t29.5 -32.5t30 -45.5t20.5 -49 q10 -39 -1.5 -69t-30.5 -49.5t-37 -29.5t-21 -8z" />
<glyph glyph-name="Ydieresis" unicode="&#x178;" horiz-adv-x="632" d="M97 474q0 51 18 85.5t41.5 55t45 29t28.5 8.5q11 0 33 -26t49.5 -65t56 -84l52.5 -84l39 -65l15 -26q-21 -40 -46 -82l-47 -80.5t-36.5 -70.5t-14.5 -51q0 -20 18.5 -27t41 -7.5t41.5 3t19 5.5q0 3 -4 7t-8.5 10t-8.5 16t-4 25q0 39 22.5 93.5t56 116t73 125.5l73 121.5 t56 104.5t22.5 74q0 2 -20 3t-45 1q-24 0 -45 -1.5t-22 -4.5q-2 -3 3 -6.5l12 -8.5t12.5 -11.5t5.5 -14.5q0 -10 -13.5 -43l-31.5 -73.5l-37.5 -81l-32 -65.5l-13.5 -27q-8 13 -23.5 44l-35 70l-40.5 81t-40 76.5t-33 56.5t-20 22q-21 0 -52 -13t-64.5 -34t-67.5 -47.5 t-60.5 -53.5t-43.5 -52t-17 -43q0 -8 18 -15.5t39.5 -13t39.5 -7.5t18 2q0 3 -3.5 7t-8 10t-8 13.5t-3.5 18.5zM502 763q-3 -1 1.5 -6t12 -12t15.5 -16t13 -18q1 -3 10 3.5t18.5 15.5t17.5 18t7 11q-1 4 -8 13t-15.5 17.5t-16.5 14.5t-10 3q-5 -6 -16 -21t-29 -23zM338 763 q-3 -1 1.5 -6t12 -12t15.5 -16t13 -18q1 -3 10 3.5t18.5 15.5t17.5 18t7 11q-1 4 -8 13t-15.5 17.5t-16.5 14.5t-10 3q-5 -6 -16 -21t-29 -23z" />
<glyph glyph-name="circumflex" unicode="&#x2c6;" horiz-adv-x="488" d="M122 416q-4 -5 9.5 3.5t34.5 23.5l44 31.5l38 27.5t16 12l80 -66l54 54l-88 88l-13 -12t-34 -28t-46.5 -33t-50.5 -27l-7 -13.5t-17 -29.5t-20 -31z" />
<glyph glyph-name="tilde" unicode="&#x2dc;" horiz-adv-x="370" d="M47 456q2 -1 6.5 2.5l10.5 8t13.5 9t14.5 6.5q17 4 34 -3.5t33.5 -17.5t33 -19t32.5 -7q21 2 40 16.5t34 32t23.5 31.5t7.5 15q-2 1 -9 -3.5t-17.5 -10.5t-24 -10.5t-28.5 -4.5t-27.5 8.5t-24.5 18t-23 17t-22 7.5q-21 0 -41 -15t-35.5 -32.5t-24 -32.5t-6.5 -16z" />
<glyph glyph-name="endash" unicode="&#x2013;" horiz-adv-x="400" d="M8 278h293q14 0 20.5 10.5t15.5 21.5q3 4 11 9t14 9.5t7 8t-9 3.5h-289q-14 0 -22 -10t-17 -20q-4 -4 -10.5 -9.5t-11.5 -10.5t-6.5 -8.5t4.5 -3.5z" />
<glyph glyph-name="emdash" unicode="&#x2014;" horiz-adv-x="766" d="M8 278h663q14 0 20.5 10.5t15.5 21.5q3 4 11 9t14 9.5t7 8t-9 3.5h-659q-14 0 -22 -10t-17 -20q-4 -4 -10.5 -9.5t-11.5 -10.5t-6.5 -8.5t4.5 -3.5z" />
<glyph glyph-name="quoteleft" unicode="&#x2018;" horiz-adv-x="170" d="M21 612q0 -4 5 -12t11.5 -16t12.5 -14.5t8 -6.5t11 4.5t18.5 10.5t17.5 12.5t8 9.5t-5.5 7.5l-11.5 9.5t-11 11.5t-3 14.5q2 9 11 15t7 9q-1 1 -13.5 -5t-27 -15.5t-26.5 -19t-12 -15.5z" />
<glyph glyph-name="quoteright" unicode="&#x2019;" horiz-adv-x="170" d="M122 620q0 4 -5 12t-11.5 16t-12.5 14.5t-8 6.5t-11 -4.5t-19 -10.5t-17.5 -12.5t-7.5 -9.5t5.5 -7.5l12 -9.5t11 -11.5t2.5 -14.5t-11 -13.5t-7 -8.5q1 -2 13.5 4t27 15t26.5 18.5t12 15.5z" />
<glyph glyph-name="quotesinglbase" unicode="&#x201a;" horiz-adv-x="170" d="M122 48q0 4 -5 12t-11.5 16t-12.5 14.5t-8 6.5t-11 -4.5t-19 -10.5t-17.5 -12.5t-7.5 -9.5t5.5 -7.5l12 -9.5t11 -11.5t2.5 -14.5t-11 -13.5t-7 -8.5q1 -2 13.5 4t27 15t26.5 18.5t12 15.5z" />
<glyph glyph-name="quotedblleft" unicode="&#x201c;" horiz-adv-x="222" d="M106 612q0 -4 5 -12t11.5 -16t12.5 -14.5t8 -6.5t11 4.5t18.5 10.5t17.5 12.5t8 9.5t-5.5 7.5l-12 9.5t-11 11.5t-2.5 14.5t11 13.5t7 8.5q-1 1 -13.5 -4.5t-27 -14.5t-26.5 -18.5t-12 -15.5zM1 612q0 -4 5 -12t11.5 -16t12.5 -14.5t8 -6.5t11 4.5t18.5 10.5t17.5 12.5 t8 9.5t-5.5 7.5l-11.5 9.5t-11 11.5t-3 14.5q2 9 11 15t7 9q-1 1 -13.5 -5t-27 -15.5t-26.5 -19t-12 -15.5z" />
<glyph glyph-name="quotedblright" unicode="&#x201d;" horiz-adv-x="243" d="M122 620q0 4 -5 12t-11.5 16t-12.5 14.5t-8 6.5t-11 -4.5t-19 -10.5t-17.5 -12.5t-7.5 -9.5t5.5 -7.5l12 -9.5t11 -11.5t2.5 -14.5t-11 -13.5t-7 -8.5q1 -2 13.5 4t27 15t26.5 18.5t12 15.5zM227 620q0 4 -5 12t-11.5 16t-12.5 14.5t-8 6.5t-11 -4.5t-19 -10.5 t-17.5 -12.5t-7.5 -9.5t5.5 -7.5l11.5 -9.5t10.5 -11.5t3.5 -14.5q-2 -9 -11 -15t-7 -9q1 -2 13.5 4.5t27 16t26.5 19t12 15.5z" />
<glyph glyph-name="quotedblbase" unicode="&#x201e;" horiz-adv-x="243" d="M122 60q0 4 -5 12t-11.5 16t-12.5 14.5t-8 6.5t-11 -4.5t-19 -10.5t-17.5 -12.5t-7.5 -9.5t5.5 -7.5l12 -9.5t11 -11.5t2.5 -14.5t-11 -13.5t-7 -8.5q1 -2 13.5 4t27 15t26.5 18.5t12 15.5zM227 60q0 4 -5 12t-11.5 16t-12.5 14.5t-8 6.5t-11 -4.5t-19 -10.5t-17.5 -12.5 t-7.5 -9.5t5.5 -7.5l11.5 -9.5t10.5 -11.5t3.5 -14.5q-2 -9 -11 -15t-7 -9q1 -2 13.5 4.5t27 16t26.5 19t12 15.5z" />
<glyph glyph-name="bullet" unicode="&#x2022;" horiz-adv-x="454" d="M391 251q0 65 -29 108.5t-72.5 65.5t-94.5 22q-50 0 -93.5 -22t-72.5 -65.5t-29 -108.5t29 -108.5t72.5 -65.5t93.5 -22q51 0 94.5 22t72.5 65.5t29 108.5z" />
<glyph glyph-name="ellipsis" unicode="&#x2026;" horiz-adv-x="540" d="M388 37q-3 -1 1.5 -6t12 -12t15.5 -16t13 -18q1 -3 10 3.5t18.5 15.5t17.5 18t7 11q-1 4 -8 13t-15.5 17.5t-16.5 14.5t-10 3q-5 -6 -16 -21t-29 -23zM208 37q-3 -1 1.5 -6t12 -12t15.5 -16t13 -18q1 -3 10 3.5t18.5 15.5t17.5 18t7 11q-1 4 -8 13t-15.5 17.5t-16.5 14.5 t-10 3q-5 -6 -16 -21t-29 -23zM28 37q-3 -1 1.5 -6t12 -12t15.5 -16t13 -18q1 -3 10 3.5t18.5 15.5t17.5 18t7 11q-1 4 -8 13t-15.5 17.5t-16.5 14.5t-10 3q-5 -6 -16 -21t-29 -23z" />
<glyph glyph-name="guilsinglleft" unicode="&#x2039;" horiz-adv-x="310" d="M262 259l-106 -18q-4 -20 -11.5 -34.5t-23.5 -27.5t-43.5 -25.5t-72.5 -28.5l24.5 -8t57 -23t65 -36.5t49.5 -49.5l96 22q-16 26 -43 47t-53 35.5t-45 22l-19 7.5q32 13 53.5 24.5t35.5 25t22 29.5t14 38z" />
<glyph glyph-name="guilsinglright" unicode="&#x203a;" horiz-adv-x="310" d="M44 11l106 18q4 19 11.5 34t23.5 28t43.5 25.5t72.5 28.5l-24.5 8t-57 23t-65.5 36.5t-49 49.5l-96 -22q16 -26 43 -47t53 -35.5t45 -22l19 -7.5q-32 -13 -53.5 -24.5t-35.5 -25t-22 -29.5t-14 -38z" />
<glyph glyph-name="trademark" unicode="&#x2122;" horiz-adv-x="742" d="M293 612q1 -1 3.5 3.5t4.5 11t2.5 12t-2.5 7.5q-11 3 -22 5t-24 2q-41 0 -85.5 -12t-82 -30t-62 -38.5t-24.5 -36.5q0 -2 8.5 -4.5t19 -4.5t19 -2.5t8.5 0.5q0 3 -5.5 7t-5.5 12q0 16 18.5 33t45 31.5t56.5 24t53 9.5t42.5 -6.5t32.5 -23.5zM156 418q8 45 19.5 92.5 t28.5 107.5q2 6 6.5 10.5t0.5 5.5q-5 1 -16.5 -1t-20 -4.5t-9.5 -2.5q-3 -24 -9.5 -57l-13.5 -67t-13 -66.5t-9 -55.5q-1 -7 6 -4.5t15.5 8.5t16 13.5t8.5 10.5l-3 -1.5t-5.5 0t-1.5 11.5zM424 643q1 -8 2.5 -11t2.5 -6t2 -7l3 -12q1 -4 -4.5 -20.5t-15.5 -38.5t-23.5 -47 t-28.5 -46t-31 -34.5t-31 -13.5q-11 0 -17.5 6t-6.5 14t3.5 15.5t3.5 11.5q-1 0 -8.5 -3t-16 -8.5t-15.5 -13t-7 -15.5q0 -14 11.5 -23t38.5 -9q19 0 37 14t34.5 35t30.5 46.5t25 48.5t18 41.5t9 24.5l8.5 -23.5t18 -55.5t18 -65.5t8.5 -53.5q0 -10 11.5 0t28.5 35.5 t37.5 63.5t38.5 83q0 -2 0.5 -21t2.5 -49.5t5.5 -59t8.5 -49.5t12 -21t16.5 5t18 11t14.5 12t5 8t-4.5 -1t-8.5 -5.5t-10 -2.5t-9 8q-8 19 -9.5 78t-1.5 152q0 3 3 6.5t5.5 6t3.5 4.5t-3 2q-12 0 -28 -2.5t-16 -7.5q0 -27 -11.5 -59.5t-26.5 -61.5t-31 -52t-25 -32 q0 1 -5 18.5l-13 45t-15 55.5l-12.5 50t-5.5 28q0 4 4 7l6.5 5t1 3.5t-12.5 1.5q-23 0 -55 -10.5t-60.5 -26t-48.5 -33t-20 -31.5q0 -3 8.5 -5.5t19 -4t19 -2t8.5 1.5t-5 4.5t-5 11.5q0 21 15 35.5t32.5 24.5t32.5 14.5z" />
</font>
</defs>
</svg>
